<svg xmlns="http://www.w3.org/2000/svg" xmlns:xlink="http://www.w3.org/1999/xlink" width="2976.38" height="1831.61" viewBox="0 0 2976.38 1831.61"><defs><clipPath id="clip-2"><path clip-rule="evenodd" d="M 1070.160156 875.667969 C 969.5625 764.929688 1033.160156 804.890625 905.097656 898.933594 C 885.851562 868.015625 815.503906 885.308594 784.722656 855.675781 C 748.628906 799.910156 703.40625 802.339844 670.070312 774.351562 C 594.316406 710.730469 607.421875 696.058594 573.894531 723.5 C 561.953125 733.269531 557.765625 755.890625 530.726562 782.359375 C 499.804688 822.058594 469.164062 852.542969 417.503906 904.96875 C 303.617188 1020.558594 193.726562 1164.070312 140.058594 1107.5 C 71.496094 1035.210938 64.71875 1196.359375 0 1159.179688 L 0 1707.53125 L 2976.371094 1707.53125 C 2976.371094 1694.398438 2976.371094 1223.089844 2976.371094 1209.960938 C 2810.371094 1086.320312 2588.878906 1199.28125 2457.101562 1045.050781 C 2390.308594 1026 2347.160156 974.621094 2304.789062 940.289062 C 2255.910156 900.679688 2224.679688 858.421875 2197.191406 825.441406 C 2181.671875 806.820312 2169.519531 768.140625 2158.570312 781.898438 C 2151.421875 790.859375 2139.730469 791.898438 2128.199219 801.488281 C 2117.839844 810.101562 2105.449219 815.808594 2093.378906 827.769531 C 2060.941406 859.921875 2008.351562 884.523438 1937.679688 947.753906 C 1861.78125 883.457031 1847.339844 790.378906 1777.050781 724.898438 C 1698.070312 651.328125 1661.171875 625.28125 1587.390625 536.328125 C 1559.21875 502.359375 1528.980469 487.871094 1513.730469 471.171875 C 1486.53125 441.359375 1468.398438 446.421875 1447.039062 483.5 C 1437.058594 500.851562 1407.839844 525.160156 1384.25 555.160156 C 1351.511719 596.800781 1316.289062 610.328125 1284.230469 641.089844 C 1259.808594 664.511719 1236.121094 703.769531 1204.039062 716.609375 C 1176.828125 727.480469 1164.441406 759.871094 1145.398438 787.25 C 1121.460938 821.691406 1096.25 850.765625 1070.160156 875.667969 "/></clipPath><linearGradient id="linear-pattern-1" gradientUnits="userSpaceOnUse" x1="-0.00833798" y1="0" x2="1" y2="0" gradientTransform="matrix(0, 1255.7, 631.561, 0, 1488.19, 451.83)"><stop offset="1" stop-color="rgb(29.46167%, 42.303467%, 72.569275%)" stop-opacity="1"/></linearGradient><clipPath id="clip-3"><path clip-rule="nonzero" d="M 0 778 L 2976.378906 778 L 2976.378906 1644 L 0 1644 Z M 0 778 "/></clipPath></defs><g clip-path="url(#clip-1)"><g clip-path="url(#clip-2)"><path fill-rule="nonzero" fill="url(#linear-pattern-1)" d="M 0 441.359375 L 2976.371094 441.359375 L 2976.371094 1707.53125 L 0 1707.53125 Z M 0 441.359375 "/></g></g></svg>