<svg xmlns="http://www.w3.org/2000/svg" xmlns:xlink="http://www.w3.org/1999/xlink" width="2976.38" height="1831.61" viewBox="0 0 2976.38 1831.61">
    <path fill-rule="evenodd" fill="rgb(1.713562%, 2.252197%, 2.304077%)" fill-opacity="1" d="M 1314.371094 798.820312 C 1315.421875 798.96875 1315.351562 798.78125 1318.820312 802.03125 C 1317.46875 801.078125 1316.011719 800.019531 1314.371094 798.820312 Z M 1301.179688 726.101562 C 1298.820312 731.230469 1296.488281 736.199219 1296.21875 737.960938 C 1295.878906 741.730469 1291.53125 746.890625 1294.308594 764.261719 C 1296.75 778.601562 1309.410156 790.269531 1310.851562 792.039062 C 1312.191406 794.039062 1310.5 794.539062 1308.171875 794.128906 L 1307.941406 794.089844 L 1306.800781 793.25 C 1290.359375 781.238281 1286.140625 765.21875 1286.140625 765.21875 C 1279.019531 747.488281 1297.070312 729.070312 1301 726.238281 Z M 1339.890625 675.398438 L 1340.019531 676.390625 C 1340.609375 682.089844 1338.839844 690.351562 1336.019531 691.371094 C 1334.671875 691.929688 1333.511719 691.449219 1332.488281 690.101562 C 1332.339844 689.039062 1332.320312 688.089844 1332.300781 687.511719 C 1332.46875 685.300781 1337.511719 680.289062 1339.890625 675.398438 Z M 1393.46875 797.859375 C 1389.878906 800.769531 1385.640625 804.050781 1380.75 807.628906 C 1379.101562 808.839844 1377.261719 810.128906 1375.171875 811.460938 C 1375.640625 811.058594 1376.058594 810.699219 1376.421875 810.390625 C 1378.429688 808.699219 1386.148438 803.371094 1393.46875 797.859375 Z M 1447.039062 805.859375 C 1447.121094 805.609375 1447.289062 805.371094 1447.511719 805.109375 Z M 1008.691406 1142.929688 C 1009.199219 1145.339844 1010.21875 1149.871094 1011.660156 1143.96875 L 1011.671875 1143.941406 C 1012.300781 1144 1012.898438 1143.660156 1013.390625 1142.359375 C 1013.199219 1146.601562 1014.359375 1149.03125 1016.238281 1150.25 C 1017.050781 1152.078125 1024.488281 1160.308594 1030.558594 1159.300781 C 1037.011719 1158.121094 1037.019531 1157.558594 1040.910156 1156.398438 C 1041.371094 1156.269531 1041.210938 1155.640625 1040.691406 1154.769531 C 1042.019531 1154.480469 1043.351562 1154.011719 1042.738281 1153.289062 C 1040.199219 1149.730469 1036.328125 1146.578125 1034.941406 1145.5 C 1034.910156 1144.519531 1033.710938 1143.339844 1030.679688 1141.800781 C 1027.921875 1137.480469 1024.140625 1138.96875 1022.960938 1132.53125 C 1022.960938 1132.53125 1017.308594 1101.851562 1025.398438 1082.71875 C 1029.738281 1072.601562 1040.121094 1070.429688 1043.328125 1069.480469 C 1046.371094 1068.570312 1060.089844 1057.871094 1063.078125 1054.960938 C 1066.238281 1051.988281 1069.339844 1047.578125 1073.449219 1044.699219 C 1077.191406 1042.171875 1080.140625 1039.039062 1082.371094 1036.011719 C 1083.019531 1039.359375 1083.179688 1044.410156 1082.429688 1049.558594 C 1081.339844 1057.609375 1074.921875 1070 1072.828125 1072.269531 C 1070.808594 1074.710938 1074.460938 1078.960938 1074.980469 1080.089844 C 1075.449219 1081.050781 1078.160156 1085.210938 1080.308594 1087.511719 C 1082.46875 1089.800781 1103.160156 1118.558594 1103.820312 1120.761719 C 1104.519531 1122.648438 1108.328125 1130.699219 1110.839844 1132.570312 C 1111.550781 1134 1115.199219 1138.730469 1113.511719 1131.148438 C 1114.46875 1130.738281 1115.808594 1131.96875 1118.070312 1132.71875 C 1118.5 1133.640625 1126.648438 1140.851562 1132.578125 1139.578125 C 1138.421875 1138.210938 1138.148438 1137.921875 1142.21875 1136.160156 C 1142.671875 1135.96875 1142.339844 1135.269531 1141.570312 1134.339844 C 1142.011719 1134.25 1144.121094 1133.71875 1142.519531 1132.210938 C 1139.71875 1129.5 1135.871094 1126.890625 1134.25 1125.828125 C 1134.011719 1124.488281 1131.988281 1123.398438 1129.800781 1122.21875 C 1124.589844 1119.53125 1119.679688 1119.71875 1118.039062 1118.550781 C 1114.71875 1116.039062 1096.921875 1090.828125 1095.851562 1087.839844 C 1094.660156 1085.070312 1091.78125 1080.96875 1092.039062 1078.128906 C 1092.519531 1075.421875 1096.648438 1070.140625 1096.648438 1070.140625 C 1099.808594 1067.179688 1108.730469 1060.109375 1114.320312 1051.101562 C 1120.96875 1040.109375 1120.738281 1031.910156 1121.558594 1027.25 C 1122.941406 1020.78125 1125.351562 1018.398438 1125.691406 1016.460938 C 1125.890625 1015.828125 1126.199219 1015.011719 1126.53125 1014.199219 C 1126.558594 1014.421875 1126.589844 1014.539062 1126.589844 1014.539062 C 1126.589844 1014.539062 1133.460938 1014.148438 1135.820312 1015.289062 C 1138.128906 1016.25 1150.171875 1019.648438 1152.050781 1014.859375 C 1153.761719 1010.128906 1154.191406 1010.921875 1159.101562 1010.738281 C 1164.011719 1010.570312 1183.148438 1011.300781 1211.21875 1000 C 1211.21875 1000 1236.128906 989.828125 1239.660156 987.488281 C 1241.03125 986.585938 1244.410156 984.96875 1248.101562 983.320312 C 1250.269531 989.855469 1254.25 1001.058594 1257.558594 1006.238281 C 1262.28125 1013.46875 1263.601562 1019.140625 1263.359375 1021.421875 C 1262.898438 1027.261719 1268.179688 1032.671875 1268.179688 1032.671875 C 1268.179688 1032.671875 1278.429688 1053.511719 1278.539062 1067.441406 C 1278.539062 1067.441406 1278.351562 1072.109375 1281.480469 1074.980469 C 1281.859375 1076.738281 1283.289062 1082.410156 1284.429688 1076.71875 L 1284.441406 1076.691406 C 1286.03125 1077.371094 1286.679688 1078.980469 1287.421875 1080.398438 C 1287.289062 1081.539062 1293.121094 1090.269531 1299.839844 1089.589844 C 1306.988281 1088.929688 1306.460938 1088.351562 1310.339844 1087.199219 C 1310.808594 1087.058594 1310.621094 1086.328125 1310.039062 1085.308594 C 1310.761719 1085.011719 1311.238281 1084.488281 1310.730469 1083.589844 C 1308.371094 1079.429688 1304.679688 1076.5 1302.558594 1075.058594 C 1302.460938 1071.261719 1293.421875 1066.5 1290.691406 1058.859375 C 1289.21875 1054.519531 1279.898438 1030.648438 1279.390625 1028.960938 C 1278.839844 1027.101562 1280.441406 1022.578125 1279.890625 1018.890625 C 1279.289062 1015.019531 1276.519531 1009.421875 1276.660156 1004.960938 C 1276.929688 1001.128906 1276.648438 986.582031 1276.570312 982.296875 C 1278.03125 982.457031 1279.421875 982.265625 1280.128906 982.054688 C 1282.828125 981.25 1294.800781 980.074219 1294.800781 980.074219 C 1301.769531 980.023438 1319.570312 979.316406 1328.800781 978.21875 C 1335.960938 977.566406 1338.320312 978.703125 1339.871094 978.972656 C 1341.589844 979.195312 1346.21875 982.410156 1346.980469 983.101562 C 1347.519531 983.679688 1349.75 988.710938 1350.390625 991.460938 C 1351.019531 994.214844 1353.859375 1018.550781 1353.480469 1021.601562 C 1353.101562 1024.648438 1352.640625 1032.328125 1353.25 1035.640625 C 1354.089844 1039.761719 1354.070312 1040.800781 1354.710938 1041.058594 C 1354.949219 1041.699219 1355.359375 1042.660156 1355.898438 1043.308594 C 1356.589844 1044.390625 1357.269531 1042.351562 1357.53125 1041.351562 L 1357.53125 1041.289062 C 1358.070312 1041.371094 1358.710938 1041.488281 1359.460938 1041.699219 L 1359.730469 1041.761719 C 1360.511719 1043.011719 1361.398438 1044.671875 1361.390625 1045.710938 C 1361.339844 1047.378906 1364.050781 1053.378906 1371.640625 1052.960938 C 1376.28125 1052.789062 1377.769531 1053.070312 1377.898438 1050.941406 C 1378.558594 1050.628906 1378.890625 1049.558594 1378.519531 1047.050781 C 1378.210938 1043.921875 1376.21875 1039.378906 1374.960938 1036.738281 C 1374.980469 1036.660156 1375 1036.589844 1375.019531 1036.511719 C 1375.320312 1033.839844 1373.21875 1029.878906 1366.539062 1022.859375 C 1362.648438 1019.058594 1361.5 985.578125 1362.101562 982.644531 C 1362.75 979.878906 1361.578125 974.714844 1361.019531 972.855469 C 1360.46875 971 1357.640625 968.902344 1356.050781 967.898438 C 1354.46875 966.902344 1351.289062 965.460938 1348.808594 964.546875 C 1346.28125 963.460938 1329.898438 961.539062 1324.261719 961.746094 C 1318.621094 961.953125 1310.578125 960.855469 1307.761719 960.042969 C 1304.78125 959.273438 1295.640625 957.585938 1295.640625 957.585938 C 1294.371094 957.042969 1293.550781 954.902344 1295.039062 951.882812 C 1295.238281 951.527344 1295.621094 951.058594 1296.160156 950.488281 C 1296.351562 951.96875 1296.339844 957.429688 1307.730469 954.355469 C 1321.050781 950.941406 1328.390625 954.636719 1331.03125 948.699219 C 1333.628906 942.601562 1334.039062 940.269531 1334.449219 937.941406 C 1335.03125 935.5625 1335.5 934.6875 1336.570312 932.714844 C 1337.761719 930.527344 1337.171875 927.945312 1338.730469 924.539062 C 1340.121094 921.179688 1344.078125 917.800781 1347.859375 916.304688 C 1351.589844 914.644531 1355.398438 905.234375 1355.949219 903.96875 C 1356.550781 902.621094 1360.859375 898.957031 1363.328125 897.9375 L 1364.011719 897.710938 C 1364.148438 897.679688 1364.230469 897.652344 1364.289062 897.617188 C 1367.46875 896.515625 1371.558594 894.726562 1372.761719 894.371094 C 1374.28125 893.917969 1381.789062 890.761719 1383.671875 889.652344 C 1385.589844 888.710938 1392.761719 887.496094 1392.761719 887.496094 C 1394.789062 886.894531 1401.78125 886.28125 1402.820312 886.703125 C 1404.03125 887.078125 1409.820312 887.378906 1411.429688 887.816406 C 1413.25 888.378906 1414.339844 890.8125 1414.339844 890.8125 C 1417.941406 894.886719 1424.089844 894.527344 1426.828125 893.890625 C 1429.539062 893.085938 1433.460938 890.816406 1433.710938 889.824219 C 1433.910156 888.65625 1433.730469 887.425781 1433.730469 887.425781 C 1435.449219 887.648438 1436.839844 886.132812 1439.019531 884.195312 C 1441.101562 881.925781 1440.851562 877.398438 1439.300781 872.167969 C 1437.738281 866.933594 1432.480469 865.925781 1431.109375 865.050781 C 1429.578125 864.214844 1421.980469 859.679688 1421.980469 859.679688 C 1412.460938 854.246094 1395.71875 846.183594 1389.449219 843.632812 C 1384.488281 841.523438 1378.289062 838.9375 1369.101562 835.597656 C 1370.648438 834.742188 1371.871094 833.980469 1371.871094 833.980469 C 1372.941406 833.554688 1374.058594 833.179688 1375.210938 832.851562 C 1382.699219 832.34375 1389.980469 832.910156 1393.691406 833.183594 C 1398.75 833.515625 1422.769531 837.019531 1427.171875 838.839844 C 1431.789062 840.765625 1442.660156 843.964844 1445.898438 843.730469 C 1449.308594 843.453125 1449.191406 838.710938 1448.820312 838.089844 C 1448.28125 837.511719 1448.398438 835.453125 1449.890625 834.273438 C 1451.199219 833.152344 1451.230469 830.75 1450.710938 829.621094 C 1450.238281 828.660156 1451.980469 828.320312 1452.75 826.621094 C 1453.25 825.351562 1451.078125 824.789062 1448.511719 824.609375 C 1449.300781 823.488281 1449.140625 821.628906 1448.820312 820.671875 L 1448.941406 820.589844 C 1451.148438 819.378906 1451.898438 816.949219 1451.378906 815.820312 C 1450.691406 814.738281 1449.609375 813.589844 1450.421875 812.609375 C 1451.058594 811.679688 1451.660156 808.75 1451.039062 807.28125 C 1450.199219 805.691406 1451.851562 804.46875 1453.039062 802.269531 C 1453.859375 800.308594 1452.890625 797.679688 1448.949219 803.011719 C 1449.648438 801.628906 1450.75 799.140625 1450.109375 798 C 1449.320312 796.578125 1450.949219 794.628906 1451.570312 792.421875 C 1452.320312 789.988281 1448.519531 787.078125 1444.441406 797.480469 C 1440.328125 807.71875 1423.898438 815.550781 1423.898438 815.550781 C 1417.910156 820.089844 1404.671875 824.398438 1396.390625 823.738281 C 1388.320312 823.199219 1374.230469 826.480469 1374.230469 826.480469 C 1373.699219 826.671875 1373.078125 826.859375 1372.429688 827.019531 C 1370.109375 827.230469 1368.621094 827.410156 1368.621094 827.410156 C 1368.191406 827.488281 1367.761719 827.539062 1367.328125 827.550781 C 1366.640625 827.429688 1366.25 827.140625 1366.359375 826.609375 C 1367.609375 822.75 1380.558594 816.871094 1383.941406 814.03125 C 1387.078125 811.621094 1405.339844 800.121094 1411.621094 794.019531 C 1414.609375 791.109375 1421.421875 783.75 1423.101562 781.96875 C 1424.71875 780.011719 1430.988281 775.761719 1433.179688 771.980469 C 1435.359375 768.210938 1436.519531 763.449219 1435.679688 761.859375 C 1434.890625 760.441406 1434.429688 762.601562 1434.199219 764.320312 C 1433.980469 766.039062 1432.78125 768.789062 1429.859375 769.480469 C 1426.890625 770 1431.359375 760.941406 1432.53125 759.308594 C 1433.308594 757.601562 1434.71875 751.851562 1434.058594 749.660156 C 1433.578125 747.421875 1432.71875 746.390625 1432.800781 749.121094 C 1432.78125 750.148438 1432.359375 751.699219 1431.71875 753.410156 L 1431.660156 753.320312 C 1430.699219 751.949219 1430.460938 754.21875 1430.238281 755.949219 C 1430.058594 757.839844 1428.859375 760.578125 1425.660156 761.539062 C 1422.449219 762.488281 1427.109375 752.828125 1428.011719 750.910156 C 1428.949219 749.160156 1430.101562 743.121094 1429.441406 740.921875 C 1428.738281 738.570312 1427.761719 737.75 1427.890625 740.648438 C 1428.019531 743.558594 1424.550781 751.019531 1422.648438 754.53125 C 1422.519531 754.769531 1422.378906 754.988281 1422.238281 755.191406 C 1422.78125 751.929688 1423.601562 749.101562 1423.601562 749.101562 C 1426.789062 740.058594 1424.980469 735.828125 1424.410156 734.519531 C 1423.839844 733.21875 1421.519531 729.140625 1422.988281 735.308594 C 1424.578125 741.269531 1421.140625 747.628906 1420.71875 748.671875 C 1420.359375 749.550781 1419.25 750.921875 1418.191406 756.980469 C 1417.960938 756.929688 1417.828125 756.878906 1417.828125 756.878906 C 1414.398438 754.601562 1418 741.398438 1418 741.398438 C 1421.039062 731.851562 1418.839844 727.539062 1418.050781 726.121094 C 1417.53125 724.988281 1414.699219 721.058594 1416.679688 727.089844 C 1418.710938 733.28125 1415.03125 740.070312 1414.78125 741.070312 C 1414.359375 742.109375 1412.898438 744.019531 1411.851562 754.070312 C 1410.878906 765.019531 1403.371094 776.808594 1402.019531 779.050781 C 1400.609375 781.121094 1379.46875 799 1373.269531 802.871094 C 1368.261719 805.828125 1363.410156 812.96875 1355.128906 817.28125 C 1354.910156 817.390625 1354.691406 817.488281 1354.46875 817.578125 C 1350.339844 815.980469 1347.238281 813.011719 1347.238281 813.011719 C 1335.308594 804.429688 1333.53125 802.761719 1320.210938 790.730469 C 1305.691406 777.78125 1302.410156 761.851562 1302.410156 761.851562 C 1296.75 744.050781 1313.890625 727.550781 1317.539062 724.988281 C 1321.238281 722.609375 1337.078125 717.148438 1342.109375 714.921875 C 1347.199219 712.851562 1368.011719 708.679688 1370.761719 708.039062 C 1373.511719 707.410156 1378.738281 707.691406 1381.628906 706.269531 C 1384.679688 704.808594 1385.398438 703.5 1385.519531 701.441406 C 1385.761719 699.160156 1385.019531 699.75 1384.371094 700.679688 C 1383.558594 701.660156 1382.699219 702.46875 1382.671875 701.738281 C 1382.46875 701.070312 1380.199219 702.101562 1378.75 702.171875 C 1377.128906 702.28125 1378.011719 700.921875 1376.339844 700.871094 C 1374.789062 700.589844 1373.890625 702.511719 1369.929688 702.78125 C 1368.929688 702.78125 1368.179688 702.558594 1367.640625 702.179688 C 1368.578125 701.921875 1369.460938 701.621094 1370.199219 701.21875 C 1373.371094 699.539062 1374.199219 698.011719 1374.28125 695.78125 C 1374.300781 693.390625 1373.441406 694.199219 1372.789062 695.121094 C 1371.980469 696.101562 1371.171875 697.070312 1370.96875 696.398438 C 1370.78125 695.769531 1368.671875 696.839844 1366.96875 697.25 L 1366.980469 697.21875 C 1368 695.070312 1370.171875 690.019531 1370.238281 687.789062 C 1370.378906 685.179688 1366.941406 691.53125 1365.78125 693.171875 C 1364.730469 694.859375 1360.25 696.921875 1354.710938 698.210938 C 1352.820312 697.328125 1352.898438 694.851562 1353.628906 693.109375 C 1354.648438 690.96875 1356.878906 685.519531 1356.910156 683.121094 C 1356.878906 680.558594 1353.371094 687.300781 1352.25 689.109375 C 1351.621094 690.019531 1349.988281 691.191406 1347.710938 692.339844 C 1347.660156 691.351562 1347.699219 690.460938 1347.710938 689.898438 C 1348.011719 687.800781 1353.75 682.410156 1355.75 677.398438 C 1357.578125 672.449219 1357.78125 668.160156 1356.519531 665.78125 C 1355.261719 663.398438 1356.128906 667.550781 1355.230469 671.308594 C 1354.320312 675.070312 1350.46875 678.789062 1347.230469 679.019531 C 1343.988281 679.25 1342.898438 668.179688 1342.691406 664.390625 C 1342.480469 660.589844 1344.511719 654.46875 1346.101562 651.789062 C 1347.820312 648.890625 1346.609375 649.800781 1344.910156 650.859375 C 1343.199219 651.921875 1339.488281 657.980469 1339.230469 662.660156 C 1339.078125 664.859375 1339.089844 666.878906 1339.230469 669.019531 C 1337.910156 672.53125 1334.511719 675.949219 1331.371094 676.390625 C 1327.851562 676.890625 1326.101562 665.460938 1325.71875 661.71875 C 1325.289062 657.800781 1327.230469 651.351562 1328.878906 648.28125 C 1330.421875 645.429688 1329.390625 646.289062 1327.398438 647.621094 C 1325.578125 648.890625 1321.800781 655.351562 1321.761719 660.140625 C 1321.738281 662.441406 1321.851562 664.480469 1322.078125 666.621094 C 1320.078125 663.679688 1317.390625 660.199219 1315.738281 658.441406 C 1313.53125 655.980469 1311.078125 648.980469 1310.609375 646.179688 C 1310.199219 643.550781 1309.269531 644.738281 1309.109375 647.921875 C 1308.949219 651.089844 1312.089844 659.160156 1313.101562 660.699219 C 1314.058594 662.070312 1319.53125 670.550781 1319.53125 670.550781 C 1321.019531 672.820312 1322.371094 675.898438 1323.46875 679.140625 C 1323.238281 683.949219 1321.769531 688.949219 1319.621094 690 C 1316.570312 691.460938 1313.949219 687.640625 1311.988281 681.058594 C 1310.03125 674.480469 1305.269531 668.359375 1305.269531 668.359375 C 1303.03125 665.171875 1298.230469 660.160156 1295.910156 657.910156 C 1293.421875 655.71875 1290.410156 648.699219 1289.78125 645.949219 C 1289.308594 643.148438 1288.261719 644.570312 1288.148438 647.910156 C 1288.171875 651.03125 1292.03125 659.070312 1293.210938 660.558594 C 1294.328125 661.871094 1300.480469 670.148438 1300.480469 670.148438 C 1305.679688 676.511719 1309.699219 690.019531 1309.269531 694.738281 C 1309.199219 696.25 1308.820312 697.71875 1308.21875 699.078125 C 1307.140625 697.890625 1305.269531 696.261719 1301.808594 694.390625 C 1295.238281 690.828125 1287.78125 681.828125 1287.78125 681.828125 C 1285.261719 678.910156 1284.238281 672.421875 1284.238281 672.421875 C 1284.460938 670.699219 1282.179688 663.648438 1282.28125 674.46875 C 1282.359375 684 1291.570312 692.101562 1292.75 693.589844 C 1293.878906 694.910156 1300.230469 700.191406 1303.238281 703.519531 C 1303.5 703.800781 1303.738281 704.101562 1303.949219 704.421875 C 1303.269531 704.910156 1302.558594 705.300781 1301.839844 705.589844 C 1298.269531 707.199219 1291.621094 702.75 1290.761719 701.71875 C 1290.121094 700.808594 1288.191406 698.628906 1282.300781 696.148438 C 1274.988281 693.179688 1266.519531 684.488281 1266.519531 684.488281 C 1263.660156 681.671875 1262.078125 675.148438 1262.078125 675.148438 C 1262.46875 673.378906 1259.46875 666.371094 1260.21875 677.550781 C 1260.691406 687.148438 1271.089844 694.898438 1272.378906 696.160156 C 1273.679688 697.429688 1280.820312 702.289062 1284.339844 705.46875 C 1287.691406 708.699219 1287.949219 714.5 1287.949219 714.5 C 1288.261719 718.628906 1278.460938 737.550781 1278.109375 741.328125 C 1277.808594 745.269531 1273.28125 751.039062 1277.339844 768.390625 C 1280.609375 783.039062 1295.03125 793.820312 1296.46875 795.589844 C 1298.089844 797.320312 1296.289062 798.039062 1293.839844 797.851562 C 1291.21875 797.710938 1289.351562 796.980469 1290.359375 798.519531 C 1291.148438 799.941406 1298.71875 801.910156 1300.441406 802.128906 C 1302.328125 802.308594 1301.359375 801.488281 1309.019531 807.480469 C 1316.640625 813.300781 1330.691406 821.609375 1333.148438 823.089844 C 1335.609375 824.558594 1344.628906 828.308594 1346.269531 829.480469 C 1347.898438 830.640625 1348.648438 833.175781 1348.179688 834.050781 L 1348.140625 834.121094 C 1346.988281 834.609375 1345.878906 835.164062 1344.839844 835.746094 C 1344.558594 835.074219 1344.199219 834.242188 1343.691406 833.183594 C 1341.320312 828.929688 1336.699219 826.988281 1332.859375 825.199219 C 1329.191406 823.351562 1322.960938 820.96875 1320.570312 820.949219 C 1318.511719 820.828125 1320.300781 829.308594 1320.769531 832.105469 C 1321.398438 834.859375 1325.621094 840.398438 1326.699219 841.550781 C 1327.269531 842.050781 1328.671875 842.765625 1330.199219 843.394531 C 1325.710938 844.757812 1320.128906 846.890625 1318.710938 847.425781 C 1316.230469 848.34375 1301.960938 851.675781 1299.648438 852.546875 C 1297.550781 853.535156 1275.890625 856.683594 1273.078125 857.148438 C 1270.640625 857.714844 1255.351562 858.914062 1251.949219 859.175781 L 1251.609375 859.128906 C 1248.511719 858.585938 1234.488281 857.796875 1221.761719 860.113281 C 1209.039062 862.433594 1189.640625 878.136719 1186.140625 881.203125 C 1182.589844 884.09375 1170.679688 892.238281 1158.449219 896.246094 C 1146.28125 900.421875 1123.488281 905.367188 1109.53125 907.871094 C 1095.460938 910.59375 1082.789062 914.363281 1072.328125 917.480469 C 1060.511719 921 1053.089844 926.332031 1048.339844 930.136719 C 1043.5 933.933594 1037.070312 940.085938 1034.480469 943.648438 C 1033.140625 944.417969 1026.320312 947.023438 1024.621094 951.722656 C 1022.839844 956.84375 1021.910156 958.039062 1020.890625 960.179688 C 1019.660156 962.199219 1018.800781 966.132812 1019.410156 969.996094 C 1019.960938 973.695312 1020.980469 976.515625 1021.109375 977.578125 C 1021.289062 978.808594 1021.210938 979.753906 1021.210938 979.753906 L 1021.679688 978.878906 C 1021.679688 978.878906 1022.691406 980.417969 1021.960938 982.285156 L 1023.28125 981.15625 C 1023.28125 981.15625 1024.808594 983.828125 1024.378906 984.875 C 1023.910156 985.75 1025.589844 983.964844 1026.640625 982.550781 C 1027.628906 980.964844 1029.148438 980.511719 1029.148438 980.511719 C 1029.148438 980.511719 1029.261719 980.648438 1029.421875 980.894531 C 1029.839844 983.300781 1033.300781 1001.761719 1042.101562 1012.871094 C 1044.871094 1016.640625 1038.589844 1043.691406 1035.929688 1048.339844 C 1033.488281 1053.109375 1023.878906 1060.929688 1013.769531 1068.359375 C 1013.769531 1068.359375 1008.011719 1072.460938 1009.109375 1076.179688 C 1010.21875 1079.890625 1011.128906 1087.890625 1010.300781 1093.101562 C 1009.289062 1098.359375 1008.421875 1126.929688 1008.421875 1126.929688 C 1008.421875 1126.929688 1005.570312 1140.910156 1008.691406 1142.929688 "/>
    <path fill-rule="evenodd" fill="rgb(1.713562%, 2.252197%, 2.304077%)" fill-opacity="1" d="M 2487.828125 1752.078125 C 2264.300781 1713.941406 2105.898438 1653.738281 1989.351562 1633.628906 C 1940.421875 1625.191406 1894.96875 1615.390625 1860.660156 1574.710938 C 1846.820312 1558.300781 1820.539062 1566.460938 1789.089844 1547.570312 C 1774.449219 1538.769531 1760.421875 1522.171875 1761.03125 1508.058594 C 1763.820312 1443.148438 1716.949219 1447.449219 1712.890625 1399.488281 C 1712.699219 1399.378906 1702.011719 1349.769531 1676.558594 1337.878906 C 1627.820312 1322.339844 1630.46875 1319.648438 1623.398438 1294.640625 C 1605.5 1280.289062 1587.609375 1265.941406 1569.71875 1251.601562 C 1551.378906 1220.460938 1568.691406 1222.039062 1488.949219 1215.941406 C 1475.539062 1188.761719 1480 1192.699219 1417.371094 1180.269531 C 1427.171875 1143.441406 1398.640625 1131.960938 1355.011719 1101.78125 C 1308.179688 1072.769531 1306.671875 1070.101562 1251.738281 1085.589844 C 1172.640625 1091.160156 1145.960938 1097.410156 1077.421875 1136.820312 C 1066.300781 1143.21875 1009.070312 1157.019531 961.890625 1187.441406 C 937.6875 1203.050781 948.777344 1219.859375 916.210938 1238.558594 C 826.890625 1353.148438 851.011719 1430.078125 746.34375 1500.941406 C 657.007812 1561.410156 617.992188 1666.078125 585.925781 1734.21875 L 2487.828125 1752.078125 "/>
    <g clip-path="url(#clip-8)">
        <path fill-rule="evenodd" fill="rgb(1.713562%, 2.252197%, 2.304077%)" fill-opacity="1" d="M 2976.378906 1695.859375 C 2938.410156 1653.570312 2854.398438 1677.558594 2821.878906 1640.691406 C 2661.339844 1458.660156 2638.628906 1679.398438 2403.949219 1637.320312 C 2311.109375 1620.671875 2155.039062 1618.851562 2016.078125 1631.648438 C 1789.601562 1652.539062 1619.949219 1716.738281 1333.871094 1719.371094 C 902.265625 1723.359375 439.828125 1813.789062 0 1831.609375 L 2976.378906 1831.609375 L 2976.378906 1695.859375 "/>
    </g>
    <g clip-path="url(#clip-9)">
        <path fill-rule="evenodd" fill="rgb(1.713562%, 2.252197%, 2.304077%)" fill-opacity="1" d="M 0 1524.429688 C 416.972656 1096.578125 689.875 1174.390625 1080.859375 1420.589844 C 1240.328125 1521 1303.011719 1711.789062 1606.789062 1755.089844 C 2034.101562 1816 2536.550781 1813.789062 2976.371094 1831.609375 L 0 1831.609375 L 0 1524.429688 "/>
    </g>
</svg>