<svg xmlns="http://www.w3.org/2000/svg" xmlns:xlink="http://www.w3.org/1999/xlink" width="2976.38" height="1831.61" viewBox="0 0 2976.38 1831.61"><defs><clipPath id="clip-4"><path clip-rule="evenodd" d="M 550.871094 1065.78125 C 552.234375 1063.101562 553.679688 1060.179688 555.21875 1057.039062 C 558.660156 1065.578125 562.84375 1070.378906 575.675781 1076.339844 C 558.859375 1081.5 557.765625 1079.019531 550.871094 1065.78125 Z M 515.617188 1102.398438 L 513.410156 1102.019531 C 513.964844 1101.828125 514.488281 1101.660156 514.996094 1101.511719 C 515.195312 1101.808594 515.398438 1102.109375 515.617188 1102.398438 Z M 549.957031 1099.820312 C 543.617188 1104.171875 537.292969 1105.058594 529.5 1104.429688 C 526.578125 1103.359375 523.671875 1102.050781 520.800781 1100.421875 C 527.375 1099.761719 530.804688 1100.660156 539.394531 1086.828125 C 541.964844 1091.429688 545.410156 1095.730469 549.957031 1099.820312 Z M 560.886719 1088.949219 C 560.035156 1090.050781 559.191406 1091.078125 558.363281 1092.039062 C 552.300781 1090.390625 549.164062 1087.609375 543.433594 1079.929688 C 544.867188 1077.339844 546.4375 1074.421875 548.148438 1071.109375 C 549.511719 1078.160156 551.929688 1082.699219 560.886719 1088.949219 Z M 565.125 1093.378906 L 565.480469 1091.941406 C 566.496094 1092.578125 567.578125 1093.230469 568.722656 1093.898438 C 567.429688 1093.71875 566.234375 1093.539062 565.125 1093.378906 Z M 559.367188 1108.589844 L 560.011719 1107.359375 C 560.636719 1107.761719 561.277344 1108.148438 561.933594 1108.550781 Z M 556.128906 1124.148438 C 545.988281 1125.511719 536.132812 1127.921875 526.671875 1131.648438 L 522.832031 1131.21875 C 529.496094 1128.46875 538.503906 1127.808594 546.832031 1122.519531 C 549.710938 1123.179688 552.921875 1123.699219 556.128906 1124.148438 Z M 887.84375 1139.949219 C 888.878906 1140.609375 889.976562 1141.449219 891.1875 1142.589844 C 888.613281 1142.191406 885.863281 1141.691406 882.878906 1141.171875 C 884.765625 1140.519531 886.394531 1140.171875 887.84375 1139.949219 Z M 894.40625 1060.039062 C 890.550781 1062.320312 886.945312 1063.96875 883.664062 1065.039062 C 882.851562 1064.328125 882.113281 1063.570312 881.445312 1062.761719 C 881.980469 1063.648438 882.460938 1064.488281 882.898438 1065.28125 C 873.625 1068.058594 867.097656 1066.011719 865.007812 1060.128906 C 881.984375 1058.429688 885.980469 1061.101562 890.519531 1045.050781 C 891.617188 1052.601562 892.710938 1057.109375 894.40625 1060.039062 Z M 891.949219 1080.070312 C 885.601562 1083.851562 881.222656 1081.539062 868.234375 1079.371094 C 872.90625 1074.859375 878.734375 1076.570312 886.09375 1071.628906 C 888.027344 1075.878906 888.683594 1077.878906 891.949219 1080.070312 Z M 903.976562 1069.878906 L 904.378906 1068.929688 L 903.277344 1070.070312 C 898.898438 1071.160156 893.996094 1070.558594 889.691406 1068.75 C 891.578125 1066.980469 893.554688 1064.71875 895.632812 1061.769531 C 898.234375 1064.789062 902.105469 1065.660156 908.613281 1067.671875 C 907.195312 1068.679688 905.632812 1069.410156 903.976562 1069.878906 Z M 891.101562 1089.300781 C 893.035156 1087.691406 895.023438 1085.589844 897.015625 1082.789062 C 898.691406 1083.558594 900.695312 1084.441406 903.140625 1085.460938 C 899.328125 1088.960938 895.890625 1090.5 891.101562 1089.300781 Z M 887.238281 1099.039062 C 883.773438 1098.96875 878.960938 1098.769531 871.566406 1098.898438 C 871.917969 1093.851562 876.742188 1095.628906 883.347656 1093.570312 C 884.476562 1095.730469 885.632812 1097.460938 887.238281 1099.039062 Z M 893 1122.53125 C 887.769531 1124.261719 883.167969 1122.871094 876.496094 1119.261719 C 879.421875 1118.148438 881.992188 1117.359375 884.328125 1116.648438 C 886.28125 1119.179688 888.890625 1121.21875 893 1122.53125 Z M 939.78125 1110.808594 C 941.851562 1112.03125 943.753906 1112.78125 945.871094 1114.109375 C 943.367188 1114.039062 940.183594 1113.988281 935.96875 1114.058594 C 936.136719 1111.648438 937.558594 1111.140625 939.78125 1110.808594 Z M 946.679688 1092.5 C 949.074219 1094.058594 952.140625 1095.25 956.253906 1095.960938 C 953.621094 1098.25 951.601562 1099.46875 949.546875 1099.988281 C 945.117188 1100.511719 940.390625 1099.480469 934.9375 1096.808594 C 938.183594 1094.871094 942.046875 1095.179688 946.679688 1092.5 Z M 938.441406 1081.769531 C 939.382812 1083.78125 940.355469 1085.679688 941.539062 1087.410156 C 935.933594 1088.191406 932.027344 1086.351562 930.609375 1082.378906 C 933.703125 1082.058594 936.277344 1081.929688 938.441406 1081.769531 Z M 950.632812 1072.730469 C 952.964844 1074.191406 955.875 1075.710938 959.648438 1077.519531 C 952.914062 1079.910156 949.566406 1080.570312 946.523438 1079.648438 C 948.1875 1078.371094 949.429688 1076.28125 950.632812 1072.730469 Z M 941.039062 1062.480469 C 942.714844 1065.738281 944.421875 1068.101562 947.261719 1070.378906 C 944.652344 1073.320312 942.28125 1072.640625 933.625 1071.21875 L 932.847656 1070.691406 L 933.128906 1071.140625 C 931.984375 1070.949219 930.734375 1070.761719 929.363281 1070.550781 C 934.296875 1065.019531 936.289062 1072.28125 941.039062 1062.480469 Z M 935.871094 1051.058594 C 936.867188 1053.261719 937.707031 1055.199219 938.46875 1056.941406 C 935.097656 1058.96875 933.765625 1056.078125 927.425781 1052.410156 C 930.570312 1051.421875 933.304688 1051.890625 935.871094 1051.058594 Z M 944.449219 1038.859375 C 947.792969 1046.238281 947.789062 1047.261719 963.164062 1053.699219 C 957.511719 1058.898438 952.585938 1060.21875 943.84375 1055.558594 C 944.425781 1053.921875 945.039062 1052.058594 945.699219 1049.949219 C 944.078125 1051.761719 942.75 1053.179688 941.621094 1054.300781 C 940.019531 1053.339844 938.289062 1052.191406 936.421875 1050.859375 C 939.183594 1049.761719 941.757812 1046.910156 944.449219 1038.859375 Z M 939.113281 1028.570312 C 941.402344 1032.421875 942.859375 1035.378906 943.941406 1037.738281 C 936.621094 1046.53125 931.085938 1043.738281 924.027344 1038.050781 C 923.265625 1031 928.28125 1049.648438 939.113281 1028.570312 Z M 244.246094 1066.5 C 239.011719 1067.828125 234.191406 1066.261719 227.402344 1062.589844 C 232.589844 1060.628906 236.753906 1059.601562 240.4375 1058.339844 C 241.761719 1061.28125 243.023438 1064 244.246094 1066.5 Z M 266.539062 1050.328125 C 261.269531 1055.371094 257.027344 1059.140625 253.34375 1061.808594 C 251.351562 1059.949219 249.089844 1057.898438 246.46875 1055.671875 C 251.28125 1052.859375 255.699219 1048.070312 261.355469 1037.628906 C 262.878906 1042.550781 264.625 1046.75 266.539062 1050.328125 Z M 441.40625 1096.109375 C 441.941406 1096.710938 442.503906 1097.328125 443.078125 1098.019531 C 440.183594 1099.96875 437.25 1100.890625 434.332031 1101.011719 C 436.847656 1099.398438 439.203125 1097.769531 441.40625 1096.109375 Z M 421.632812 1082.148438 C 422.484375 1082.921875 423.296875 1083.570312 424.074219 1084.148438 C 421.667969 1084.519531 418.992188 1084.878906 415.988281 1085.269531 C 418.003906 1084.191406 419.871094 1083.148438 421.632812 1082.148438 Z M 405.695312 1060.578125 L 405.863281 1060.871094 L 405.351562 1060.730469 Z M 442.101562 1066.289062 C 444.492188 1067 447.242188 1067.550781 450.445312 1067.898438 C 445.753906 1070.941406 441.074219 1072.53125 436.035156 1072.558594 C 438.582031 1070.429688 440.546875 1068.378906 442.101562 1066.289062 Z M 424.898438 1049.871094 C 426.957031 1054.261719 429.117188 1058.199219 432.691406 1061.320312 C 427.980469 1065.109375 421.996094 1065.070312 409.597656 1061.871094 C 408.742188 1061.28125 407.875 1060.660156 406.992188 1060.019531 C 414.945312 1056.550781 420.605469 1053.339844 424.898438 1049.871094 Z M 449.105469 1043.601562 L 451.140625 1044.578125 C 450.332031 1044.871094 449.566406 1045.128906 448.835938 1045.378906 Z M 435.773438 1035.699219 C 438.226562 1037.691406 441.367188 1039.609375 445.664062 1041.851562 C 444.5625 1043.75 443.550781 1045.519531 442.617188 1047.171875 C 437.117188 1048.371094 434.214844 1047.511719 430.097656 1044.78125 C 432.359375 1042.070312 434.148438 1039.101562 435.773438 1035.699219 Z M 424.71875 1018.609375 C 426.996094 1023.820312 428.671875 1027.539062 430.925781 1030.648438 C 427.8125 1033.671875 424.519531 1036.320312 421.117188 1038.308594 C 420.140625 1037.609375 419.09375 1036.878906 417.960938 1036.109375 C 418.59375 1037.101562 419.171875 1038.101562 419.714844 1039.078125 C 412.789062 1042.699219 405.464844 1043.371094 398.351562 1038.578125 C 409.757812 1025.03125 414.648438 1028.96875 424.71875 1018.609375 Z M 435.984375 1003.820312 C 438.617188 1007.460938 442.859375 1009.789062 455.496094 1015.089844 C 450.996094 1019.21875 446.882812 1021.378906 441.621094 1020.859375 C 442.265625 1019.070312 442.945312 1017.199219 443.671875 1015.21875 C 442.449219 1017 441.140625 1018.789062 439.773438 1020.570312 C 436.382812 1019.871094 432.492188 1018.128906 427.78125 1015.191406 C 430.183594 1012.308594 432.878906 1008.621094 435.984375 1003.820312 Z M 158.097656 1075.160156 C 160.425781 1076.699219 162.988281 1078.890625 166.140625 1082.628906 C 162.617188 1085 159.039062 1085.808594 155.496094 1085.46875 C 156.609375 1082.148438 157.460938 1078.71875 158.097656 1075.160156 Z M 139.949219 1061.378906 C 146.917969 1070.148438 151.070312 1071.171875 155.855469 1073.808594 C 153.050781 1077.410156 150.597656 1080.558594 148.410156 1083.351562 C 144.691406 1081.519531 141.089844 1078.671875 137.746094 1075.339844 C 138.460938 1071.421875 139.019531 1066.890625 139.949219 1061.378906 Z M 131.34375 1048.761719 C 134.382812 1053.738281 136.992188 1057.558594 139.300781 1060.550781 C 136.988281 1064.328125 135.074219 1067.671875 133.402344 1070.609375 C 131.203125 1068 129.160156 1065.28125 127.320312 1062.621094 C 128.902344 1066.921875 130.210938 1070.660156 131.476562 1073.96875 C 130.421875 1075.789062 129.460938 1077.421875 128.523438 1078.859375 C 123.46875 1077.378906 118.671875 1076.390625 114.085938 1075.820312 C 123.683594 1069.070312 126.691406 1061.609375 131.34375 1048.761719 Z M 647.476562 1021.328125 C 640.550781 1027.089844 640.875 1024.820312 622.898438 1025.179688 C 623.359375 1018.070312 632.65625 1025.78125 642.621094 1012.589844 C 644.226562 1015.988281 645.855469 1018.878906 647.476562 1021.328125 Z M 654.300781 1019.988281 C 655.300781 1017.839844 656.355469 1015.429688 657.480469 1012.75 C 655.027344 1014.820312 653.03125 1016.539062 651.359375 1018 C 649.191406 1016.328125 646.738281 1014.058594 643.730469 1011.03125 C 645.710938 1008.109375 647.707031 1004.300781 649.652344 999.34375 C 663.015625 1018.691406 672.703125 1012.121094 679.90625 1019.058594 C 665.914062 1021.398438 661.085938 1023.890625 654.300781 1019.988281 Z M 642.113281 1046.148438 C 637.164062 1048.550781 633.140625 1047.371094 627.003906 1043.75 C 631.515625 1041.871094 635.011719 1041.011719 638.101562 1039.730469 C 639.503906 1042.199219 640.832031 1044.328125 642.113281 1046.148438 Z M 658.128906 1032.171875 C 655.28125 1035.171875 652.820312 1037.691406 650.625 1039.738281 C 648.726562 1039.078125 646.878906 1037.910156 644.210938 1035.890625 C 646.4375 1033.828125 648.660156 1030.839844 651.1875 1026.210938 C 653.558594 1028.921875 655.894531 1030.808594 658.128906 1032.171875 Z M 657.136719 1040.558594 C 658.164062 1038.410156 659.277344 1036.03125 660.476562 1033.410156 C 669.148438 1037.441406 675.824219 1034.140625 676.265625 1040.371094 C 666.648438 1040.199219 661.035156 1040.550781 657.136719 1040.558594 Z M 634.265625 1064.109375 L 632.316406 1063.730469 C 632.828125 1063.53125 633.320312 1063.371094 633.785156 1063.230469 Z M 662.03125 1059.660156 C 658.449219 1063.148438 654.996094 1064.878906 651.199219 1065.519531 C 648.96875 1064.550781 646.59375 1063.078125 643.914062 1061.039062 C 645.613281 1060.03125 647.425781 1058.128906 649.804688 1054.351562 C 653.511719 1057.039062 657.320312 1058.230469 662.03125 1059.660156 Z M 668.527344 1063.828125 C 668.742188 1063.21875 668.949219 1062.601562 669.148438 1061.960938 L 670.890625 1062.589844 C 670.070312 1063.039062 669.289062 1063.449219 668.527344 1063.828125 Z M 650.703125 1088.609375 C 647.613281 1088.378906 643.890625 1087.960938 639.289062 1087.398438 C 642.371094 1086.019531 646.121094 1085.28125 650.007812 1083.890625 C 653.757812 1085.308594 657.40625 1084.238281 663.925781 1086.511719 C 659 1087.378906 654.648438 1088.160156 650.703125 1088.609375 Z M 783.433594 1154.769531 C 783.875 1155.839844 784.390625 1156.871094 785.019531 1157.878906 C 782.191406 1157.488281 779.355469 1157.109375 776.503906 1156.730469 C 779.074219 1156.171875 781.425781 1155.53125 783.433594 1154.769531 Z M 799.820312 1146.71875 C 803.378906 1149.53125 808.128906 1152.140625 814.867188 1154.988281 C 799.488281 1159.300781 795.054688 1158.761719 790.164062 1151.839844 C 793.597656 1150.21875 796.835938 1148.488281 799.820312 1146.71875 Z M 816.351562 1133.410156 C 817.574219 1134.519531 818.898438 1135.878906 820.359375 1137.621094 C 816.746094 1140.050781 813.066406 1140.679688 809.449219 1140.070312 C 812.195312 1137.851562 814.523438 1135.609375 816.351562 1133.410156 Z M 789.109375 1107.621094 C 800.546875 1126.128906 805.3125 1126.351562 811.3125 1129.761719 C 807.265625 1131.941406 803.164062 1133.691406 799.042969 1135.078125 C 793.636719 1130.949219 788.710938 1124.960938 784.785156 1119.28125 C 787.574219 1126.871094 789.425781 1132.519531 791.890625 1137.140625 C 788.761719 1137.898438 785.617188 1138.480469 782.484375 1138.921875 C 781.496094 1137.238281 780.414062 1135.441406 779.21875 1133.511719 C 779.589844 1135.558594 779.894531 1137.460938 780.167969 1139.21875 C 772.046875 1140.199219 763.980469 1140.289062 756.15625 1140.148438 C 773.742188 1130.441406 783.714844 1119.910156 789.109375 1107.621094 Z M 1247.230469 1022.140625 C 1243.601562 1023.769531 1240.269531 1024.710938 1237.109375 1024.988281 C 1235.679688 1023.609375 1234.179688 1022.121094 1232.558594 1020.53125 C 1233.328125 1022.121094 1234.078125 1023.640625 1234.800781 1025.089844 C 1230.378906 1025.019531 1226.269531 1023.609375 1222.148438 1020.941406 C 1232.75 1019.800781 1237.890625 1016.191406 1241.328125 1011.269531 C 1243.5 1015.738281 1245.421875 1019.300781 1247.230469 1022.140625 Z M 1262.238281 1012.851562 C 1259.410156 1014.960938 1256.75 1016.800781 1254.230469 1018.359375 C 1251.699219 1017.019531 1248.691406 1014.441406 1242.449219 1009.550781 C 1244.808594 1005.601562 1246.460938 1000.96875 1249.011719 996.171875 C 1253.441406 1005.628906 1258.050781 1010.378906 1262.238281 1012.851562 Z M 1258.730469 1019.640625 C 1259.96875 1017.699219 1261.289062 1015.539062 1262.699219 1013.109375 C 1270.550781 1017.480469 1276.761719 1014.070312 1277.148438 1019.578125 C 1266.851562 1019.378906 1262.058594 1019.921875 1258.730469 1019.640625 Z M 1246.898438 1047.308594 C 1241.078125 1050.789062 1234.851562 1051.789062 1228.808594 1047.789062 L 1228.730469 1047.679688 C 1234.148438 1041.25 1237.699219 1039.851562 1241.421875 1037.929688 C 1243.53125 1041.828125 1245.328125 1044.890625 1246.898438 1047.308594 Z M 1260.769531 1034.148438 C 1259.140625 1036.230469 1257.390625 1038.28125 1255.558594 1040.179688 C 1253.070312 1038.96875 1250.328125 1037.019531 1247.058594 1034.230469 C 1248.621094 1032.898438 1250.339844 1031.160156 1252.289062 1028.75 C 1255.050781 1031.558594 1257.71875 1033.019531 1260.769531 1034.148438 Z M 1259.761719 1041.558594 C 1260.601562 1039.488281 1261.429688 1037.21875 1262.328125 1034.699219 C 1265.28125 1035.671875 1268.601562 1036.53125 1272.671875 1038.078125 C 1267.5 1040.871094 1263.710938 1042.191406 1259.761719 1041.558594 Z M 1262.070312 1056.839844 C 1261.621094 1057.609375 1261.191406 1058.339844 1260.769531 1059.039062 C 1254.710938 1060.019531 1249.761719 1060.5 1245.230469 1059.589844 C 1248.148438 1057.789062 1250.449219 1055.96875 1252.339844 1054 C 1255.628906 1056.800781 1258.128906 1056.289062 1262.070312 1056.839844 Z M 1369.359375 1079.101562 C 1370.378906 1077.230469 1371.261719 1075.320312 1372 1073.351562 C 1377 1079.441406 1381.210938 1079.070312 1389.039062 1082.050781 C 1381.359375 1086.199219 1377.621094 1086.148438 1369.359375 1079.101562 Z M 1383.28125 1096.960938 C 1382.269531 1097.378906 1381.261719 1097.761719 1380.25 1098.121094 C 1379.53125 1098.230469 1378.828125 1098.339844 1378.148438 1098.449219 C 1371.550781 1096.199219 1365.160156 1094.058594 1358.941406 1092.03125 C 1361.78125 1089.480469 1364.171875 1086.828125 1366.179688 1084.089844 C 1374.730469 1099.308594 1376.050781 1095 1383.28125 1096.960938 Z M 2976.378906 1643.359375 L 2976.378906 1163.269531 C 2937.351562 1180.730469 2900.398438 1229.730469 2872.371094 1207.21875 C 2825.140625 1169.308594 2815.550781 1224.480469 2778.5 1230.269531 C 2711.171875 1240.789062 2680.320312 1239.371094 2596.179688 1197.699219 C 2568.398438 1183.929688 2505.039062 1215.089844 2454.78125 1191.738281 C 2466.308594 1186.25 2472.46875 1173.019531 2471.949219 1173.621094 C 2465.738281 1180.761719 2451.238281 1184.789062 2442.179688 1184.46875 C 2440.988281 1183.640625 2439.800781 1182.769531 2438.628906 1181.851562 L 2438.199219 1181.519531 C 2453.820312 1179.609375 2455.738281 1174.988281 2463.761719 1154.949219 C 2444.328125 1170.820312 2453.058594 1173.53125 2428.539062 1170.53125 C 2436.230469 1167.058594 2449.609375 1169.171875 2453.269531 1139.039062 C 2442.949219 1156.949219 2437.199219 1155.660156 2423.359375 1152.980469 C 2432.550781 1149.480469 2431.660156 1158.820312 2446.679688 1125.109375 C 2431.449219 1141.558594 2428.671875 1143.628906 2419.421875 1138.171875 C 2429.769531 1133.859375 2432.980469 1136.800781 2442.019531 1115.179688 C 2427.859375 1127.128906 2434.058594 1124.039062 2416.378906 1124.390625 C 2416.808594 1117.78125 2427.558594 1128.480469 2436.640625 1104.128906 C 2426.421875 1115.839844 2426.371094 1113.390625 2414.320312 1111.191406 C 2418.660156 1106.609375 2424.601562 1111.53125 2432.949219 1096.410156 C 2422.289062 1104.289062 2414.261719 1104.101562 2412.328125 1098.179688 C 2424.910156 1096.800781 2425.941406 1099.671875 2429.859375 1079.859375 C 2422.761719 1092.199219 2425.550781 1090.679688 2411.390625 1088.390625 C 2416.140625 1082.570312 2417.28125 1093.921875 2423.738281 1071.351562 C 2415.808594 1081 2417.058594 1077.910156 2409.929688 1073.390625 C 2415.339844 1071.53125 2419.160156 1075.878906 2423.488281 1059.730469 C 2417.410156 1068.808594 2413.039062 1066.511719 2407.359375 1061.511719 C 2406.730469 1055.171875 2411.25 1073.910156 2420.96875 1048.410156 C 2415.171875 1055.070312 2412.941406 1055.308594 2407.570312 1051.25 C 2412.398438 1048.269531 2413.351562 1054.609375 2418.628906 1041.25 C 2413.320312 1046.960938 2413.390625 1046.179688 2406.949219 1041.878906 C 2412.519531 1042.871094 2413.648438 1041.75 2416.390625 1031.671875 C 2412.050781 1038.140625 2409.859375 1037.558594 2406.480469 1036.53125 C 2406.929688 1033.109375 2413.300781 1036.238281 2411.660156 1021.710938 C 2410.441406 1027.710938 2410.011719 1031.148438 2405.898438 1029.941406 C 2402.621094 1028.96875 2411.53125 1025.96875 2411.269531 1017.390625 C 2409.769531 1020.148438 2408.441406 1022.339844 2405.371094 1022.5 C 2403.878906 1022.578125 2403.738281 1014.28125 2403.488281 1012.398438 C 2402.28125 1021.738281 2401.550781 1021.730469 2397.820312 1017.320312 C 2398.289062 1020.808594 2399.820312 1021.691406 2400.75 1023.679688 C 2401.738281 1025.820312 2401.921875 1028.179688 2401.941406 1031.328125 C 2399.289062 1032.121094 2396.878906 1028.578125 2395.671875 1023.761719 C 2395.679688 1030.121094 2395.589844 1032.628906 2401.261719 1039.171875 C 2397.488281 1039.179688 2394.511719 1034.96875 2392.238281 1030.511719 C 2393.128906 1037.738281 2395.621094 1039.398438 2400.710938 1045.71875 C 2396.46875 1045.171875 2394.359375 1044.460938 2389.800781 1039.421875 C 2393.648438 1049.878906 2395.128906 1049.058594 2400.140625 1052.390625 C 2396.421875 1055.148438 2392.589844 1056.121094 2389.558594 1048.28125 C 2391.019531 1058.320312 2390.148438 1058.621094 2397.621094 1062.390625 C 2390.78125 1063.648438 2391.5 1063.730469 2387.089844 1057.230469 C 2389.839844 1067.609375 2389.519531 1067.28125 2397.648438 1071.480469 C 2395.839844 1078.640625 2388.539062 1083.429688 2381.53125 1063.140625 C 2383.859375 1083.160156 2385.429688 1082.539062 2395.710938 1086.019531 C 2389.578125 1090.769531 2379.789062 1088.121094 2375.191406 1081.949219 C 2382.378906 1095.148438 2377.53125 1094.289062 2391.578125 1100.730469 C 2386.660156 1105.679688 2382.550781 1105.921875 2372.761719 1098.101562 C 2377.871094 1110.410156 2377.210938 1112.160156 2389.179688 1118.460938 C 2379.429688 1122.238281 2380.140625 1120.179688 2370.96875 1113.371094 C 2376.148438 1122.28125 2375.378906 1130.898438 2388.808594 1132.46875 C 2381.71875 1137.511719 2374.691406 1135.910156 2363.371094 1126.441406 C 2375.371094 1149.230469 2376.738281 1140.160156 2384.761719 1150.578125 C 2376.761719 1156.480469 2368.230469 1146.78125 2362.789062 1138.179688 C 2367.269531 1151.511719 2367.820312 1156.03125 2381.371094 1162.328125 C 2366.460938 1166.898438 2368.21875 1163.390625 2359.359375 1147.800781 C 2360.898438 1157.050781 2360.609375 1161.738281 2364.390625 1166.398438 C 2362.648438 1166.648438 2360.921875 1166.929688 2359.179688 1167.21875 C 2356.851562 1164.320312 2354.019531 1160.199219 2349.730469 1154.210938 C 2350.28125 1159.300781 2351.421875 1163.941406 2353.488281 1168.230469 C 2327.53125 1173.089844 2302.011719 1180.980469 2279.570312 1178.730469 C 2185.640625 1169.289062 2140.308594 1120.769531 2097.039062 1126.710938 C 2061.371094 1131.601562 2028.160156 1139.609375 1993.339844 1124.019531 C 2000.980469 1117.039062 2004.898438 1108.519531 2004.441406 1109.039062 C 2000.160156 1113.980469 1992.480469 1117.628906 1984.738281 1119.699219 C 1982.300781 1118.328125 1979.851562 1116.851562 1977.398438 1115.21875 C 1985.25 1111.519531 1988.28125 1104.050781 1994.949219 1087.398438 C 1976.328125 1102.601562 1980.011719 1107.378906 1965.800781 1106.628906 C 1964.398438 1105.46875 1963 1104.269531 1961.578125 1103.019531 C 1969.949219 1100.390625 1979.578125 1095.320312 1982.78125 1068.941406 C 1970.820312 1089.71875 1964.140625 1088.210938 1948.101562 1085.109375 C 1958.761719 1081.039062 1957.730469 1091.878906 1975.140625 1052.789062 C 1957.480469 1071.871094 1954.25 1074.269531 1943.53125 1067.929688 C 1955.53125 1062.929688 1959.261719 1066.339844 1969.738281 1041.269531 C 1953.308594 1055.121094 1960.511719 1051.539062 1940 1051.960938 C 1940.488281 1044.289062 1952.96875 1056.691406 1963.5 1028.449219 C 1951.640625 1042.019531 1951.589844 1039.199219 1937.609375 1036.640625 C 1942.640625 1031.320312 1949.53125 1037.03125 1959.21875 1019.488281 C 1946.859375 1028.640625 1937.539062 1028.429688 1935.308594 1021.539062 C 1949.890625 1019.949219 1951.101562 1023.28125 1955.640625 1000.308594 C 1947.398438 1014.609375 1950.640625 1012.859375 1934.210938 1010.199219 C 1939.71875 1003.441406 1941.039062 1016.609375 1948.53125 990.4375 C 1939.339844 1001.621094 1940.789062 998.039062 1932.519531 992.792969 C 1938.789062 990.640625 1943.230469 995.683594 1948.25 976.949219 C 1941.191406 987.488281 1936.121094 984.824219 1929.539062 979.019531 C 1928.808594 971.667969 1934.058594 993.402344 1945.320312 963.816406 C 1938.589844 971.550781 1936.011719 971.839844 1929.78125 967.117188 C 1935.390625 963.664062 1936.488281 971.023438 1942.609375 955.523438 C 1936.460938 962.140625 1936.53125 961.242188 1929.058594 956.257812 C 1935.53125 957.398438 1936.828125 956.097656 1940.011719 944.425781 C 1934.980469 951.921875 1932.441406 951.246094 1928.511719 950.050781 C 1929.039062 946.085938 1936.429688 949.714844 1934.519531 932.859375 C 1933.109375 939.820312 1932.621094 943.804688 1927.851562 942.402344 C 1924.039062 941.277344 1934.378906 937.800781 1934.070312 927.84375 C 1932.339844 931.046875 1930.789062 933.59375 1927.230469 933.78125 C 1925.511719 933.863281 1925.351562 924.25 1925.050781 922.0625 C 1923.648438 932.898438 1922.800781 932.890625 1918.480469 927.769531 C 1919.03125 931.820312 1920.800781 932.835938 1921.871094 935.136719 C 1923.019531 937.632812 1923.238281 940.382812 1923.261719 944.027344 C 1920.179688 944.9375 1917.390625 940.832031 1915.980469 935.242188 C 1916 942.625 1915.878906 945.535156 1922.460938 953.101562 C 1918.089844 953.125 1914.628906 948.230469 1912.011719 943.074219 C 1913.03125 951.457031 1915.921875 953.375 1921.820312 960.714844 C 1916.910156 960.078125 1914.460938 959.246094 1909.171875 953.390625 C 1913.640625 965.523438 1915.351562 964.574219 1921.160156 968.449219 C 1916.859375 971.644531 1912.421875 972.761719 1908.898438 963.675781 C 1910.589844 975.3125 1909.578125 975.671875 1918.238281 980.042969 C 1910.308594 981.507812 1911.140625 981.597656 1906.03125 974.054688 C 1909.21875 986.101562 1908.839844 985.71875 1918.28125 990.582031 C 1916.179688 998.890625 1907.71875 1004.449219 1899.578125 980.910156 C 1902.28125 1004.128906 1904.109375 1003.421875 1916.03125 1007.441406 C 1908.921875 1012.949219 1897.558594 1009.890625 1892.230469 1002.730469 C 1900.558594 1018.03125 1894.941406 1017.03125 1911.230469 1024.511719 C 1905.53125 1030.261719 1900.769531 1030.519531 1889.410156 1021.46875 C 1895.339844 1035.730469 1894.578125 1037.761719 1908.460938 1045.078125 C 1897.148438 1049.449219 1897.96875 1047.058594 1887.339844 1039.171875 C 1893.339844 1049.5 1892.449219 1059.488281 1908.019531 1061.320312 C 1899.800781 1067.171875 1891.648438 1065.320312 1878.519531 1054.320312 C 1892.441406 1080.761719 1894.03125 1070.230469 1903.328125 1082.320312 C 1894.058594 1089.160156 1884.160156 1077.921875 1877.851562 1067.941406 C 1882.121094 1080.648438 1883.308594 1086.449219 1892.328125 1092.171875 C 1889.789062 1093.621094 1887.308594 1095.230469 1884.859375 1096.960938 C 1881.429688 1094.691406 1879.488281 1088.988281 1873.871094 1079.101562 C 1875.660156 1089.890625 1875.308594 1095.320312 1879.789062 1100.769531 C 1878.449219 1101.851562 1877.121094 1102.96875 1875.808594 1104.109375 C 1872.660156 1100.75 1869.058594 1095.421875 1862.699219 1086.539062 C 1863.609375 1094.921875 1865.898438 1102.230469 1870.671875 1108.851562 C 1866.949219 1112.449219 1863.390625 1116.269531 1859.988281 1120.210938 C 1854.910156 1118.398438 1849.878906 1115.699219 1845.03125 1111.710938 C 1845.171875 1115.898438 1849.070312 1121.039062 1855.320312 1125.820312 C 1845.859375 1137.589844 1837.96875 1149.851562 1832.128906 1159.679688 C 1812.339844 1192.941406 1766.269531 1254.171875 1686.988281 1196.761719 C 1631.671875 1156.691406 1575.789062 1156.839844 1478.890625 1130.75 C 1482.769531 1127.378906 1485.089844 1123.980469 1485.191406 1121.078125 C 1480.550781 1124.570312 1475.738281 1126.941406 1470.871094 1128.558594 C 1465.679688 1127.121094 1460.371094 1125.601562 1454.929688 1123.988281 C 1463.261719 1116.691406 1466.769531 1108.488281 1467.949219 1098.628906 C 1454.109375 1116.25 1453.660156 1118.230469 1441.730469 1119.980469 L 1439.929688 1119.421875 C 1456.539062 1110.179688 1454.390625 1106.550781 1457.039062 1092.011719 C 1447.011719 1108.128906 1449 1111.75 1432.128906 1107.03125 C 1447.460938 1100.519531 1448.078125 1095.839844 1453.148438 1082.058594 C 1447 1090.949219 1437.339844 1100.980469 1428.289062 1094.878906 C 1437.359375 1084.101562 1438.910156 1093.480469 1452.5 1069.921875 C 1439.679688 1079.730469 1431.730469 1081.371094 1423.710938 1076.160156 C 1438.910156 1074.53125 1438.039062 1065.621094 1443.890625 1056.410156 C 1433.519531 1063.449219 1434.320312 1065.578125 1423.28125 1061.679688 C 1436.839844 1055.160156 1436.078125 1053.359375 1441.871094 1040.640625 C 1430.789062 1048.699219 1426.140625 1048.46875 1420.570312 1043.351562 C 1436.46875 1036.691406 1430.980469 1037.578125 1439.121094 1023.929688 C 1433.910156 1030.308594 1422.828125 1033.050781 1415.890625 1028.128906 C 1427.519531 1024.550781 1429.308594 1025.179688 1431.949219 1004.488281 C 1424 1025.46875 1415.738281 1020.511719 1413.691406 1013.109375 C 1422.898438 1008.78125 1422.539062 1009.109375 1425.648438 998.382812 C 1420.660156 1005.101562 1421.480469 1005.019531 1413.71875 1003.71875 C 1422.179688 999.816406 1421.199219 999.503906 1422.851562 989.125 C 1419.421875 997.226562 1415.078125 996.234375 1410.878906 993.378906 C 1416.539062 989.929688 1418.21875 990.78125 1422.578125 979.964844 C 1417.421875 985.175781 1415.03125 985.917969 1410.230469 986.488281 C 1415.988281 979.949219 1418.808594 978.230469 1419.808594 970.761719 C 1417.25 975.367188 1413.871094 979.722656 1409.609375 979.707031 C 1416.03125 972.957031 1415.921875 970.355469 1415.941406 963.785156 C 1414.558594 968.765625 1411.839844 972.425781 1408.828125 971.613281 C 1408.851562 968.359375 1409.058594 965.914062 1410.179688 963.691406 C 1411.21875 961.640625 1412.960938 960.734375 1413.5 957.128906 C 1409.28125 961.6875 1408.441406 961.695312 1407.078125 952.042969 C 1406.800781 953.984375 1406.640625 962.5625 1404.960938 962.484375 C 1401.480469 962.3125 1399.96875 960.046875 1398.28125 957.191406 C 1397.96875 966.066406 1408.070312 969.164062 1404.351562 970.171875 C 1399.699219 971.417969 1399.21875 967.859375 1397.839844 961.65625 C 1395.980469 976.6875 1403.179688 973.449219 1403.699219 976.980469 C 1399.859375 978.046875 1397.390625 978.652344 1392.480469 971.972656 C 1395.589844 982.378906 1396.859375 983.53125 1403.171875 982.507812 C 1395.878906 986.964844 1395.949219 987.761719 1389.941406 981.859375 C 1395.921875 995.675781 1396.988281 989.109375 1402.46875 992.191406 C 1396.390625 996.402344 1393.859375 996.148438 1387.300781 989.257812 C 1398.289062 1015.621094 1403.410156 996.257812 1402.710938 1002.800781 C 1396.269531 1007.96875 1391.320312 1010.351562 1384.441406 1000.960938 C 1389.339844 1017.660156 1393.671875 1013.160156 1399.800781 1015.078125 C 1391.710938 1019.761719 1393.140625 1022.949219 1384.171875 1012.980469 C 1391.46875 1036.308594 1392.761719 1024.570312 1398.140625 1030.609375 C 1382.109375 1032.960938 1385.269531 1034.53125 1377.21875 1021.78125 C 1381.660156 1042.261719 1382.839844 1039.289062 1397.078125 1040.710938 C 1394.890625 1046.839844 1385.789062 1047.03125 1373.730469 1038.878906 C 1383.179688 1054.519531 1389.898438 1049.421875 1394.820312 1054.171875 C 1381.171875 1056.441406 1381.128906 1058.960938 1369.550781 1046.871094 C 1379.839844 1072.039062 1392.011719 1060.980469 1392.488281 1067.820312 C 1379.589844 1067.578125 1377.921875 1068.820312 1374.070312 1066.429688 C 1374.570312 1064.230469 1374.960938 1061.96875 1375.230469 1059.640625 L 1371.410156 1064.53125 C 1369.558594 1063.101562 1367.109375 1061.101562 1363.46875 1058.300781 C 1365.339844 1062.390625 1367 1065.640625 1368.519531 1068.238281 C 1366.789062 1070.449219 1365.261719 1072.390625 1363.871094 1074.089844 C 1362.160156 1072.449219 1360.28125 1070.621094 1358.191406 1068.558594 C 1359.589844 1071.429688 1360.871094 1073.988281 1362.039062 1076.28125 C 1358.261719 1080.691406 1355.449219 1083.160156 1351.890625 1084.738281 C 1351.511719 1084.171875 1351.121094 1083.570312 1350.730469 1082.960938 C 1350.828125 1083.691406 1350.941406 1084.398438 1351.050781 1085.089844 C 1348.890625 1085.941406 1346.421875 1086.519531 1343.320312 1087.050781 L 1339.960938 1086 C 1360.308594 1074.460938 1357.679688 1069.578125 1361.058594 1051.019531 C 1348.019531 1071.960938 1350.609375 1076.691406 1328.671875 1070.550781 C 1348.609375 1062.078125 1349.421875 1056 1356 1038.089844 C 1348.011719 1049.648438 1335.449219 1062.671875 1323.679688 1054.75 C 1335.46875 1040.738281 1337.488281 1052.941406 1355.160156 1022.308594 C 1338.5 1035.050781 1328.160156 1037.199219 1317.730469 1030.421875 C 1337.488281 1028.300781 1336.359375 1016.71875 1343.96875 1004.75 C 1330.480469 1013.898438 1331.53125 1016.679688 1317.171875 1011.589844 C 1334.789062 1003.121094 1333.820312 1000.789062 1341.339844 984.25 C 1326.929688 994.730469 1320.890625 994.425781 1313.648438 987.769531 C 1334.320312 979.117188 1327.191406 980.265625 1337.761719 962.53125 C 1330.988281 970.824219 1316.578125 974.382812 1307.570312 967.992188 C 1322.691406 963.332031 1325.011719 964.152344 1328.441406 937.257812 C 1318.109375 964.519531 1307.371094 958.089844 1304.710938 948.46875 C 1316.679688 942.824219 1316.199219 943.269531 1320.25 929.316406 C 1313.769531 938.046875 1314.820312 937.945312 1304.75 936.253906 C 1315.75 931.191406 1314.46875 930.777344 1316.609375 917.289062 C 1312.148438 927.816406 1306.519531 926.519531 1301.050781 922.8125 C 1308.421875 918.335938 1310.601562 919.4375 1316.261719 905.382812 C 1309.550781 912.152344 1306.449219 913.125 1300.210938 913.855469 C 1307.699219 905.359375 1311.359375 903.125 1312.671875 893.417969 C 1309.339844 899.402344 1304.949219 905.0625 1299.398438 905.039062 C 1307.75 896.265625 1307.609375 892.894531 1307.628906 884.34375 C 1305.839844 890.816406 1302.300781 895.578125 1298.390625 894.515625 C 1298.421875 890.296875 1298.691406 887.117188 1300.148438 884.222656 C 1301.5 881.554688 1303.761719 880.378906 1304.460938 875.691406 C 1298.96875 881.617188 1297.890625 881.632812 1296.121094 869.074219 C 1295.738281 871.601562 1295.539062 882.757812 1293.351562 882.644531 C 1288.839844 882.429688 1286.878906 879.488281 1284.671875 875.773438 C 1284.269531 887.308594 1297.390625 891.34375 1292.570312 892.636719 C 1286.519531 894.277344 1285.898438 889.644531 1284.089844 881.585938 C 1281.691406 901.117188 1291.050781 896.90625 1291.71875 901.5 C 1286.730469 902.882812 1283.511719 903.671875 1277.140625 894.984375 C 1281.171875 908.515625 1282.828125 910.015625 1291.03125 908.691406 C 1281.550781 914.472656 1281.640625 915.511719 1273.839844 907.839844 C 1281.601562 925.796875 1283 917.265625 1290.121094 921.28125 C 1282.21875 926.742188 1278.929688 926.414062 1270.398438 917.453125 C 1284.691406 951.730469 1291.351562 926.550781 1290.421875 935.058594 C 1282.070312 941.789062 1275.640625 944.878906 1266.691406 932.671875 C 1273.050781 954.367188 1278.679688 948.53125 1286.640625 951.027344 C 1276.148438 957.097656 1277.988281 961.25 1266.328125 948.285156 C 1275.828125 978.621094 1277.5 963.363281 1284.488281 971.199219 C 1263.648438 974.269531 1267.761719 976.3125 1257.308594 959.734375 C 1263.070312 986.347656 1264.609375 982.492188 1283.109375 984.339844 C 1280.269531 992.3125 1268.449219 992.550781 1252.761719 981.964844 C 1265.050781 1002.289062 1273.789062 995.667969 1280.179688 1001.828125 C 1263.441406 1004.621094 1262.441406 1007.691406 1249.75 994.824219 C 1250.148438 994.113281 1250.570312 993.402344 1251.03125 992.6875 C 1250.320312 993.167969 1249.648438 993.628906 1249.019531 994.082031 L 1247.339844 992.34375 C 1247.648438 993.125 1247.96875 993.863281 1248.289062 994.589844 C 1236.269531 1003.121094 1236.300781 1005.441406 1221.539062 1000.21875 C 1240.929688 990.890625 1239.851562 988.316406 1248.128906 970.117188 C 1232.28125 981.660156 1225.628906 981.324219 1217.660156 974 C 1240.410156 964.472656 1232.558594 965.738281 1244.199219 946.21875 C 1236.75 955.351562 1220.890625 959.257812 1210.960938 952.230469 C 1227.601562 947.097656 1230.160156 948.007812 1233.941406 918.40625 C 1222.558594 948.414062 1210.75 941.324219 1207.820312 930.746094 C 1221 924.53125 1220.46875 925.023438 1224.929688 909.664062 C 1217.789062 919.28125 1218.960938 919.160156 1207.871094 917.296875 C 1219.96875 911.722656 1218.570312 911.273438 1220.921875 896.429688 C 1216.011719 908.011719 1209.808594 906.589844 1203.800781 902.507812 C 1211.898438 897.578125 1214.308594 898.796875 1220.539062 883.320312 C 1213.148438 890.777344 1209.738281 891.839844 1202.871094 892.652344 C 1211.109375 883.296875 1215.148438 880.84375 1216.578125 870.160156 C 1212.921875 876.738281 1208.078125 882.972656 1201.980469 882.945312 C 1211.171875 873.292969 1211.011719 869.574219 1211.039062 860.171875 C 1209.070312 867.296875 1205.171875 872.535156 1200.871094 871.371094 C 1200.898438 866.722656 1201.191406 863.222656 1202.808594 860.039062 C 1204.300781 857.105469 1206.78125 855.800781 1207.550781 850.648438 C 1201.511719 857.167969 1200.320312 857.179688 1198.359375 843.371094 C 1197.949219 846.152344 1197.730469 858.421875 1195.320312 858.304688 C 1190.359375 858.070312 1188.191406 854.824219 1185.761719 850.734375 C 1185.328125 863.433594 1199.769531 867.871094 1194.460938 869.304688 C 1187.808594 871.097656 1187.121094 866.011719 1185.140625 857.128906 C 1182.480469 878.628906 1192.78125 874 1193.53125 879.058594 C 1188.039062 880.578125 1184.488281 881.445312 1177.480469 871.878906 C 1181.921875 886.773438 1183.75 888.433594 1192.769531 886.964844 C 1182.339844 893.328125 1182.429688 894.46875 1173.851562 886.035156 C 1182.390625 905.789062 1183.941406 896.40625 1191.761719 900.816406 C 1183.070312 906.839844 1179.449219 906.476562 1170.058594 896.613281 C 1185.789062 934.324219 1193.121094 906.628906 1192.101562 915.988281 C 1182.910156 923.394531 1175.828125 926.796875 1165.980469 913.355469 C 1172.980469 937.234375 1179.179688 930.816406 1187.929688 933.558594 C 1176.390625 940.242188 1178.421875 944.808594 1165.578125 930.546875 C 1176.039062 963.925781 1177.878906 947.132812 1185.570312 955.757812 C 1162.628906 959.144531 1167.160156 961.382812 1155.648438 943.136719 C 1162 972.433594 1163.691406 968.1875 1184.050781 970.226562 C 1180.929688 978.988281 1167.921875 979.261719 1150.648438 967.601562 C 1164.179688 989.96875 1173.800781 982.6875 1180.820312 989.472656 C 1161.300781 992.726562 1161.238281 996.332031 1144.679688 979.027344 C 1159.378906 1015.039062 1176.808594 999.226562 1177.488281 1009.011719 C 1148.851562 1008.46875 1158.898438 1013.039062 1135.96875 995.371094 C 1150.609375 1027.339844 1155.800781 1022.988281 1172.558594 1029.359375 C 1157.589844 1037.449219 1153.089844 1034.378906 1128.421875 1010.058594 C 1152.738281 1059.898438 1151.300781 1046.089844 1166.179688 1051.269531 C 1143.78125 1055.21875 1134.460938 1057.128906 1117.761719 1030.660156 C 1123.371094 1072.949219 1143.191406 1072.28125 1155.851562 1076.5 C 1154.71875 1076.929688 1153.578125 1077.359375 1152.441406 1077.808594 C 1119.339844 1081.230469 1130.71875 1076.519531 1100.761719 1054.191406 C 1110.25 1075.820312 1114.46875 1085.289062 1125.910156 1089.941406 C 1122.480469 1091.691406 1119.011719 1093.539062 1115.488281 1095.480469 C 1104.53125 1092.871094 1093.570312 1088.171875 1087.511719 1081.789062 C 1086.851562 1081.101562 1092.75 1092.820312 1104.21875 1101.871094 C 1082.769531 1114.390625 1059.128906 1130.011719 1031.359375 1148.789062 C 1027.738281 1148.578125 1023.261719 1148.140625 1017.550781 1147.5 C 1028.878906 1142.828125 1048.570312 1145.660156 1053.941406 1105.179688 C 1038.761719 1129.238281 1030.300781 1127.5 1009.941406 1123.910156 C 1023.46875 1119.199219 1022.148438 1131.75 1044.25 1086.46875 C 1021.839844 1108.570312 1017.75 1111.351562 1004.140625 1104 C 1019.371094 1098.210938 1024.089844 1102.179688 1037.390625 1073.121094 C 1016.550781 1089.179688 1025.691406 1085.03125 999.660156 1085.511719 C 1000.289062 1076.621094 1016.121094 1090.988281 1029.480469 1058.269531 C 1014.429688 1073.988281 1014.371094 1070.710938 996.636719 1067.761719 C 1003.019531 1061.601562 1011.761719 1068.210938 1024.050781 1047.890625 C 1008.371094 1058.480469 996.546875 1058.238281 993.699219 1050.269531 C 1012.210938 1048.421875 1013.738281 1052.28125 1019.511719 1025.660156 C 1009.050781 1042.238281 1013.160156 1040.199219 992.316406 1037.128906 C 999.308594 1029.289062 1000.988281 1044.550781 1010.488281 1014.21875 C 998.816406 1027.179688 1000.660156 1023.03125 990.171875 1016.960938 C 998.128906 1014.460938 1003.761719 1020.300781 1010.128906 998.601562 C 1001.179688 1010.820312 994.746094 1007.71875 986.386719 1001 C 985.464844 992.480469 992.125 1017.660156 1006.410156 983.390625 C 997.878906 992.351562 994.59375 992.679688 986.6875 987.207031 C 993.804688 983.207031 995.203125 991.722656 1002.96875 973.769531 C 995.171875 981.4375 995.253906 980.410156 985.78125 974.621094 C 993.984375 975.945312 995.636719 974.445312 999.671875 960.914062 C 993.296875 969.605469 990.078125 968.8125 985.09375 967.429688 C 985.765625 962.84375 995.128906 967.046875 992.714844 947.515625 C 990.917969 955.574219 990.292969 960.203125 984.242188 958.574219 C 979.421875 957.269531 992.539062 953.234375 992.144531 941.699219 C 989.9375 945.414062 987.976562 948.367188 983.460938 948.574219 C 981.265625 948.683594 981.070312 937.539062 980.699219 935.003906 C 978.921875 947.5625 977.835938 947.546875 972.347656 941.621094 C 973.042969 946.308594 975.308594 947.488281 976.660156 950.160156 C 978.128906 953.046875 978.386719 956.226562 978.425781 960.453125 C 974.511719 961.507812 970.96875 956.746094 969.1875 950.269531 C 969.210938 958.824219 969.0625 962.195312 977.414062 970.96875 C 971.867188 970.992188 967.476562 965.332031 964.152344 959.34375 C 965.449219 969.054688 969.113281 971.285156 976.601562 979.792969 C 970.363281 979.050781 967.257812 978.089844 960.550781 971.3125 C 966.214844 985.367188 968.390625 984.265625 975.757812 988.742188 C 970.300781 992.449219 964.660156 993.746094 960.199219 983.21875 C 962.339844 996.703125 961.070312 997.117188 972.058594 1002.179688 C 961.984375 1003.871094 963.046875 1003.980469 956.5625 995.246094 C 960.609375 1009.199219 960.128906 1008.761719 972.109375 1014.398438 C 969.4375 1024.019531 958.703125 1030.460938 948.375 1003.179688 C 951.800781 1030.089844 954.128906 1029.269531 969.25 1033.921875 C 960.261719 1040.289062 945.921875 1036.78125 939.117188 1028.550781 C 940.050781 1026.738281 941.015625 1024.640625 942.03125 1022.21875 C 934.359375 1030.269531 931.40625 1030.570312 924.296875 1025.648438 C 930.695312 1022.050781 931.957031 1029.710938 938.941406 1013.558594 C 931.925781 1020.460938 932.003906 1019.53125 923.480469 1014.328125 C 930.855469 1015.519531 932.34375 1014.171875 935.976562 1002.011719 C 930.246094 1009.808594 927.34375 1009.101562 922.859375 1007.871094 C 923.46875 1003.730469 931.886719 1007.519531 929.71875 989.945312 C 928.101562 997.207031 927.539062 1001.359375 922.101562 999.894531 C 917.757812 998.722656 929.554688 995.097656 929.199219 984.722656 C 927.21875 988.0625 925.453125 990.710938 921.394531 990.90625 C 919.421875 991 919.238281 980.972656 918.90625 978.703125 C 917.3125 989.992188 916.335938 989.976562 911.402344 984.648438 C 912.023438 988.859375 914.058594 989.921875 915.277344 992.328125 C 916.59375 994.925781 916.832031 997.78125 916.859375 1001.578125 C 913.34375 1002.53125 910.15625 998.257812 908.550781 992.425781 C 908.574219 1000.121094 908.445312 1003.148438 915.953125 1011.039062 C 910.964844 1011.058594 907.011719 1005.96875 904.023438 1000.589844 C 905.195312 1009.320312 908.492188 1011.328125 915.222656 1018.980469 C 909.613281 1018.308594 906.824219 1017.449219 900.78125 1011.351562 C 905.882812 1024 907.839844 1023.011719 914.464844 1027.03125 C 909.554688 1030.371094 904.480469 1031.53125 900.472656 1022.058594 C 902.398438 1034.191406 901.253906 1034.558594 911.136719 1039.121094 C 902.082031 1040.640625 903.03125 1040.738281 897.199219 1032.878906 C 900.835938 1045.429688 900.410156 1045.039062 911.179688 1050.109375 C 908.886719 1058.378906 899.953125 1064.039062 891.054688 1043.070312 C 891.792969 1040.261719 892.554688 1036.949219 893.40625 1033.039062 C 881.898438 1051.289062 886.417969 1049.039062 863.480469 1045.671875 C 871.175781 1037.039062 873.019531 1053.828125 883.476562 1020.449219 C 870.636719 1034.710938 872.664062 1030.148438 861.121094 1023.460938 C 869.871094 1020.71875 876.078125 1027.140625 883.082031 1003.269531 C 873.230469 1016.699219 866.148438 1013.300781 856.949219 1005.898438 C 855.941406 996.523438 863.261719 1024.238281 878.992188 986.523438 C 869.601562 996.378906 865.984375 996.746094 857.289062 990.71875 C 865.113281 986.316406 866.660156 995.699219 875.203125 975.9375 C 866.621094 984.371094 866.714844 983.234375 856.285156 976.867188 C 865.3125 978.328125 867.132812 976.679688 871.574219 961.789062 C 864.5625 971.351562 861.011719 970.484375 855.523438 968.960938 C 856.273438 963.902344 866.574219 968.53125 863.917969 947.039062 C 861.9375 955.914062 861.25 961 854.59375 959.207031 C 849.28125 957.78125 863.726562 953.339844 863.292969 940.640625 C 860.863281 944.730469 858.699219 947.96875 853.730469 948.207031 C 851.316406 948.324219 851.105469 936.058594 850.695312 933.273438 C 848.738281 947.089844 847.542969 947.078125 841.507812 940.550781 C 842.269531 945.710938 844.761719 947.007812 846.246094 949.949219 C 847.863281 953.125 848.15625 956.625 848.1875 961.273438 C 843.882812 962.4375 839.984375 957.199219 838.023438 950.074219 C 838.050781 959.488281 837.886719 963.195312 847.074219 972.847656 C 840.972656 972.878906 836.136719 966.640625 832.476562 960.0625 C 833.90625 970.746094 837.941406 973.199219 846.183594 982.554688 C 839.3125 981.742188 835.90625 980.6875 828.519531 973.222656 C 834.75 988.699219 837.144531 987.488281 845.261719 992.414062 C 839.242188 996.492188 833.042969 997.921875 828.132812 986.332031 C 830.488281 1001.179688 829.089844 1001.628906 841.191406 1007.210938 C 830.101562 1009.058594 831.269531 1009.179688 824.128906 999.566406 C 828.578125 1014.929688 828.058594 1014.441406 841.238281 1020.648438 C 838.304688 1031.238281 826.488281 1038.320312 815.117188 1008.308594 C 818.890625 1037.921875 821.453125 1037.011719 838.09375 1042.128906 C 828.167969 1049.171875 812.304688 1045.25 804.851562 1036.128906 C 816.492188 1055.640625 808.644531 1054.371094 831.394531 1063.910156 C 823.425781 1071.230469 816.777344 1071.558594 800.925781 1060.019531 C 809.199219 1078.21875 808.125 1080.789062 827.519531 1090.128906 C 811.714844 1095.710938 812.875 1092.671875 798.03125 1082.601562 C 806.398438 1095.761719 805.15625 1108.511719 826.902344 1110.839844 C 816.375 1117.691406 805.925781 1116.25 790.121094 1105.160156 C 792.121094 1099.941406 793.367188 1094.410156 794.078125 1088.5 C 770.40625 1118.640625 771.835938 1119.449219 747.257812 1122.609375 C 776.539062 1106.929688 772.757812 1101.710938 777.050781 1078.148438 C 761.382812 1103.300781 764.5 1108.96875 738.148438 1101.601562 C 762.09375 1091.429688 763.070312 1084.128906 770.972656 1062.621094 C 761.371094 1076.5 746.285156 1092.148438 732.152344 1082.628906 C 746.3125 1065.808594 748.746094 1080.449219 769.957031 1043.671875 C 749.949219 1058.96875 737.53125 1061.539062 725.007812 1053.398438 C 748.738281 1050.859375 747.382812 1036.949219 756.519531 1022.578125 C 740.320312 1033.558594 741.578125 1036.898438 724.335938 1030.800781 C 745.496094 1020.609375 744.328125 1017.808594 753.363281 997.949219 C 736.066406 1010.539062 728.800781 1010.160156 720.105469 1002.179688 C 744.9375 991.777344 736.367188 993.167969 749.070312 971.863281 C 740.9375 981.820312 723.632812 986.101562 712.800781 978.425781 C 730.960938 972.824219 733.75 973.816406 737.867188 941.507812 C 725.464844 974.253906 712.566406 966.527344 709.363281 954.96875 C 723.742188 948.195312 723.167969 948.730469 728.035156 931.972656 C 720.25 942.457031 721.515625 942.332031 709.414062 940.304688 C 722.621094 934.207031 721.09375 933.71875 723.664062 917.515625 C 718.304688 930.164062 711.539062 928.613281 704.980469 924.160156 C 713.828125 918.777344 716.445312 920.101562 723.246094 903.214844 C 715.1875 911.355469 711.464844 912.511719 703.964844 913.394531 C 712.960938 903.1875 717.363281 900.511719 718.925781 888.855469 C 714.929688 896.039062 709.648438 902.839844 702.992188 902.808594 C 713.019531 892.269531 712.84375 888.21875 712.875 877.949219 C 710.730469 885.730469 706.472656 891.441406 701.777344 890.179688 C 701.816406 885.097656 702.132812 881.28125 703.890625 877.808594 C 705.515625 874.601562 708.234375 873.1875 709.074219 867.5625 C 702.480469 874.679688 701.175781 874.695312 699.046875 859.609375 C 698.597656 862.65625 698.355469 876.042969 695.730469 875.921875 C 690.304688 875.652344 687.945312 872.121094 685.300781 867.65625 C 684.824219 881.515625 700.582031 886.351562 694.789062 887.914062 C 687.523438 889.882812 686.773438 884.324219 684.613281 874.632812 C 681.710938 898.097656 692.957031 893.042969 693.769531 898.558594 C 687.777344 900.222656 683.910156 901.175781 676.253906 890.730469 C 681.101562 906.980469 683.089844 908.78125 692.941406 907.191406 C 681.554688 914.136719 681.664062 915.386719 672.292969 906.179688 C 681.625 927.738281 683.300781 917.5 691.847656 922.308594 C 682.355469 928.878906 678.40625 928.480469 668.164062 917.726562 C 685.324219 958.886719 693.320312 928.65625 692.210938 938.867188 C 682.175781 946.953125 674.449219 950.660156 663.695312 935.996094 C 671.347656 962.0625 678.109375 955.054688 687.664062 958.042969 C 675.058594 965.339844 677.277344 970.324219 663.265625 954.757812 C 674.675781 991.1875 676.691406 972.863281 685.085938 982.273438 C 660.050781 985.964844 664.988281 988.414062 652.433594 968.5 C 659.355469 1000.480469 661.199219 995.835938 683.421875 998.054688 C 680.015625 1007.628906 665.816406 1007.921875 646.972656 995.199219 C 647.769531 996.515625 648.554688 997.734375 649.324219 998.867188 C 636.425781 1013.46875 636.015625 1010.269531 620.125 1007.359375 C 625.976562 1001.179688 633.984375 1007.828125 645.25 987.425781 C 630.875 998.054688 620.035156 997.8125 617.433594 989.816406 C 634.394531 987.957031 635.796875 991.828125 641.089844 965.113281 C 631.507812 981.75 635.273438 979.699219 616.167969 976.621094 C 622.578125 968.75 624.113281 984.070312 632.820312 953.625 C 622.125 966.632812 623.820312 962.46875 614.199219 956.371094 C 621.488281 953.867188 626.65625 959.726562 632.484375 937.945312 C 624.285156 950.199219 618.390625 947.097656 610.730469 940.351562 C 609.882812 931.804688 615.984375 957.074219 629.078125 922.675781 C 621.261719 931.664062 618.253906 932 611.011719 926.503906 C 617.527344 922.484375 618.816406 931.046875 625.929688 913.027344 C 618.78125 920.722656 618.863281 919.6875 610.175781 913.882812 C 617.691406 915.207031 619.210938 913.699219 622.90625 900.121094 C 617.0625 908.84375 614.113281 908.046875 609.542969 906.660156 C 610.160156 902.050781 618.738281 906.277344 616.53125 886.664062 C 614.886719 894.765625 614.308594 899.402344 608.761719 897.769531 C 604.339844 896.460938 616.371094 892.417969 616.007812 880.835938 C 613.984375 884.566406 612.1875 887.515625 608.046875 887.738281 C 606.046875 887.84375 605.859375 876.65625 605.511719 874.117188 C 603.890625 886.71875 602.894531 886.703125 597.863281 880.753906 C 598.503906 885.457031 600.570312 886.644531 601.8125 889.320312 C 603.15625 892.222656 603.402344 895.414062 603.425781 899.652344 C 599.84375 900.710938 596.59375 895.9375 594.964844 889.4375 C 594.988281 898.023438 594.851562 901.398438 602.503906 910.214844 C 597.425781 910.238281 593.394531 904.554688 590.34375 898.550781 C 591.535156 908.292969 594.890625 910.53125 601.757812 919.0625 C 596.042969 918.320312 593.203125 917.359375 587.046875 910.554688 C 592.238281 924.664062 594.238281 923.554688 600.984375 928.050781 C 595.984375 931.773438 590.816406 933.078125 586.726562 922.511719 C 588.691406 936.042969 587.515625 936.457031 597.597656 941.546875 C 588.367188 943.246094 589.335938 943.347656 583.390625 934.582031 C 587.101562 948.582031 586.664062 948.140625 597.636719 953.804688 C 595.195312 963.457031 585.355469 969.921875 575.890625 942.550781 C 579.035156 969.554688 581.164062 968.726562 595.019531 973.402344 C 586.757812 979.816406 573.546875 976.242188 567.339844 967.921875 C 577.035156 985.726562 570.496094 984.5625 589.441406 993.253906 C 582.808594 999.933594 577.269531 1000.238281 564.066406 989.710938 C 570.960938 1006.308594 570.070312 1008.660156 586.214844 1017.171875 C 573.054688 1022.269531 574.011719 1019.480469 561.652344 1010.300781 C 568.628906 1022.320312 567.59375 1033.941406 585.703125 1036.058594 C 576.144531 1042.871094 566.671875 1040.710938 551.398438 1027.929688 C 567.589844 1058.660156 569.441406 1046.421875 580.253906 1060.488281 C 569.460938 1068.441406 557.953125 1055.359375 550.621094 1043.761719 C 552.339844 1048.871094 553.625 1053.011719 555.007812 1056.519531 C 552.898438 1058.609375 550.921875 1060.539062 549.0625 1062.339844 C 548.148438 1060.621094 547.140625 1058.761719 545.988281 1056.738281 C 546.453125 1059.519531 546.792969 1061.988281 547.101562 1064.230469 C 543.726562 1067.460938 540.742188 1070.210938 538.070312 1072.5 C 536.554688 1070.378906 534.882812 1068.019531 532.996094 1065.390625 C 533.367188 1068.808594 533.941406 1072.070312 534.761719 1075.210938 C 523.574219 1083.929688 517.578125 1083.488281 506.234375 1077.371094 C 525.089844 1070.199219 530.9375 1075.101562 547.402344 1039.128906 C 521.601562 1059.011719 532.902344 1053.871094 500.691406 1054.460938 C 501.464844 1043.460938 521.058594 1061.25 537.605469 1020.75 C 518.972656 1040.210938 518.902344 1036.148438 496.941406 1032.488281 C 504.847656 1024.859375 515.667969 1033.058594 530.882812 1007.898438 C 511.464844 1021.011719 496.828125 1020.699219 493.316406 1010.839844 C 516.222656 1008.550781 518.117188 1013.328125 525.261719 980.371094 C 512.316406 1000.898438 517.402344 998.367188 491.597656 994.566406 C 500.257812 984.867188 502.332031 1003.761719 514.089844 966.207031 C 499.640625 982.25 501.933594 977.117188 488.9375 969.589844 C 498.789062 966.503906 505.769531 973.726562 513.644531 946.867188 C 502.558594 961.984375 494.601562 958.15625 484.253906 949.824219 C 483.109375 939.289062 491.351562 970.457031 509.042969 928.027344 C 498.480469 939.117188 494.410156 939.523438 484.632812 932.746094 C 493.4375 927.792969 495.167969 938.351562 504.78125 916.121094 C 495.128906 925.617188 495.234375 924.335938 483.503906 917.175781 C 493.65625 918.8125 495.703125 916.953125 500.707031 900.207031 C 492.808594 910.960938 488.820312 909.984375 482.652344 908.277344 C 483.484375 902.585938 495.074219 907.792969 492.085938 883.609375 C 489.859375 893.597656 489.085938 899.324219 481.597656 897.296875 C 475.621094 895.6875 491.871094 890.703125 491.382812 876.417969 C 488.648438 881.015625 486.21875 884.660156 480.628906 884.925781 C 477.917969 885.058594 477.671875 871.261719 477.203125 868.125 C 475.011719 883.671875 473.667969 883.65625 466.871094 876.3125 C 467.734375 882.117188 470.535156 883.578125 472.207031 886.886719 C 474.023438 890.457031 474.351562 894.390625 474.390625 899.628906 C 469.550781 900.933594 465.164062 895.050781 462.949219 887.023438 C 462.988281 897.617188 462.800781 901.78125 473.136719 912.652344 C 466.277344 912.679688 460.835938 905.671875 456.71875 898.265625 C 458.324219 910.28125 462.863281 913.046875 472.136719 923.570312 C 464.410156 922.660156 460.570312 921.464844 452.261719 913.066406 C 459.273438 930.480469 461.96875 929.113281 471.09375 934.660156 C 464.328125 939.25 457.351562 940.847656 451.828125 927.816406 C 454.476562 944.515625 452.902344 945.023438 466.515625 951.300781 C 454.042969 953.390625 455.351562 953.523438 447.324219 942.707031 C 452.339844 959.988281 451.742188 959.441406 466.570312 966.417969 C 463.265625 978.335938 449.976562 986.300781 437.1875 952.542969 C 441.429688 985.847656 444.316406 984.824219 463.035156 990.59375 C 457.128906 994.777344 449.355469 995.519531 442.101562 993.769531 L 442.492188 993.101562 L 441.730469 993.675781 C 435.410156 992.066406 429.511719 988.582031 425.640625 983.835938 C 430.070312 991.265625 431.988281 996.011719 433.582031 999.464844 C 415.253906 1011.53125 402.679688 1012.691406 390.011719 1004.460938 C 417.71875 1001.5 416.136719 985.257812 426.804688 968.476562 C 407.886719 981.300781 409.359375 985.191406 389.230469 978.066406 C 413.933594 966.183594 412.570312 962.90625 423.113281 939.722656 C 402.914062 954.421875 394.4375 953.984375 384.289062 944.65625 C 413.273438 932.523438 403.269531 934.140625 418.105469 909.273438 C 408.605469 920.898438 388.402344 925.890625 375.757812 916.929688 C 396.960938 910.390625 400.21875 911.554688 405.023438 873.828125 C 390.539062 912.0625 375.484375 903.039062 371.75 889.546875 C 388.535156 881.640625 387.867188 882.265625 393.546875 862.695312 C 384.449219 874.945312 385.933594 874.796875 371.808594 872.421875 C 387.226562 865.3125 385.441406 864.738281 388.445312 845.828125 C 382.191406 860.59375 374.289062 858.773438 366.625 853.574219 C 376.957031 847.292969 380.011719 848.839844 387.953125 829.128906 C 378.546875 838.632812 374.195312 839.988281 365.441406 841.019531 C 375.949219 829.101562 381.085938 825.96875 382.910156 812.359375 C 378.25 820.738281 372.082031 828.691406 364.3125 828.660156 C 376.019531 816.339844 375.808594 811.621094 375.847656 799.640625 C 373.34375 808.71875 368.375 815.378906 362.894531 813.898438 C 362.9375 807.980469 363.3125 803.519531 365.363281 799.46875 C 367.261719 795.71875 370.429688 794.070312 371.40625 787.5 C 363.710938 795.808594 362.191406 795.828125 359.703125 778.230469 C 359.179688 781.78125 358.898438 797.398438 355.835938 797.261719 C 349.5 796.960938 346.746094 792.820312 343.65625 787.621094 C 343.101562 803.789062 361.496094 809.449219 354.730469 811.269531 C 346.25 813.558594 345.375 807.070312 342.851562 795.761719 C 339.46875 823.148438 352.59375 817.261719 353.539062 823.691406 C 346.550781 825.628906 342.035156 826.738281 333.09375 814.558594 C 338.757812 833.53125 341.074219 835.636719 352.574219 833.769531 C 339.285156 841.878906 339.40625 843.339844 328.472656 832.582031 C 339.359375 857.761719 341.320312 845.804688 351.289062 851.421875 C 340.21875 859.085938 335.609375 858.628906 323.644531 846.0625 C 343.6875 894.117188 353.019531 858.820312 351.722656 870.753906 C 340.011719 880.1875 330.988281 884.519531 318.4375 867.40625 C 327.359375 897.824219 335.257812 889.636719 346.414062 893.136719 C 331.703125 901.660156 334.292969 907.472656 317.933594 889.304688 C 331.253906 931.828125 333.597656 910.4375 343.402344 921.425781 C 314.179688 925.722656 319.945312 928.589844 305.28125 905.351562 C 313.367188 942.671875 315.519531 937.257812 341.464844 939.851562 C 337.484375 951.019531 320.902344 951.371094 298.914062 936.511719 C 316.148438 965.011719 328.40625 955.734375 337.351562 964.375 C 312.484375 968.515625 312.402344 973.113281 291.304688 951.074219 C 310.039062 996.945312 332.234375 976.796875 333.109375 989.257812 C 296.625 988.582031 309.421875 994.402344 280.207031 971.894531 C 298.855469 1012.628906 305.472656 1007.078125 326.832031 1015.191406 C 307.75 1025.5 302.015625 1021.601562 270.59375 990.601562 C 301.566406 1054.109375 299.730469 1036.511719 318.703125 1043.121094 C 312.6875 1044.179688 307.421875 1045.121094 302.640625 1045.640625 C 298.003906 1044.429688 293.320312 1044.460938 288.554688 1045.398438 C 280.632812 1043.859375 273.628906 1039.269531 265.621094 1029.191406 C 266.183594 1028.019531 266.753906 1026.789062 267.34375 1025.5 L 264.480469 1027.730469 C 262.097656 1024.601562 259.621094 1021 257.003906 1016.851562 C 257.71875 1022.269531 258.621094 1027.128906 259.679688 1031.5 C 244.355469 1043.660156 249.484375 1039.878906 222.027344 1040.371094 C 222.777344 1029.710938 241.785156 1046.96875 257.839844 1007.671875 C 239.769531 1026.550781 239.695312 1022.621094 218.390625 1019.058594 C 226.058594 1011.660156 236.558594 1019.609375 251.316406 995.207031 C 232.480469 1007.921875 218.28125 1007.628906 214.871094 998.054688 C 237.09375 995.835938 238.929688 1000.480469 245.859375 968.5 C 233.304688 988.414062 238.246094 985.957031 213.210938 982.273438 C 221.601562 972.863281 223.617188 991.1875 235.023438 954.757812 C 221.011719 970.324219 223.230469 965.339844 210.621094 958.042969 C 220.183594 955.046875 226.949219 962.0625 234.59375 935.996094 C 223.84375 950.660156 216.121094 946.953125 206.078125 938.867188 C 204.96875 928.648438 212.96875 958.886719 230.128906 917.726562 C 219.878906 928.488281 215.9375 928.878906 206.441406 922.308594 C 214.992188 917.5 216.671875 927.738281 225.996094 906.179688 C 216.628906 915.386719 216.734375 914.144531 205.355469 907.191406 C 215.203125 908.78125 217.191406 906.980469 222.042969 890.730469 C 214.382812 901.175781 210.511719 900.222656 204.523438 898.558594 C 205.328125 893.042969 216.574219 898.097656 213.679688 874.632812 C 211.523438 884.324219 210.769531 889.882812 203.507812 887.914062 C 197.710938 886.351562 213.464844 881.515625 212.996094 867.65625 C 210.34375 872.121094 207.988281 875.652344 202.5625 875.914062 C 199.933594 876.042969 199.695312 862.65625 199.246094 859.609375 C 197.113281 874.695312 195.808594 874.679688 189.214844 867.5625 C 190.054688 873.1875 192.773438 874.609375 194.398438 877.808594 C 196.15625 881.28125 196.476562 885.097656 196.511719 890.179688 C 191.820312 891.441406 187.558594 885.730469 185.417969 877.949219 C 185.445312 888.21875 185.269531 892.269531 195.300781 902.808594 C 188.640625 902.839844 183.363281 896.03125 179.367188 888.855469 C 180.929688 900.511719 185.335938 903.1875 194.328125 913.402344 C 186.828125 912.511719 183.105469 911.355469 175.046875 903.214844 C 181.847656 920.101562 184.46875 918.777344 193.316406 924.160156 C 186.753906 928.613281 179.988281 930.164062 174.625 917.515625 C 177.199219 933.71875 175.667969 934.207031 188.867188 940.304688 C 176.773438 942.332031 178.042969 942.457031 170.257812 931.972656 C 175.121094 948.730469 174.546875 948.195312 188.929688 954.96875 C 185.722656 966.527344 172.835938 974.253906 160.425781 941.507812 C 164.542969 973.816406 167.335938 972.824219 185.492188 978.425781 C 174.664062 986.101562 157.355469 981.820312 149.222656 971.863281 C 161.925781 993.167969 153.359375 991.777344 178.1875 1002.179688 C 169.492188 1010.160156 162.234375 1010.539062 144.925781 997.949219 C 153.960938 1017.808594 152.800781 1020.609375 173.957031 1030.800781 C 156.710938 1036.898438 157.96875 1033.558594 141.769531 1022.578125 C 150.90625 1036.949219 149.550781 1050.859375 173.28125 1053.398438 C 161.578125 1061.011719 149.96875 1059.25 132.160156 1046.511719 L 133.828125 1041.910156 C 132.957031 1043.179688 132.039062 1044.460938 131.085938 1045.730469 C 130.183594 1045.078125 129.265625 1044.378906 128.332031 1043.671875 C 128.976562 1044.78125 129.601562 1045.859375 130.210938 1046.878906 C 119.859375 1060.339844 105.402344 1072.78125 91.761719 1063.601562 C 107.109375 1045.371094 109.742188 1061.238281 132.734375 1021.378906 C 111.050781 1037.960938 97.59375 1040.75 84.019531 1031.929688 C 109.734375 1029.171875 108.269531 1014.101562 118.167969 998.523438 C 100.613281 1010.429688 101.980469 1014.039062 83.292969 1007.429688 C 106.222656 996.394531 104.957031 993.347656 114.75 971.824219 C 96 985.472656 88.128906 985.074219 78.703125 976.414062 C 105.613281 965.148438 96.332031 966.648438 110.09375 943.566406 C 101.28125 954.351562 82.523438 958.984375 70.789062 950.667969 C 90.464844 944.601562 93.492188 945.679688 97.957031 910.664062 C 84.507812 946.15625 70.539062 937.777344 67.0625 925.257812 C 82.65625 917.914062 82.03125 918.492188 87.300781 900.328125 C 78.859375 911.695312 80.238281 911.5625 67.125 909.359375 C 81.433594 902.757812 79.777344 902.226562 82.5625 884.667969 C 76.753906 898.375 69.417969 896.6875 62.3125 891.863281 C 71.902344 886.035156 74.734375 887.46875 82.105469 869.171875 C 73.375 877.996094 69.339844 879.246094 61.210938 880.203125 C 70.957031 869.140625 75.738281 866.234375 77.429688 853.601562 C 73.09375 861.390625 67.375 868.757812 60.160156 868.722656 C 71.027344 857.308594 70.832031 852.914062 70.871094 841.785156 C 68.546875 850.21875 63.9375 856.410156 58.84375 855.035156 C 58.882812 849.535156 59.226562 845.394531 61.136719 841.636719 C 62.898438 838.164062 65.839844 836.625 66.75 830.519531 C 59.601562 838.242188 58.195312 838.257812 55.882812 821.921875 C 55.394531 825.210938 55.132812 839.71875 52.289062 839.582031 C 46.410156 839.304688 43.855469 835.46875 40.984375 830.628906 C 40.472656 845.648438 57.546875 850.894531 51.269531 852.585938 C 43.394531 854.714844 42.585938 848.691406 40.234375 838.195312 C 37.097656 863.621094 49.28125 858.144531 50.164062 864.128906 C 43.671875 865.925781 39.476562 866.953125 31.183594 855.640625 C 36.4375 873.253906 38.589844 875.210938 49.265625 873.476562 C 36.929688 881.007812 37.046875 882.359375 26.890625 872.375 C 37 895.742188 38.824219 884.652344 48.074219 889.859375 C 37.796875 896.980469 33.519531 896.554688 22.414062 884.886719 C 41.015625 929.503906 49.675781 896.734375 48.476562 907.808594 C 37.601562 916.5625 29.230469 920.582031 17.574219 904.703125 C 25.863281 932.9375 33.195312 925.34375 43.546875 928.582031 C 29.890625 936.496094 32.296875 941.898438 17.109375 925.023438 C 29.472656 964.503906 31.652344 944.640625 40.753906 954.839844 C 13.625 958.839844 18.96875 961.5 5.371094 939.921875 C 12.867188 974.5625 14.867188 969.546875 38.953125 971.949219 C 35.289062 982.226562 20.144531 982.632812 0 969.214844 L 0 969.742188 C 15.707031 995.105469 26.921875 986.785156 35.140625 994.714844 C 15.5 997.980469 12.507812 1001.558594 0 989.960938 L 0 997.175781 C 15.277344 1020.210938 30.5 1007.898438 31.195312 1017.820312 C 9.332031 1017.410156 6.53125 1019.519531 0 1015.441406 L 0 1030.890625 C 7.082031 1037.421875 13.960938 1037.558594 25.367188 1041.890625 C 15.109375 1047.441406 9 1048.550781 0 1042.910156 L 0 1063.488281 C 5.207031 1067.191406 9.199219 1064.808594 17.824219 1067.808594 C 10.988281 1069.011719 5.191406 1070.058594 0 1070.410156 L 0 1096.03125 C 2.847656 1096.789062 5.527344 1097.519531 7.917969 1098.511719 C 5.046875 1098.828125 2.421875 1099.109375 0 1099.351562 L 0 1643.359375 L 2976.378906 1643.359375 "/></clipPath><linearGradient id="linear-pattern-2" gradientUnits="userSpaceOnUse" x1="0" y1="0" x2="1" y2="0" gradientTransform="matrix(0, 865.13, 437.833, 0, 1488.19, 778.23)"><stop offset="0" stop-color="rgb(7.687378%, 10.28595%, 14.567566%)" stop-opacity="1"/><stop offset="1" stop-color="rgb(27.319336%, 40.965271%, 73.377991%)" stop-opacity="1"/></linearGradient></defs><g clip-path="url(#clip-3)"><g clip-path="url(#clip-4)"><path fill-rule="nonzero" fill="url(#linear-pattern-2)" d="M 0 778.230469 L 2976.378906 778.230469 L 2976.378906 1643.359375 L 0 1643.359375 Z M 0 778.230469 "/></g></g></svg>