<svg xmlns="http://www.w3.org/2000/svg" xmlns:xlink="http://www.w3.org/1999/xlink" width="2976.38" height="1831.61" viewBox="0 0 2976.38 1831.61"><defs><clipPath id="clip-6"><path clip-rule="evenodd" d="M 1782.359375 1469.601562 C 1786.359375 1471.898438 1790.671875 1474.300781 1795.359375 1476.800781 C 1782.371094 1475.121094 1772.5 1473.738281 1764.351562 1471.761719 C 1770.949219 1471.140625 1776.921875 1470.441406 1782.359375 1469.601562 Z M 1739.699219 1433.511719 C 1740.039062 1434.089844 1740.378906 1434.660156 1740.75 1435.238281 L 1736.371094 1434.761719 C 1737.449219 1434.308594 1738.570312 1433.898438 1739.699219 1433.511719 Z M 1726.171875 1374.480469 L 1726.851562 1378.390625 C 1723.898438 1377.890625 1720.839844 1377.339844 1717.671875 1376.78125 C 1720.800781 1375.691406 1723.609375 1374.980469 1726.171875 1374.480469 Z M 1788.910156 1414.039062 C 1795.828125 1418.25 1804.121094 1422.421875 1814.25 1426.800781 C 1813.28125 1427.660156 1812.320312 1428.480469 1811.371094 1429.238281 C 1782.910156 1436.871094 1770.480469 1436.921875 1760.421875 1427.601562 C 1769.808594 1424.859375 1779.671875 1421.171875 1788.910156 1414.039062 Z M 1751.710938 1368.328125 C 1753.699219 1373.261719 1755.710938 1377.75 1757.910156 1381.921875 C 1749.421875 1381.921875 1740.121094 1380.628906 1729.410156 1378.820312 C 1728.539062 1377.378906 1727.628906 1375.898438 1726.699219 1374.390625 C 1737.320312 1372.449219 1743.71875 1374.230469 1751.710938 1368.328125 Z M 1817.238281 1370.191406 C 1821.21875 1373.429688 1825.578125 1377.679688 1830.570312 1383.601562 C 1823.300781 1388.488281 1815.921875 1390.53125 1808.601562 1390.378906 C 1811.761719 1384.628906 1814.671875 1377.960938 1817.238281 1370.191406 Z M 1773.738281 1339.148438 C 1785.921875 1353.128906 1794.308594 1356.691406 1803.109375 1361.199219 C 1794.679688 1370.101562 1786.691406 1375.558594 1778.328125 1378.621094 C 1771.601562 1373.75 1765.140625 1367.691406 1759.109375 1361.089844 C 1763.210938 1356.179688 1767.921875 1349.179688 1773.738281 1339.148438 Z M 1751.078125 1307.269531 C 1754.671875 1313.089844 1758.011719 1318.199219 1761.128906 1322.699219 C 1738.230469 1340.890625 1726.289062 1340.191406 1703.410156 1327.828125 C 1724.820312 1319.699219 1737.789062 1319.390625 1751.078125 1307.269531 Z M 1798.761719 1291.351562 C 1807.539062 1303.640625 1820.609375 1312.621094 1847.21875 1315.480469 C 1827.988281 1327.96875 1808.859375 1329.628906 1784.710938 1319.109375 C 1788.898438 1311.121094 1793.539062 1301.929688 1798.761719 1291.351562 Z M 1782.03125 1258.640625 C 1787.421875 1269.769531 1791.441406 1280.320312 1797.351562 1289.300781 C 1787.769531 1298.710938 1779.628906 1306.570312 1772.488281 1313 C 1767.179688 1310.019531 1761.621094 1306.519531 1755.769531 1302.488281 C 1763.519531 1293.78125 1771.71875 1280.398438 1782.03125 1258.640625 Z M 2522.421875 1414.328125 C 2517.328125 1418.761719 2512.890625 1422.839844 2508.941406 1426.578125 C 2499.609375 1419.910156 2491.089844 1409.628906 2484.378906 1399.921875 C 2490.28125 1415.980469 2493.570312 1426.671875 2499.929688 1435.28125 C 2495.800781 1439.320312 2492.230469 1442.839844 2488.878906 1445.871094 C 2485.398438 1439.980469 2481.300781 1432.371094 2475.398438 1422.878906 C 2477.738281 1435.769531 2478.449219 1444.929688 2480.609375 1452.550781 C 2476.328125 1455.519531 2471.910156 1457.671875 2466.578125 1459.109375 C 2462.109375 1453.46875 2456.828125 1446.601562 2450.21875 1438.179688 C 2451.179688 1446.230469 2452.820312 1453.789062 2455.371094 1460.960938 C 2441.429688 1462.121094 2421.480469 1460.488281 2388.511719 1456.820312 C 2417.839844 1444.710938 2465.019531 1448.640625 2490.148438 1379.140625 C 2506.308594 1405.730469 2514.421875 1410.269531 2522.421875 1414.328125 Z M 2532.191406 1433.480469 C 2533.648438 1430.449219 2535.140625 1427.289062 2536.660156 1423.988281 C 2538.261719 1425.53125 2539.949219 1427.351562 2541.769531 1429.511719 C 2538.601562 1431.648438 2535.398438 1432.921875 2532.191406 1433.480469 Z M 2516.828125 1461.339844 C 2518.640625 1458.621094 2520.421875 1455.710938 2522.199219 1452.609375 C 2525.378906 1454.238281 2528.929688 1455.871094 2532.910156 1457.550781 C 2526.460938 1459.359375 2521.210938 1460.640625 2516.828125 1461.339844 Z M 472.277344 1382.460938 L 469.769531 1383.53125 L 472.554688 1384.300781 Z M 487 1375.648438 C 483.671875 1377.308594 480.113281 1378.980469 476.324219 1380.679688 C 477.453125 1382.640625 478.484375 1384.460938 479.449219 1386.140625 C 487.835938 1388.300781 494.921875 1389.820312 500.996094 1390.640625 C 494.210938 1386.199219 490.199219 1381.589844 487 1375.648438 Z M 507.804688 1363.53125 C 503.925781 1366.261719 499.601562 1368.929688 494.738281 1371.609375 C 503.859375 1379.101562 514.132812 1382.761719 524.011719 1376.101562 C 517.097656 1367.878906 512.519531 1365.941406 507.804688 1363.53125 Z M 530.359375 1340.921875 C 529.78125 1341.78125 529.195312 1342.621094 528.59375 1343.460938 C 529.914062 1342.808594 531.230469 1342.050781 532.546875 1341.191406 C 531.800781 1341.109375 531.070312 1341.019531 530.359375 1340.921875 Z M 507.648438 1294.441406 C 488.628906 1311.179688 477.476562 1306.160156 454.089844 1333.929688 C 464.566406 1340.980469 475.234375 1342.75 485.71875 1340.839844 C 483.625 1337.609375 481.34375 1333.878906 478.851562 1329.558594 C 483.835938 1333.371094 488.425781 1336.511719 492.703125 1339.03125 C 498.308594 1337.148438 503.828125 1334.320312 509.21875 1330.769531 C 503.277344 1323.75 501.128906 1314.148438 494.90625 1304.371094 C 511.960938 1315.929688 512.820312 1320.398438 526.890625 1316.300781 C 528.085938 1315.140625 529.261719 1313.960938 530.425781 1312.761719 C 516.785156 1305.988281 511.824219 1301.859375 507.648438 1294.441406 Z M 525.703125 1274.339844 C 522.5 1278.578125 519.507812 1282.21875 516.699219 1285.371094 C 525.6875 1288.53125 531.6875 1286.179688 538.402344 1280.011719 C 532.957031 1277.730469 528.863281 1275.921875 525.703125 1274.339844 Z M 542.148438 1250.109375 C 541.011719 1251.941406 539.882812 1253.71875 538.785156 1255.429688 C 541.769531 1254.671875 544.601562 1253.421875 547.132812 1251.628906 C 545.347656 1251.078125 543.691406 1250.578125 542.148438 1250.109375 Z M 1260.558594 1462.921875 C 1264.808594 1461.179688 1269.039062 1459.238281 1273.25 1457.109375 C 1266.890625 1458.851562 1260.871094 1460.25 1255.679688 1462.390625 Z M 1228.070312 1370.71875 L 1228.828125 1369.738281 L 1227.300781 1370.308594 Z M 1098.089844 1339.429688 C 1096.519531 1341.089844 1094.898438 1342.910156 1093.191406 1344.941406 C 1101.488281 1350.53125 1109.929688 1352.398438 1118.261719 1351.550781 C 1108.941406 1348.859375 1102.738281 1344.660156 1098.089844 1339.429688 Z M 1090.019531 1274.621094 C 1085.949219 1275.550781 1081.480469 1276.289062 1076.539062 1276.820312 C 1082.78125 1280.878906 1089 1283.78125 1095.390625 1285.511719 C 1093.589844 1282.351562 1091.890625 1278.789062 1090.019531 1274.621094 Z M 1122.601562 1255.839844 C 1117.96875 1261.480469 1112.148438 1266.289062 1104.109375 1269.960938 C 1119.910156 1277.089844 1129.578125 1273.890625 1140.550781 1263.808594 C 1132.96875 1260.628906 1127.148438 1258.078125 1122.601562 1255.839844 Z M 1142.421875 1218.578125 C 1140.808594 1221.851562 1139.320312 1225.070312 1137.890625 1228.230469 C 1143.480469 1227.261719 1148.789062 1225.230469 1153.429688 1221.941406 C 1149.339844 1220.671875 1145.691406 1219.601562 1142.421875 1218.578125 Z M 1092.328125 1215.289062 C 1087.378906 1218.019531 1081.660156 1220.910156 1074.980469 1224.121094 C 1086.148438 1228.078125 1093.988281 1230.328125 1100.300781 1230.980469 C 1098.390625 1226.789062 1095.949219 1221.710938 1092.328125 1215.289062 Z M 1116.941406 1197.230469 C 1111.511719 1203.289062 1104.410156 1208.550781 1093.5 1214.648438 C 1100.070312 1220.78125 1108.738281 1225.25 1117.878906 1227.421875 C 1122.609375 1224.839844 1127.730469 1220.96875 1134.660156 1215.871094 C 1125.929688 1212.351562 1120.761719 1207.898438 1116.941406 1197.230469 Z M 1135.078125 1164.558594 C 1131.140625 1173.558594 1128.019531 1180.609375 1124.558594 1186.578125 C 1140.839844 1207.820312 1155.160156 1196.179688 1159.480469 1180.601562 C 1144.921875 1173.75 1139.058594 1171.140625 1135.078125 1164.558594 Z M 1978.800781 1155.460938 C 1970.800781 1154.949219 1959.21875 1152.480469 1940.28125 1149.691406 C 1953.539062 1134.820312 1959.96875 1149.621094 1971 1134.320312 C 1973.558594 1143.511719 1976.03125 1150.339844 1978.800781 1155.460938 Z M 2010.839844 1141.480469 C 2011.96875 1137.058594 2013.140625 1132.160156 2014.359375 1126.761719 C 2022.609375 1132.71875 2028.921875 1124.351562 2040.03125 1136.800781 C 2027.398438 1138.660156 2018.039062 1140.378906 2010.839844 1141.480469 Z M 1980.859375 1201.710938 C 1961.96875 1205.128906 1948.789062 1199.480469 1944.148438 1186.46875 C 1951.558594 1185.730469 1958 1185.320312 1963.640625 1184.941406 C 1969.710938 1192.5 1975.441406 1197.839844 1980.859375 1201.710938 Z M 2024.820312 1186.601562 C 2026.230469 1184.460938 2027.660156 1182.210938 2029.109375 1179.808594 C 2023.519531 1183.601562 2018.089844 1186.878906 2012.878906 1189.691406 C 2004.050781 1190.328125 1993.179688 1188.261719 1980.800781 1183.179688 C 1989.539062 1181.558594 1995.421875 1178.351562 2000.300781 1170.429688 C 2008.949219 1171.910156 2020.339844 1172.011719 2036.160156 1173.589844 C 2034.050781 1179.5 2030.179688 1183.890625 2024.820312 1186.601562 Z M 1971.320312 1226.308594 C 1980.511719 1223.941406 1991 1221.699219 2003 1211.871094 C 2012.53125 1214.460938 2020.769531 1215.621094 2027.949219 1222.550781 C 1997.488281 1227.628906 1985.648438 1233.03125 1971.320312 1226.308594 Z M 1958.769531 1236.550781 C 1956.730469 1236.179688 1954.589844 1235.808594 1952.359375 1235.441406 C 1953.460938 1234.371094 1954.578125 1233.449219 1955.730469 1232.640625 C 1956.738281 1234.011719 1957.761719 1235.308594 1958.769531 1236.550781 Z M 1987.839844 1272.378906 C 1994.148438 1270.761719 2001.191406 1267.898438 2008.578125 1262.238281 C 2014.949219 1263.308594 2018.980469 1265.078125 2019.46875 1272.230469 C 2005.910156 1271.980469 1995.761719 1272.179688 1987.839844 1272.378906 Z M 1982.519531 1333.671875 C 1987.25 1332.101562 1991.601562 1330.800781 1995.660156 1329.558594 C 1990.988281 1331.558594 1986.679688 1332.949219 1982.519531 1333.671875 Z M 2167 1354.328125 C 2172.601562 1358.269531 2178.789062 1363.78125 2186.210938 1372.589844 C 2183.75 1374.238281 2181.289062 1375.601562 2178.820312 1376.691406 C 2169.179688 1378.660156 2159.359375 1377.191406 2149.738281 1370.710938 C 2156.421875 1362.78125 2161.96875 1357.851562 2167 1354.328125 Z M 2172.929688 1287.980469 C 2181.148438 1291.898438 2191.480469 1294.730469 2204.878906 1296.171875 C 2184.359375 1309.5 2163.941406 1311.828125 2138.679688 1301.859375 C 2154.628906 1299.460938 2165.21875 1294.578125 2172.929688 1287.980469 Z M 2138.300781 1246.570312 C 2139.328125 1248.820312 2140.359375 1251.039062 2141.398438 1253.210938 C 2138.421875 1252.269531 2135.148438 1251.179688 2131.519531 1249.898438 C 2133.898438 1248.75 2136.148438 1247.648438 2138.300781 1246.570312 Z M 2203.621094 1235.578125 L 2206.640625 1237.050781 C 2204.988281 1237.628906 2203.410156 1238.179688 2201.878906 1238.699219 C 2202.441406 1237.660156 2203.019531 1236.621094 2203.621094 1235.578125 Z M 2175.730469 1220.328125 C 2182.371094 1224.671875 2190.621094 1229.171875 2201.21875 1234.410156 C 2197.089844 1237.308594 2193.5 1239.949219 2190.300781 1242.308594 C 2173.199219 1246.980469 2165.339844 1245.371094 2154.089844 1238.089844 C 2164.199219 1232.101562 2170.660156 1226.75 2175.730469 1220.328125 Z M 2141.160156 1174.679688 C 2145 1183.371094 2148.230469 1190.339844 2151.839844 1196.339844 C 2140.53125 1197.078125 2131.488281 1192.230469 2121.660156 1183.199219 C 2129.480469 1179.921875 2135.871094 1177.148438 2141.160156 1174.679688 Z M 2174.601562 1140.390625 C 2181.980469 1146.480469 2194.039062 1152.308594 2217.710938 1162.21875 C 2211.21875 1168.179688 2205.03125 1172.519531 2198.460938 1174.910156 L 2199.171875 1173.320312 C 2198.011719 1174.160156 2196.878906 1174.96875 2195.761719 1175.769531 C 2184.679688 1178.851562 2172.269531 1176.46875 2155.359375 1167.148438 C 2166.441406 1160.058594 2168.449219 1153.921875 2174.601562 1140.390625 Z M 2151.171875 1099.441406 C 2158.761719 1114.089844 2161.878906 1123.171875 2165.929688 1130.109375 C 2146.210938 1139.261719 2121.890625 1140.058594 2104.621094 1127.820312 C 2130.699219 1119.78125 2143.179688 1117.570312 2151.171875 1099.441406 Z M 608.054688 1270.371094 C 611.582031 1273.128906 614.449219 1275.28125 616.984375 1276.96875 C 619.792969 1275.46875 622.71875 1273.710938 625.753906 1271.660156 C 624.011719 1274.550781 622.324219 1277.039062 620.683594 1279.21875 C 631.558594 1285.089844 638.660156 1281.648438 677.316406 1282.359375 C 676 1263.648438 647.28125 1286.871094 618.4375 1243.429688 C 614.871094 1259.339844 612.339844 1266.738281 608.054688 1270.371094 Z M 587.058594 1257.289062 C 586.371094 1255.839844 585.679688 1254.351562 584.976562 1252.820312 C 583.566406 1253.28125 582.019531 1254.21875 580.238281 1256.230469 C 582.753906 1256.601562 585.007812 1256.960938 587.058594 1257.289062 Z M 600.324219 1283.011719 C 598.730469 1280.261719 597.074219 1277.289062 595.378906 1274.058594 C 591.789062 1274.351562 587.484375 1274.550781 582.21875 1275.078125 C 584.535156 1281.578125 591.023438 1284.5 600.324219 1283.011719 Z M 614.097656 1302.660156 C 611.488281 1299.75 608.828125 1296.308594 606.0625 1292.191406 C 598.164062 1296.078125 591.730469 1295.050781 586.425781 1300.171875 C 601.074219 1302.609375 607.324219 1305.210938 614.097656 1302.660156 Z M 629.578125 1335.179688 C 634.910156 1336.929688 639.953125 1337.199219 645.285156 1336.230469 C 648.171875 1333.460938 651.300781 1330.390625 654.734375 1327 C 653.394531 1329.75 652.121094 1332.339844 650.894531 1334.800781 C 655.578125 1333.28125 660.601562 1330.921875 666.304688 1327.839844 C 655.621094 1323.78125 647.046875 1321.671875 639.480469 1319.058594 C 635.828125 1326.160156 632.613281 1331.320312 629.578125 1335.179688 Z M 604.285156 1319.179688 C 607.253906 1321.679688 610.035156 1323.898438 612.675781 1325.839844 C 621.558594 1325.941406 623.230469 1324.941406 633.523438 1316.800781 C 628.992188 1314.851562 624.761719 1312.441406 620.535156 1308.921875 C 614.707031 1315.480469 609.066406 1318 604.285156 1319.179688 Z M 607.039062 1356.5 C 605.683594 1354.628906 604.253906 1352.550781 602.746094 1350.21875 C 601.003906 1350.789062 599.160156 1351.429688 597.191406 1352.171875 C 600.871094 1354.160156 604.066406 1355.628906 607.039062 1356.5 Z M 612.363281 1381.921875 C 622.949219 1381.851562 634.8125 1379.820312 649.089844 1377.308594 C 649.539062 1376.96875 649.992188 1376.621094 650.445312 1376.238281 C 640.949219 1373.21875 634.511719 1373.640625 628.699219 1372.730469 C 622.078125 1380.03125 618.152344 1377.839844 610.121094 1379.460938 L 609.546875 1381.441406 Z M 908.90625 1418.53125 C 908.617188 1419.210938 908.320312 1419.890625 908.023438 1420.550781 L 912.855469 1420.019531 C 911.574219 1419.488281 910.257812 1419 908.90625 1418.53125 Z M 825.148438 1449.320312 L 822.621094 1450.691406 L 826.757812 1450.140625 C 826.210938 1449.871094 825.679688 1449.601562 825.148438 1449.320312 Z M 873.828125 1407.960938 C 871.390625 1413.609375 867.929688 1418.769531 862.597656 1424.039062 C 868.8125 1424.019531 876.171875 1423.601562 885.089844 1422.839844 C 887.414062 1420.160156 889.886719 1417.171875 892.578125 1413.839844 C 886.527344 1412.210938 880.191406 1410.449219 873.828125 1407.960938 Z M 841.6875 1385.648438 C 835.28125 1391.558594 826.925781 1396.941406 815.308594 1402.550781 C 819.496094 1406.640625 823.054688 1410.089844 826.472656 1412.941406 C 843.570312 1415.640625 851.0625 1412 859.101562 1400.648438 C 853.078125 1396.878906 847.195312 1392.039062 841.6875 1385.648438 Z M 820.816406 1346.621094 C 812.234375 1351.109375 804.199219 1353.988281 791.703125 1368.828125 C 804.59375 1377.519531 817.871094 1375.96875 830.367188 1369.070312 C 826.882812 1362.640625 823.664062 1355.21875 820.816406 1346.621094 Z M 863.378906 1298.75 C 851.871094 1317.71875 843.308594 1328.648438 836.199219 1335.539062 C 842.042969 1341.808594 847.699219 1346.628906 853.367188 1350.25 C 859.925781 1343.21875 865.9375 1335.421875 871.15625 1327.871094 C 867.355469 1338.21875 864.335938 1346.960938 861.308594 1354.550781 C 868.417969 1357.738281 875.699219 1359.289062 883.550781 1359.71875 L 883.585938 1359.660156 L 883.574219 1359.71875 C 897.785156 1360.488281 913.859375 1357.570312 934.15625 1353.988281 C 902.40625 1342.941406 899.851562 1365.851562 863.378906 1298.75 Z M 838.792969 1250.558594 C 823.027344 1278.28125 823.09375 1304.089844 777.078125 1309.019531 C 788.78125 1316.628906 800.433594 1319.660156 813.539062 1317.730469 C 812.589844 1312.621094 811.726562 1307.25 810.96875 1301.558594 C 814.328125 1306.890625 817.574219 1311.761719 820.726562 1316.210938 C 832.617188 1312.988281 845.8125 1305.960938 861.289062 1294.878906 C 854.898438 1282.941406 847.5 1268.371094 838.792969 1250.558594 Z M 2652.910156 1367.300781 C 2647.128906 1367.308594 2638.800781 1366.78125 2624.410156 1367.039062 C 2625.050781 1357.851562 2634.859375 1362.660156 2647.621094 1356.808594 C 2649.46875 1360.519531 2651.230469 1364.019531 2652.910156 1367.300781 Z M 2677.691406 1355.820312 C 2670.53125 1361.488281 2666.691406 1364.441406 2662.851562 1365.910156 C 2659.300781 1362.601562 2655.460938 1358.921875 2651.300781 1354.859375 C 2656.339844 1351.789062 2661.71875 1346.839844 2667.109375 1338.660156 C 2670.898438 1345.699219 2674.378906 1351.300781 2677.691406 1355.820312 Z M 2670.320312 1399.011719 C 2656.121094 1409.199219 2647.601562 1408.128906 2632.359375 1399.890625 C 2646.148438 1394.648438 2655.078125 1393.910156 2663.660156 1387.601562 C 2666.070312 1391.941406 2668.28125 1395.71875 2670.320312 1399.011719 Z M 2698.699219 1373.550781 C 2694.25 1377.910156 2690.238281 1381.789062 2686.578125 1385.199219 C 2682.878906 1382.941406 2678.898438 1379.980469 2674.429688 1376.238281 C 2677.101562 1372.511719 2679.898438 1367.941406 2682.949219 1362.261719 C 2688.171875 1367.898438 2693.191406 1371.140625 2698.699219 1373.550781 Z M 2693.578125 1388.78125 C 2695.808594 1384.460938 2698.21875 1379.660156 2700.800781 1374.421875 C 2708.128906 1377.289062 2716.441406 1379.089844 2727.238281 1383.191406 C 2713.589844 1390.570312 2704.460938 1393.121094 2693.578125 1388.78125 Z M 2705.320312 1422.980469 C 2703.679688 1424.769531 2702.058594 1426.378906 2700.460938 1427.828125 C 2687.871094 1429.808594 2677.558594 1430.671875 2668.070312 1428.511719 C 2671.429688 1425.769531 2675.230469 1421.078125 2680.238281 1412.960938 C 2689.488281 1423.480469 2695.128906 1421.488281 2705.320312 1422.980469 Z M 2666.070312 1478.191406 C 2663.011719 1477.890625 2659.730469 1477.53125 2656.160156 1477.140625 C 2663.019531 1474.308594 2671.601562 1473.019531 2680.308594 1469.71875 C 2687.039062 1471.589844 2693.410156 1473.03125 2698.859375 1475.269531 C 2684.828125 1476.839844 2674.300781 1477.851562 2666.070312 1478.191406 Z M 209.652344 1464.800781 C 206.128906 1466.648438 202.136719 1468.511719 197.585938 1470.441406 C 202.722656 1471.878906 207.097656 1472.980469 210.882812 1473.730469 C 216.53125 1471.929688 220.710938 1469.378906 222.933594 1466.050781 C 218.28125 1465.648438 213.863281 1465.238281 209.652344 1464.800781 Z M 245.042969 1415.71875 L 243.84375 1419.03125 L 251.78125 1418.160156 C 249.628906 1417.269531 247.378906 1416.46875 245.042969 1415.71875 Z M 227.5625 1410.828125 C 223.566406 1415.871094 220.195312 1419.199219 217.152344 1421.609375 C 224.25 1421.039062 232.257812 1420.269531 241.390625 1419.300781 C 242.371094 1418.019531 243.316406 1416.738281 244.230469 1415.460938 C 239.003906 1413.820312 233.394531 1412.398438 227.5625 1410.828125 Z M 191.496094 1396.449219 C 187.75 1397.699219 183.363281 1398.628906 178.152344 1399.191406 C 187.71875 1405.398438 197.238281 1407.378906 208.28125 1404.738281 C 202.664062 1402.570312 197.023438 1399.910156 191.496094 1396.449219 Z M 219.074219 1319.378906 C 212.617188 1333.769531 209.785156 1341.800781 204.140625 1348.300781 C 223.777344 1353.398438 245.59375 1349.378906 275.679688 1344.089844 C 248.136719 1334.5 240.175781 1347.679688 219.074219 1319.378906 Z M 204.367188 1296.558594 C 198.191406 1310.160156 198.566406 1311.851562 170.902344 1323.449219 C 183.464844 1334.988281 194.007812 1335.769531 218.355469 1318.421875 C 214.261719 1312.828125 209.675781 1305.691406 204.367188 1296.558594 Z M 189.785156 1269.960938 C 184.722656 1281.789062 176.816406 1283.171875 160.09375 1288.320312 C 171.398438 1296.328125 187.464844 1295.53125 200.175781 1289.210938 C 196.976562 1283.480469 193.523438 1277.089844 189.785156 1269.960938 Z M 175.027344 1240.921875 C 171.695312 1245.910156 166.679688 1248.148438 155.027344 1253.640625 C 158.628906 1266.648438 170.523438 1276.359375 184.089844 1258.941406 C 181.230469 1253.339844 178.214844 1247.339844 175.027344 1240.921875 Z M 81.175781 1446.390625 C 79.710938 1447.851562 78.355469 1449.019531 77.066406 1449.988281 C 80.445312 1449.441406 84.027344 1448.808594 87.835938 1448.128906 C 85.363281 1447.28125 83.167969 1446.730469 81.175781 1446.390625 Z M 53.078125 1430.261719 C 51 1430.730469 48.71875 1431.109375 46.199219 1431.378906 C 48.359375 1432.789062 50.523438 1433.921875 52.714844 1434.789062 C 51.253906 1432.101562 50.71875 1430.75 51.144531 1431.191406 C 52.664062 1432.789062 54.296875 1434.359375 56.035156 1435.878906 C 56.492188 1436.011719 56.949219 1436.109375 57.417969 1436.210938 C 56.074219 1434.550781 54.640625 1432.589844 53.078125 1430.261719 Z M 77.804688 1406.109375 C 75.824219 1410.441406 74.046875 1414.519531 71.667969 1418.101562 C 80.035156 1420.800781 87.425781 1418.558594 98.132812 1412.78125 C 89.964844 1409.671875 83.5 1408.140625 77.804688 1406.109375 Z M 61.285156 1395.53125 C 58.179688 1397.75 54.210938 1400.011719 48.902344 1402.660156 C 50.6875 1404.261719 52.375 1405.730469 53.996094 1407.078125 C 62 1409.078125 65.414062 1407.738281 71.515625 1403.410156 C 68.015625 1401.578125 64.695312 1399.160156 61.285156 1395.53125 Z M 78.953125 1367.589844 C 76.707031 1372.609375 75.011719 1376.648438 73.425781 1380.039062 C 78.757812 1380.488281 86.234375 1379.761719 101.128906 1379.871094 C 100.179688 1377.769531 99.21875 1375.628906 98.242188 1373.441406 C 93.335938 1372.71875 86.519531 1372.289062 78.953125 1367.589844 Z M 44.15625 1368.578125 L 40.335938 1370.191406 C 42.816406 1372.480469 45.203125 1374.230469 47.671875 1375.390625 C 46.535156 1373.28125 45.367188 1371.011719 44.15625 1368.578125 Z M 64.921875 1353.800781 C 62.335938 1358.960938 59.761719 1361.488281 49.605469 1366.171875 C 55.066406 1370.488281 58.832031 1373.519531 61.894531 1375.621094 C 66.308594 1374.089844 71.4375 1371.210938 77.722656 1366.800781 C 73.597656 1364.019531 69.269531 1359.929688 64.921875 1353.800781 Z M 2853.671875 1454.039062 C 2851.21875 1453.421875 2848.601562 1452.71875 2845.800781 1451.929688 C 2847.828125 1451.070312 2849.769531 1450.21875 2851.609375 1449.378906 Z M 2884.511719 1454.589844 C 2878.851562 1457.839844 2871.640625 1458 2859.761719 1455.460938 C 2857.398438 1453.53125 2854.78125 1451.46875 2851.851562 1449.269531 C 2862.789062 1444.28125 2870.640625 1439.558594 2876.628906 1434.441406 C 2878.75 1442.820312 2881.449219 1449.398438 2884.511719 1454.589844 Z M 2905.421875 1425.601562 C 2901.339844 1432.699219 2898.128906 1438.511719 2895.148438 1443.128906 C 2890.71875 1440.25 2886.289062 1435.960938 2881.511719 1429.738281 C 2887.441406 1423.289062 2891.261719 1415.949219 2895.03125 1406.550781 C 2899.121094 1414.539062 2902.519531 1420.769531 2905.421875 1425.601562 Z M 2913.550781 1415.28125 C 2913.800781 1413.769531 2914.070312 1412.210938 2914.359375 1410.601562 C 2913.601562 1411.828125 2912.859375 1413.039062 2912.140625 1414.21875 C 2907.941406 1410.949219 2903.101562 1406.558594 2897.210938 1400.910156 C 2899.058594 1395.980469 2900.980469 1390.519531 2903.230469 1384.410156 C 2918.089844 1412.890625 2925.589844 1409.210938 2945.039062 1416.589844 C 2932.441406 1423.398438 2925.519531 1424.148438 2913.550781 1415.28125 Z M 2907.601562 1447.789062 C 2908.949219 1443.558594 2909.851562 1438.941406 2910.699219 1433.640625 C 2919.300781 1445.300781 2923.121094 1441.929688 2932.558594 1443.980469 L 2930.839844 1446.179688 C 2921.691406 1447.738281 2914.289062 1448.730469 2907.601562 1447.789062 Z M 2883.03125 1476.539062 C 2888.019531 1473.199219 2892.019531 1470.070312 2895.28125 1467 C 2899.269531 1470.050781 2903.460938 1472.019531 2907.578125 1473.46875 C 2904.070312 1476.699219 2900.710938 1479.121094 2897.039062 1481 C 2890.578125 1480.710938 2886.78125 1479.320312 2883.03125 1476.539062 Z M 1353.140625 1445.398438 C 1363.398438 1450.050781 1374.351562 1448.011719 1390.550781 1445.160156 C 1376.460938 1440.238281 1373.589844 1448.398438 1360.929688 1428.320312 C 1358.140625 1434.609375 1355.578125 1440.28125 1353.140625 1445.398438 Z M 1334.78125 1474.871094 C 1343.03125 1481.980469 1349.210938 1482.378906 1379.628906 1478.988281 C 1369.789062 1474.921875 1355.53125 1474.820312 1344.101562 1462.429688 C 1341.121094 1467.28125 1338.089844 1471.390625 1334.78125 1474.871094 Z M 1510.5 1475.371094 C 1512.929688 1477.011719 1515.46875 1478.640625 1518.089844 1480.261719 C 1513.738281 1483.519531 1509.261719 1485.148438 1502.671875 1486.398438 C 1499.878906 1486.308594 1497.078125 1486.171875 1494.28125 1485.988281 C 1501.371094 1482.03125 1506.601562 1478.609375 1510.5 1475.371094 Z M 1489.160156 1458.511719 C 1492.128906 1461.289062 1495.308594 1464.03125 1498.710938 1466.738281 C 1494.140625 1466.898438 1488.070312 1465.648438 1479.210938 1463.171875 C 1482.980469 1461.578125 1486.269531 1460.03125 1489.160156 1458.511719 Z M 1472.679688 1439.769531 C 1473.148438 1440.441406 1473.640625 1441.101562 1474.121094 1441.761719 C 1473.429688 1441.398438 1472.738281 1440.988281 1472.050781 1440.519531 Z M 1545.691406 1449.929688 L 1547.101562 1450.691406 L 1545.609375 1450.488281 Z M 1525.179688 1437.96875 C 1530.648438 1441.5 1537.058594 1445.238281 1544.589844 1449.339844 L 1543.859375 1450.261719 C 1535.929688 1449.21875 1529.371094 1448.269531 1523.75 1447.121094 C 1524.160156 1444.351562 1524.609375 1441.328125 1525.179688 1437.96875 Z M 1513.609375 1429.761719 C 1516.691406 1432.21875 1520.230469 1434.75 1524.300781 1437.398438 C 1522.359375 1440.558594 1520.679688 1443.460938 1519.179688 1446.089844 C 1514.960938 1445.03125 1511.28125 1443.78125 1507.851562 1442.191406 C 1510.03125 1438.621094 1511.78125 1434.570312 1513.609375 1429.761719 Z M 1501.390625 1417.488281 C 1503.761719 1420.691406 1506.699219 1423.839844 1510.378906 1427.058594 C 1507.050781 1430.898438 1503.449219 1434.480469 1499.660156 1437.339844 C 1496.148438 1434.78125 1492.691406 1431.601562 1488.929688 1427.609375 C 1492.550781 1425.710938 1496.339844 1423.339844 1501.390625 1417.488281 Z M 1490.851562 1389.230469 C 1492.03125 1396.101562 1493.390625 1401.988281 1495.660156 1407.421875 C 1487.730469 1410.890625 1480.871094 1411.808594 1474.359375 1410.351562 C 1472.921875 1408.539062 1471.410156 1406.628906 1469.839844 1404.609375 C 1481.660156 1402.050781 1486.921875 1396.390625 1490.851562 1389.230469 Z M 1486.53125 1361.878906 C 1487.539062 1367.589844 1488.320312 1372.769531 1489.019531 1377.5 C 1480.960938 1383.25 1477.640625 1383.890625 1462.710938 1378.609375 C 1476.460938 1371.988281 1482.308594 1367.980469 1486.53125 1361.878906 Z M 2272.78125 789.410156 C 2267.199219 828.839844 2263.800781 828.800781 2246.558594 810.179688 C 2248.75 824.898438 2255.839844 828.609375 2260.101562 836.992188 C 2264.699219 846.070312 2265.53125 856.050781 2265.628906 869.324219 C 2253.351562 872.640625 2242.21875 857.699219 2236.609375 837.355469 C 2236.699219 864.210938 2236.230469 874.796875 2262.460938 902.359375 C 2245.039062 902.441406 2231.238281 884.648438 2220.789062 865.863281 C 2224.878906 896.355469 2236.398438 903.355469 2259.910156 930.054688 C 2240.308594 927.746094 2230.570312 924.71875 2209.5 903.425781 C 2227.28125 947.585938 2234.121094 944.121094 2257.269531 958.1875 C 2240.109375 969.84375 2222.410156 973.90625 2208.390625 940.835938 C 2215.121094 983.195312 2211.121094 984.484375 2245.648438 1000.398438 C 2214.011719 1005.71875 2217.328125 1006.050781 2196.96875 978.609375 C 2209.691406 1022.449219 2208.191406 1021.050781 2245.789062 1038.761719 C 2237.410156 1068.980469 2203.699219 1089.199219 2171.261719 1003.558594 C 2182.03125 1088.050781 2189.328125 1085.460938 2236.820312 1100.089844 C 2212.851562 1117.070312 2176.75 1111.679688 2153.328125 1093.839844 C 2157.140625 1082.570312 2159.929688 1066.28125 2163.058594 1041.769531 C 2134.140625 1118.109375 2104.089844 1100.089844 2096.621094 1073.160156 C 2130.148438 1057.359375 2128.800781 1058.609375 2140.140625 1019.539062 C 2121.988281 1043.988281 2124.949219 1043.699219 2096.738281 1038.960938 C 2127.53125 1024.769531 2123.960938 1023.621094 2129.960938 985.867188 C 2117.460938 1015.339844 2101.691406 1011.71875 2086.390625 1001.339844 C 2107.019531 988.796875 2113.121094 991.882812 2128.980469 952.527344 C 2110.191406 971.496094 2101.511719 974.203125 2084.039062 976.261719 C 2105 952.464844 2115.261719 946.21875 2118.910156 919.046875 C 2109.589844 935.785156 2097.289062 951.644531 2081.761719 951.578125 C 2105.148438 927.007812 2104.730469 917.570312 2104.800781 893.628906 C 2099.808594 911.765625 2089.890625 925.082031 2078.941406 922.125 C 2079.03125 910.292969 2079.769531 901.40625 2083.871094 893.308594 C 2087.660156 885.828125 2093.988281 882.527344 2095.941406 869.414062 C 2080.570312 886.003906 2077.539062 886.050781 2072.570312 850.890625 C 2071.53125 857.980469 2070.96875 889.183594 2064.839844 888.890625 C 2052.199219 888.285156 2046.699219 880.042969 2040.519531 869.644531 C 2039.421875 901.941406 2076.148438 913.222656 2062.648438 916.863281 C 2045.710938 921.429688 2043.960938 908.480469 2038.921875 885.90625 C 2032.171875 940.597656 2058.378906 928.8125 2060.269531 941.675781 C 2046.308594 945.542969 2037.289062 947.757812 2019.441406 923.429688 C 2030.738281 961.304688 2035.378906 965.507812 2058.339844 961.792969 C 2031.800781 977.992188 2032.050781 980.890625 2010.210938 959.425781 C 2031.949219 1009.679688 2035.871094 985.820312 2055.78125 997.03125 C 2033.660156 1012.339844 2024.46875 1011.421875 2000.589844 986.339844 C 2040.578125 1082.289062 2059.230469 1011.808594 2056.640625 1035.628906 C 2033.25 1054.460938 2015.238281 1063.109375 1990.179688 1028.941406 C 2008 1089.691406 2023.769531 1073.351562 2046.050781 1080.320312 C 2016.660156 1097.328125 2021.839844 1108.949219 1989.179688 1072.660156 C 1999.261719 1104.851562 2006.191406 1118.691406 2011.980469 1124.679688 C 2007.320312 1132.230469 2003.851562 1138.109375 2000.871094 1142.609375 C 1989.171875 1143.191406 1985.25 1139.210938 1976.421875 1125 C 1980.53125 1116.640625 1985.308594 1104.148438 1991.128906 1085.550781 C 1978.699219 1099.351562 1971.761719 1106.21875 1966.300781 1108.5 L 1963.921875 1104.699219 L 1964.859375 1109 C 1956.820312 1111.269531 1951.46875 1103.171875 1934.261719 1093.210938 C 1956.539062 1086.230469 1972.308594 1102.570312 1990.128906 1041.828125 C 1965.070312 1076 1947.070312 1067.351562 1923.671875 1048.519531 C 1921.089844 1024.691406 1939.71875 1095.171875 1979.730469 999.222656 C 1955.839844 1024.300781 1946.648438 1025.230469 1924.53125 1009.921875 C 1944.441406 998.707031 1948.359375 1022.570312 1970.101562 972.304688 C 1948.261719 993.773438 1948.5 990.878906 1921.96875 974.683594 C 1944.929688 978.394531 1949.558594 974.195312 1960.871094 936.3125 C 1943.019531 960.644531 1934 958.429688 1920.039062 954.5625 C 1921.941406 941.695312 1948.140625 953.472656 1941.390625 898.789062 C 1936.351562 921.371094 1934.601562 934.324219 1917.660156 929.75 C 1904.160156 926.105469 1940.890625 914.828125 1939.789062 882.527344 C 1933.609375 892.933594 1928.109375 901.175781 1915.46875 901.777344 C 1909.339844 902.074219 1908.78125 870.871094 1907.738281 863.773438 C 1902.769531 898.925781 1899.738281 898.894531 1884.371094 882.296875 C 1886.320312 895.414062 1892.648438 898.71875 1896.441406 906.199219 C 1900.539062 914.28125 1901.28125 923.179688 1901.371094 935.011719 C 1890.421875 937.96875 1880.511719 924.65625 1875.511719 906.527344 C 1875.578125 930.449219 1875.160156 939.886719 1898.550781 964.460938 C 1883.019531 964.527344 1870.71875 948.664062 1861.398438 931.9375 C 1865.050781 959.109375 1875.308594 965.34375 1896.269531 989.144531 C 1878.800781 987.085938 1870.121094 984.390625 1851.339844 965.40625 C 1867.191406 1004.769531 1873.28125 1001.679688 1893.921875 1014.21875 C 1878.621094 1024.609375 1862.851562 1028.230469 1850.351562 998.753906 C 1856.351562 1036.511719 1852.78125 1037.660156 1883.570312 1051.851562 C 1855.359375 1056.589844 1858.320312 1056.878906 1840.171875 1032.429688 C 1851.511719 1071.5 1850.171875 1070.25 1883.691406 1086.039062 C 1876.21875 1112.980469 1846.171875 1131 1817.25 1054.660156 C 1826.851562 1129.96875 1833.359375 1127.660156 1875.691406 1140.710938 C 1850.441406 1158.601562 1810.101562 1148.628906 1791.140625 1125.421875 C 1820.75 1175.070312 1800.78125 1171.839844 1858.648438 1196.078125 C 1838.390625 1214.699219 1821.460938 1215.558594 1781.140625 1186.210938 C 1802.199219 1232.511719 1799.46875 1239.039062 1848.789062 1262.789062 C 1808.601562 1277.011719 1811.53125 1269.238281 1773.769531 1243.621094 C 1776.308594 1247.621094 1778.511719 1251.601562 1780.488281 1255.53125 C 1735.269531 1290.738281 1754.339844 1281.210938 1692.398438 1282.359375 C 1693.929688 1260.519531 1732.851562 1295.851562 1765.699219 1215.410156 C 1728.710938 1254.050781 1728.570312 1246 1684.960938 1238.738281 C 1700.660156 1223.578125 1722.140625 1239.851562 1752.359375 1189.890625 C 1713.800781 1215.929688 1684.738281 1215.328125 1677.761719 1195.738281 C 1723.25 1191.191406 1727.019531 1200.691406 1741.191406 1135.238281 C 1715.480469 1176.011719 1725.589844 1170.980469 1674.359375 1163.441406 C 1691.539062 1144.179688 1695.660156 1181.679688 1719.011719 1107.109375 C 1690.328125 1138.96875 1694.871094 1128.78125 1669.070312 1113.839844 C 1688.628906 1107.710938 1702.488281 1122.058594 1718.128906 1068.71875 C 1696.121094 1098.730469 1680.308594 1091.128906 1659.769531 1074.601562 C 1657.5 1053.691406 1673.871094 1115.558594 1708.988281 1031.308594 C 1688.019531 1053.328125 1679.949219 1054.148438 1660.519531 1040.699219 C 1678.011719 1030.859375 1681.449219 1051.808594 1700.539062 1007.679688 C 1681.371094 1026.519531 1681.578125 1023.980469 1658.28125 1009.761719 C 1678.441406 1013.019531 1682.511719 1009.339844 1692.429688 976.070312 C 1676.761719 997.433594 1668.839844 995.492188 1656.589844 992.089844 C 1658.238281 980.804688 1681.261719 991.144531 1675.328125 943.121094 C 1670.898438 962.953125 1669.371094 974.324219 1654.488281 970.308594 C 1642.628906 967.105469 1674.890625 957.203125 1673.921875 928.84375 C 1668.5 937.96875 1663.671875 945.21875 1652.570312 945.746094 C 1647.191406 946.003906 1646.699219 918.605469 1645.78125 912.375 C 1641.421875 943.242188 1638.761719 943.214844 1625.261719 928.636719 C 1626.980469 940.152344 1632.53125 943.058594 1635.859375 949.628906 C 1639.460938 956.730469 1640.109375 964.535156 1640.179688 974.929688 C 1630.570312 977.527344 1621.859375 965.832031 1617.480469 949.90625 C 1617.539062 970.921875 1617.179688 979.210938 1637.710938 1000.789062 C 1624.070312 1000.851562 1613.269531 986.925781 1605.089844 972.21875 C 1608.289062 996.082031 1617.308594 1001.570312 1635.710938 1022.460938 C 1620.371094 1020.648438 1612.75 1018.289062 1596.25 1001.621094 C 1610.171875 1036.179688 1615.53125 1033.46875 1633.640625 1044.480469 C 1620.210938 1053.601562 1606.359375 1056.78125 1595.390625 1030.898438 C 1600.660156 1064.050781 1597.519531 1065.058594 1624.558594 1077.519531 C 1599.789062 1081.691406 1602.390625 1081.941406 1586.449219 1060.46875 C 1596.398438 1094.769531 1595.230469 1093.679688 1624.660156 1107.550781 C 1618.101562 1131.199219 1591.71875 1147.019531 1566.320312 1079.988281 C 1574.75 1146.121094 1580.46875 1144.089844 1617.640625 1155.550781 C 1595.46875 1171.261719 1560.039062 1162.511719 1543.390625 1142.128906 C 1569.398438 1185.71875 1551.859375 1182.890625 1602.671875 1204.171875 C 1584.890625 1220.53125 1570.019531 1221.289062 1534.609375 1195.5 C 1553.101562 1236.160156 1550.710938 1241.898438 1594.019531 1262.75 C 1558.71875 1275.238281 1561.300781 1268.421875 1528.140625 1245.921875 C 1546.839844 1275.351562 1544.070312 1303.820312 1592.640625 1309.019531 C 1567 1325.671875 1541.589844 1320.398438 1500.628906 1289.101562 C 1544.050781 1364.371094 1549.03125 1334.398438 1578.019531 1368.828125 C 1549.089844 1388.320312 1518.210938 1356.289062 1498.558594 1327.871094 C 1514.75 1371.898438 1516.738281 1386.859375 1565.75 1407.660156 C 1532.941406 1416.851562 1522.449219 1416.148438 1512.039062 1402.589844 C 1513.660156 1400.011719 1515.371094 1397.171875 1517.210938 1393.980469 C 1514.609375 1395.960938 1512.128906 1397.761719 1509.738281 1399.390625 C 1505.910156 1393.761719 1501.890625 1386.421875 1496.578125 1377.191406 C 1497.898438 1374.441406 1499.351562 1371.621094 1501.148438 1368.789062 C 1498.589844 1370.53125 1496.398438 1372.101562 1494.460938 1373.519531 C 1492.230469 1369.691406 1489.78125 1365.558594 1487.039062 1361.128906 C 1490.308594 1356.121094 1492.699219 1349.660156 1497.378906 1339.359375 C 1476.71875 1354.410156 1468.039062 1353.96875 1457.660156 1344.429688 C 1487.308594 1332.011719 1477.078125 1333.660156 1492.261719 1308.21875 C 1482.539062 1320.109375 1461.871094 1325.21875 1448.929688 1316.050781 C 1470.621094 1309.359375 1473.949219 1310.550781 1478.871094 1271.960938 C 1464.050781 1311.070312 1448.648438 1301.839844 1444.828125 1288.039062 C 1462.011719 1279.941406 1461.320312 1280.578125 1467.128906 1260.558594 C 1457.820312 1273.101562 1459.351562 1272.941406 1444.890625 1270.519531 C 1460.660156 1263.238281 1458.828125 1262.648438 1461.910156 1243.300781 C 1455.511719 1258.410156 1447.421875 1256.550781 1439.589844 1251.230469 C 1450.160156 1244.808594 1453.28125 1246.390625 1461.410156 1226.21875 C 1451.78125 1235.949219 1447.328125 1237.328125 1438.371094 1238.390625 C 1449.121094 1226.191406 1454.378906 1222.988281 1456.25 1209.058594 C 1451.480469 1217.648438 1445.171875 1225.769531 1437.210938 1225.730469 C 1449.199219 1213.148438 1448.980469 1208.308594 1449.019531 1196.039062 C 1446.460938 1205.339844 1441.378906 1212.160156 1435.769531 1210.640625 C 1435.808594 1204.578125 1436.191406 1200.03125 1438.289062 1195.878906 C 1440.238281 1192.050781 1443.46875 1190.351562 1444.480469 1183.640625 C 1436.601562 1192.128906 1435.050781 1192.160156 1432.5 1174.140625 C 1431.96875 1177.769531 1431.679688 1193.769531 1428.550781 1193.621094 C 1422.058594 1193.300781 1419.25 1189.078125 1416.078125 1183.75 C 1415.519531 1200.300781 1434.339844 1206.078125 1427.421875 1207.949219 C 1418.738281 1210.289062 1417.839844 1203.648438 1415.261719 1192.078125 C 1411.800781 1220.109375 1425.230469 1214.070312 1426.199219 1220.671875 C 1419.050781 1222.648438 1414.429688 1223.769531 1405.28125 1211.308594 C 1411.070312 1230.71875 1413.449219 1232.878906 1425.210938 1230.980469 C 1411.609375 1239.269531 1411.730469 1240.761719 1400.539062 1229.761719 C 1411.691406 1255.511719 1413.699219 1243.289062 1423.898438 1249.03125 C 1412.570312 1256.871094 1407.851562 1256.398438 1395.609375 1243.550781 C 1416.109375 1292.71875 1425.660156 1256.601562 1424.339844 1268.800781 C 1412.351562 1278.460938 1403.121094 1282.898438 1390.28125 1265.378906 C 1399.410156 1296.511719 1407.488281 1288.128906 1418.910156 1291.710938 C 1403.851562 1300.429688 1406.511719 1306.378906 1389.769531 1287.78125 C 1403.390625 1331.300781 1405.800781 1309.410156 1415.828125 1320.648438 C 1385.929688 1325.050781 1391.820312 1327.980469 1376.820312 1304.199219 C 1385.101562 1342.378906 1387.300781 1336.851562 1413.839844 1339.5 C 1409.769531 1350.929688 1392.808594 1351.289062 1370.308594 1336.089844 C 1387.941406 1365.25 1400.46875 1355.738281 1409.640625 1364.601562 C 1384.191406 1368.828125 1384.109375 1373.539062 1362.519531 1350.980469 C 1381.691406 1397.929688 1404.398438 1377.300781 1405.289062 1390.050781 C 1367.96875 1389.371094 1381.058594 1395.320312 1351.171875 1372.289062 C 1370.238281 1413.96875 1377.019531 1408.289062 1398.859375 1416.589844 C 1379.351562 1427.140625 1373.480469 1423.140625 1341.328125 1391.429688 C 1348.390625 1405.898438 1353.78125 1416.25 1358.109375 1423.679688 C 1351.671875 1428.738281 1346.378906 1433.28125 1341.921875 1437.320312 C 1337.398438 1432.820312 1332.699219 1426.640625 1327.421875 1418.289062 C 1328.871094 1429.230469 1331.058594 1437.960938 1333.75 1444.980469 C 1327.210938 1451.320312 1322.730469 1455.988281 1318.109375 1459.261719 C 1314.589844 1456.210938 1310.390625 1452.789062 1305.269531 1448.960938 C 1307.53125 1454.109375 1309.558594 1458.738281 1311.460938 1462.898438 C 1305.839844 1465.089844 1298.871094 1465.769531 1287.75 1465.28125 C 1293.75 1458.488281 1297.78125 1451.839844 1299.441406 1445.648438 C 1314.078125 1435.109375 1327.109375 1415.160156 1332.730469 1372.808594 C 1300.601562 1423.75 1282.671875 1420.058594 1239.570312 1412.449219 C 1268.210938 1402.488281 1265.441406 1429.058594 1312.210938 1333.171875 C 1269.289062 1375.519531 1258.109375 1384.371094 1235.03125 1374.148438 C 1235.5 1371.859375 1235.929688 1369.519531 1236.320312 1367.171875 C 1261.710938 1359.03125 1272.351562 1360.300781 1297.699219 1304.929688 C 1253.578125 1338.910156 1272.910156 1330.128906 1217.820312 1331.140625 C 1219.140625 1312.328125 1252.648438 1342.761719 1280.941406 1273.488281 C 1249.089844 1306.769531 1248.960938 1299.828125 1211.410156 1293.570312 C 1224.929688 1280.519531 1243.429688 1294.539062 1269.449219 1251.511719 C 1236.238281 1273.929688 1211.210938 1273.410156 1205.199219 1256.550781 C 1244.378906 1252.640625 1247.621094 1260.808594 1259.828125 1204.441406 C 1237.699219 1239.550781 1246.410156 1235.21875 1202.269531 1228.730469 C 1217.078125 1212.140625 1220.621094 1244.441406 1240.730469 1180.230469 C 1216.03125 1207.660156 1219.949219 1198.878906 1197.730469 1186.011719 C 1214.570312 1180.738281 1226.5 1193.101562 1239.96875 1147.171875 C 1221.019531 1173.011719 1207.398438 1166.460938 1189.710938 1152.21875 C 1187.761719 1134.210938 1201.859375 1187.5 1232.101562 1114.941406 C 1214.039062 1133.910156 1207.089844 1134.609375 1190.359375 1123.03125 C 1205.421875 1114.550781 1208.378906 1132.601562 1224.820312 1094.589844 C 1208.308594 1110.828125 1208.488281 1108.628906 1188.429688 1096.378906 C 1205.800781 1099.199219 1209.289062 1096.011719 1217.839844 1067.371094 C 1204.339844 1085.769531 1197.53125 1084.101562 1186.96875 1081.171875 C 1188.398438 1071.441406 1208.21875 1080.351562 1203.109375 1038.988281 C 1199.300781 1056.070312 1197.96875 1065.859375 1185.171875 1062.410156 C 1174.960938 1059.660156 1202.738281 1051.121094 1201.898438 1026.691406 C 1197.230469 1034.558594 1193.070312 1040.800781 1183.511719 1041.25 C 1178.878906 1041.46875 1178.449219 1017.878906 1177.660156 1012.511719 C 1173.910156 1039.101562 1171.621094 1039.070312 1159.988281 1026.519531 C 1161.46875 1036.441406 1166.261719 1038.941406 1169.128906 1044.589844 C 1172.21875 1050.71875 1172.78125 1057.441406 1172.851562 1066.378906 C 1164.570312 1068.621094 1157.070312 1058.558594 1153.289062 1044.839844 C 1153.351562 1062.929688 1153.03125 1070.078125 1170.71875 1088.648438 C 1158.96875 1088.699219 1149.671875 1076.71875 1142.628906 1064.050781 C 1145.378906 1084.609375 1153.148438 1089.320312 1169 1107.320312 C 1155.78125 1105.769531 1149.21875 1103.71875 1135.011719 1089.371094 C 1147 1119.140625 1151.609375 1116.808594 1167.210938 1126.28125 C 1155.648438 1134.140625 1143.71875 1136.878906 1134.269531 1114.589844 C 1138.808594 1143.140625 1136.109375 1144.011719 1159.378906 1154.738281 C 1147.851562 1156.679688 1143.210938 1157.628906 1139.199219 1155.179688 C 1140.28125 1152.761719 1141.410156 1150.230469 1142.628906 1147.550781 C 1140.308594 1149.238281 1138.070312 1150.820312 1135.898438 1152.308594 C 1133.539062 1149.71875 1130.820312 1145.78125 1126.570312 1140.058594 C 1128.429688 1146.488281 1129.851562 1151.480469 1131.179688 1155.480469 C 1124.390625 1159.910156 1118.339844 1163.300781 1112.851562 1165.738281 C 1111.640625 1162.988281 1110.441406 1160.050781 1109.238281 1156.871094 C 1109.679688 1160.371094 1110.121094 1163.648438 1110.558594 1166.730469 C 1091.269531 1174.589844 1078.96875 1170.160156 1065.109375 1157.429688 C 1122.988281 1133.179688 1103.019531 1136.410156 1132.628906 1086.769531 C 1113.671875 1109.980469 1073.320312 1119.941406 1048.070312 1102.058594 C 1090.410156 1089.011719 1096.910156 1091.308594 1106.511719 1016.011719 C 1077.589844 1092.339844 1047.539062 1074.320312 1040.078125 1047.378906 C 1073.601562 1031.601562 1072.261719 1032.839844 1083.589844 993.773438 C 1065.441406 1018.230469 1068.410156 1017.929688 1040.199219 1013.191406 C 1070.980469 999.003906 1067.410156 997.851562 1073.410156 960.101562 C 1060.921875 989.574219 1045.140625 985.945312 1029.851562 975.566406 C 1050.480469 963.027344 1056.570312 966.113281 1072.429688 926.753906 C 1053.640625 945.730469 1044.960938 948.433594 1027.488281 950.492188 C 1048.449219 926.691406 1058.710938 920.453125 1062.359375 893.269531 C 1053.050781 910.019531 1040.75 925.875 1025.21875 925.804688 C 1048.601562 901.234375 1048.179688 891.796875 1048.261719 867.859375 C 1043.261719 886.003906 1033.339844 899.316406 1022.390625 896.355469 C 1022.488281 884.523438 1023.21875 875.628906 1027.320312 867.546875 C 1031.109375 860.0625 1037.441406 856.761719 1039.398438 843.640625 C 1024.03125 860.234375 1020.988281 860.273438 1016.019531 825.121094 C 1014.980469 832.207031 1014.421875 863.421875 1008.289062 863.125 C 995.644531 862.515625 990.15625 854.265625 983.976562 843.875 C 982.875 876.175781 1019.601562 887.453125 1006.101562 891.097656 C 989.160156 895.664062 987.417969 882.71875 982.378906 860.136719 C 975.628906 914.828125 1001.828125 903.042969 1003.71875 915.90625 C 989.761719 919.777344 980.746094 921.980469 962.894531 897.652344 C 974.195312 935.535156 978.828125 939.742188 1001.789062 936.027344 C 975.261719 952.214844 975.503906 955.121094 953.664062 933.660156 C 975.40625 983.917969 979.324219 960.054688 999.238281 971.261719 C 977.117188 986.574219 967.921875 985.648438 944.035156 960.574219 C 984.039062 1056.519531 1002.679688 986.035156 1000.089844 1009.859375 C 976.695312 1028.691406 958.695312 1037.351562 933.632812 1003.179688 C 951.449219 1063.921875 967.222656 1047.570312 989.496094 1054.550781 C 960.113281 1071.570312 965.289062 1083.179688 932.628906 1046.890625 C 959.222656 1131.808594 963.910156 1089.089844 983.488281 1111.03125 C 925.132812 1119.628906 936.636719 1125.339844 907.375 1078.929688 C 923.511719 1153.449219 927.808594 1142.648438 979.609375 1147.820312 C 971.660156 1170.128906 938.566406 1170.808594 894.652344 1141.160156 C 929.058594 1198.050781 953.527344 1179.519531 971.402344 1196.78125 C 921.746094 1205.050781 921.578125 1214.230469 879.460938 1170.21875 C 916.867188 1261.820312 961.183594 1221.578125 962.929688 1246.460938 C 890.085938 1245.121094 915.640625 1256.738281 857.304688 1211.800781 C 894.53125 1293.128906 907.746094 1282.050781 950.390625 1298.25 C 912.496094 1318.71875 900.949219 1311.109375 839.0625 1250.089844 C 839.855469 1248.710938 840.695312 1247.320312 841.582031 1245.921875 C 808.421875 1268.421875 810.996094 1275.238281 775.707031 1262.75 C 819.015625 1241.898438 816.621094 1236.171875 835.109375 1195.5 C 799.703125 1221.289062 784.832031 1220.53125 767.039062 1204.171875 C 817.867188 1182.890625 800.324219 1185.71875 826.328125 1142.128906 C 809.679688 1162.511719 774.257812 1171.261719 752.085938 1155.550781 C 789.253906 1144.101562 794.96875 1146.121094 803.402344 1079.988281 C 778.003906 1147.019531 751.617188 1131.199219 745.0625 1107.550781 C 774.492188 1093.691406 773.320312 1094.78125 783.273438 1060.46875 C 767.332031 1081.941406 769.933594 1081.691406 745.171875 1077.519531 C 772.199219 1065.058594 769.066406 1064.050781 774.332031 1030.898438 C 763.359375 1056.78125 749.507812 1053.609375 736.078125 1044.480469 C 754.191406 1033.46875 759.550781 1036.191406 773.46875 1001.621094 C 756.96875 1018.289062 749.355469 1020.660156 734.007812 1022.460938 C 752.414062 1001.570312 761.421875 996.089844 764.628906 972.226562 C 756.449219 986.925781 745.648438 1000.851562 732.015625 1000.789062 C 752.546875 979.210938 752.179688 970.921875 752.242188 949.90625 C 747.855469 965.832031 739.148438 977.527344 729.53125 974.929688 C 729.613281 964.535156 730.261719 956.730469 733.859375 949.628906 C 737.191406 943.058594 742.746094 940.160156 744.464844 928.636719 C 730.96875 943.214844 728.304688 943.242188 723.941406 912.382812 C 723.027344 918.605469 722.53125 946.011719 717.152344 945.746094 C 706.042969 945.21875 701.226562 937.96875 695.796875 928.84375 C 694.832031 957.203125 727.078125 967.113281 715.226562 970.308594 C 700.355469 974.324219 698.820312 962.953125 694.394531 943.128906 C 688.460938 991.144531 711.480469 980.804688 713.140625 992.097656 C 700.878906 995.492188 692.96875 997.433594 677.285156 976.070312 C 687.214844 1009.339844 691.277344 1013.019531 711.449219 1009.761719 C 688.148438 1023.980469 688.359375 1026.519531 669.183594 1007.679688 C 688.273438 1051.808594 691.710938 1030.859375 709.199219 1040.699219 C 689.777344 1054.148438 681.695312 1053.339844 660.730469 1031.320312 C 695.851562 1115.570312 712.21875 1053.691406 709.949219 1074.601562 C 689.410156 1091.128906 673.597656 1098.730469 651.59375 1068.71875 C 667.238281 1122.070312 681.089844 1107.71875 700.648438 1113.839844 C 674.84375 1128.78125 679.390625 1138.980469 650.714844 1107.121094 C 674.058594 1181.679688 678.179688 1144.179688 695.363281 1163.441406 C 644.125 1170.980469 654.230469 1176.011719 628.53125 1135.25 C 642.707031 1200.691406 646.476562 1191.199219 691.964844 1195.738281 C 684.984375 1215.328125 655.921875 1215.929688 617.363281 1189.890625 C 647.574219 1239.851562 669.0625 1223.578125 684.761719 1238.738281 C 641.152344 1246 641.007812 1254.050781 604.019531 1215.421875 C 608.496094 1226.378906 613.085938 1235.171875 617.679688 1242.269531 C 606.929688 1259.621094 608.023438 1260.738281 592.667969 1258.230469 C 590.46875 1256.488281 588.085938 1254.648438 585.519531 1252.660156 C 591.691406 1251.160156 595.410156 1258.101562 606.296875 1223.359375 C 589.554688 1241.960938 592.203125 1236 577.152344 1227.28125 C 588.566406 1223.710938 596.652344 1232.089844 605.777344 1200.960938 C 592.941406 1218.46875 583.710938 1214.039062 571.726562 1204.390625 C 570.394531 1192.179688 579.953125 1228.289062 600.445312 1179.128906 C 588.207031 1191.980469 583.492188 1192.449219 572.160156 1184.609375 C 582.363281 1178.871094 584.371094 1191.089844 595.515625 1165.328125 C 584.328125 1176.328125 584.449219 1174.851562 570.855469 1166.539062 C 582.617188 1168.449219 584.988281 1166.300781 590.78125 1146.890625 C 581.632812 1159.359375 577.015625 1158.230469 569.863281 1156.238281 C 570.835938 1149.648438 584.257812 1155.691406 580.804688 1127.660156 C 578.214844 1139.230469 577.316406 1145.871094 568.640625 1143.53125 C 561.71875 1141.660156 580.542969 1135.878906 579.984375 1119.320312 C 576.8125 1124.660156 573.996094 1128.878906 567.523438 1129.191406 C 564.378906 1129.328125 564.089844 1113.351562 563.5625 1109.71875 C 561.015625 1127.730469 559.460938 1127.710938 551.582031 1119.210938 C 552.582031 1125.929688 555.824219 1127.621094 557.769531 1131.460938 C 559.867188 1135.609375 560.25 1140.160156 560.292969 1146.230469 C 554.683594 1147.730469 549.605469 1140.921875 547.042969 1131.621094 C 547.078125 1143.890625 546.863281 1148.71875 558.847656 1161.308594 C 550.890625 1161.351562 544.585938 1153.210938 539.816406 1144.640625 C 541.683594 1158.570312 546.9375 1161.769531 557.6875 1173.960938 C 548.726562 1172.910156 544.285156 1171.53125 534.652344 1161.800781 C 542.777344 1181.96875 545.902344 1180.390625 556.476562 1186.808594 C 548.640625 1192.128906 540.554688 1193.988281 534.148438 1178.878906 C 537.230469 1198.230469 535.394531 1198.820312 551.171875 1206.089844 C 536.71875 1208.519531 538.234375 1208.671875 528.9375 1196.140625 C 534.742188 1216.160156 534.054688 1215.519531 551.234375 1223.621094 C 547.40625 1237.410156 532.011719 1246.648438 517.183594 1207.53125 C 520.683594 1235 523.386719 1242.320312 532.46875 1246.671875 C 528.097656 1249.53125 523.878906 1252.109375 519.785156 1254.421875 C 513.484375 1252.328125 507.746094 1248.621094 503.804688 1243.789062 C 507.714844 1250.351562 509.933594 1255.101562 511.589844 1258.769531 C 481.59375 1273.589844 458.570312 1272.558594 435.410156 1257.511719 C 497.472656 1250.851562 493.925781 1214.488281 517.816406 1176.898438 C 475.457031 1205.628906 478.75 1214.339844 433.65625 1198.390625 C 488.992188 1171.769531 485.933594 1164.421875 509.554688 1112.480469 C 464.3125 1145.421875 445.328125 1144.449219 422.59375 1123.558594 C 487.515625 1096.359375 465.109375 1099.988281 498.339844 1044.289062 C 477.066406 1070.328125 431.808594 1081.5 403.480469 1061.441406 C 450.96875 1046.800781 458.269531 1049.390625 469.039062 964.902344 C 436.59375 1050.539062 402.878906 1030.328125 394.507812 1000.109375 C 432.109375 982.390625 430.613281 983.785156 443.324219 939.957031 C 422.964844 967.394531 426.285156 967.058594 394.648438 961.746094 C 429.171875 945.820312 425.171875 944.53125 431.90625 902.175781 C 417.886719 935.253906 400.1875 931.179688 383.03125 919.535156 C 406.171875 905.460938 413.011719 908.933594 430.796875 864.773438 C 409.722656 886.0625 399.996094 889.09375 380.382812 891.402344 C 403.902344 864.703125 415.417969 857.691406 419.511719 827.210938 C 409.058594 845.996094 395.257812 863.773438 377.835938 863.707031 C 404.066406 836.136719 403.601562 825.550781 403.683594 798.699219 C 398.078125 819.050781 386.949219 833.988281 374.671875 830.671875 C 374.769531 817.390625 375.601562 807.421875 380.199219 798.339844 C 384.453125 789.949219 391.550781 786.238281 393.742188 771.53125 C 376.496094 790.140625 373.09375 790.191406 367.523438 750.75 C 366.347656 758.699219 365.726562 793.71875 358.851562 793.378906 C 344.664062 792.710938 338.496094 783.460938 331.570312 771.789062 C 330.332031 808.019531 371.539062 820.679688 356.386719 824.769531 C 337.386719 829.890625 335.429688 815.359375 329.773438 790.03125 C 322.199219 851.386719 351.597656 838.171875 353.71875 852.597656 C 338.0625 856.941406 327.945312 859.417969 307.925781 832.128906 C 320.59375 874.621094 325.792969 879.34375 351.558594 875.171875 C 321.78125 893.335938 322.058594 896.585938 297.558594 872.507812 C 321.953125 928.894531 326.351562 902.128906 348.6875 914.707031 C 323.871094 931.878906 313.554688 930.847656 286.761719 902.710938 C 331.636719 1010.351562 352.546875 931.28125 349.648438 958.011719 C 323.402344 979.140625 303.203125 988.839844 275.089844 950.5 C 295.074219 1018.648438 312.769531 1000.320312 337.761719 1008.148438 C 304.796875 1027.230469 310.605469 1040.25 273.964844 999.554688 C 303.796875 1094.808594 309.054688 1046.890625 331.011719 1071.5 C 265.550781 1081.148438 278.457031 1087.558594 245.628906 1035.488281 C 263.734375 1119.089844 268.550781 1106.980469 326.675781 1112.78125 C 317.753906 1137.800781 280.617188 1138.570312 231.359375 1105.308594 C 269.957031 1169.140625 297.410156 1148.339844 317.460938 1167.710938 C 261.753906 1176.988281 261.570312 1187.289062 214.308594 1137.910156 C 256.28125 1240.679688 305.996094 1195.539062 307.957031 1223.449219 C 226.234375 1221.941406 254.902344 1234.96875 189.453125 1184.550781 C 231.222656 1275.800781 246.050781 1263.371094 293.886719 1281.550781 C 257.167969 1301.378906 242.507812 1297.71875 194.453125 1252.238281 C 195.367188 1247.058594 196.242188 1240.960938 197.167969 1233.738281 C 194.980469 1239.511719 192.785156 1244.421875 190.605469 1248.578125 C 186.503906 1244.648438 182.160156 1240.441406 177.550781 1235.929688 C 179.0625 1232.121094 180.488281 1227.011719 182.628906 1219.640625 C 178.007812 1225.859375 175.542969 1229.558594 173.09375 1231.558594 L 167.910156 1226.460938 L 171.035156 1232.839844 C 167.867188 1234.21875 163.84375 1233.421875 155.101562 1231.949219 C 174.625 1222.960938 172.359375 1222.230469 176.171875 1198.269531 C 168.242188 1216.980469 158.234375 1214.671875 148.539062 1208.089844 C 161.625 1200.128906 165.488281 1202.089844 175.546875 1177.128906 C 163.628906 1189.160156 158.121094 1190.871094 147.039062 1192.179688 C 160.339844 1177.089844 166.847656 1173.128906 169.15625 1155.890625 C 163.253906 1166.511719 155.449219 1176.570312 145.601562 1176.519531 C 160.429688 1160.941406 160.164062 1154.949219 160.214844 1139.769531 C 157.042969 1151.269531 150.757812 1159.71875 143.8125 1157.839844 C 143.871094 1150.339844 144.335938 1144.699219 146.929688 1139.570312 C 149.34375 1134.820312 153.351562 1132.71875 154.59375 1124.398438 C 144.84375 1134.929688 142.925781 1134.949219 139.769531 1112.648438 C 139.105469 1117.148438 138.75 1136.949219 134.863281 1136.761719 C 126.839844 1136.371094 123.355469 1131.148438 119.4375 1124.550781 C 118.738281 1145.039062 142.039062 1152.199219 133.46875 1154.5 C 122.726562 1157.398438 121.617188 1149.191406 118.425781 1134.871094 C 114.140625 1169.550781 130.765625 1162.078125 131.964844 1170.238281 C 123.109375 1172.699219 117.386719 1174.101562 106.066406 1158.671875 C 113.234375 1182.691406 116.167969 1185.359375 130.742188 1183.011719 C 113.914062 1193.28125 114.0625 1195.121094 100.210938 1181.5 C 114 1213.378906 116.492188 1198.25 129.121094 1205.359375 C 115.089844 1215.070312 109.25 1214.480469 94.105469 1198.570312 C 119.480469 1259.441406 131.296875 1214.730469 129.664062 1229.839844 C 114.824219 1241.789062 103.40625 1247.28125 87.503906 1225.601562 C 98.808594 1264.128906 108.808594 1253.761719 122.945312 1258.191406 C 104.300781 1268.980469 107.585938 1276.351562 86.867188 1253.328125 C 103.734375 1307.199219 106.710938 1280.101562 119.125 1294.019531 C 82.109375 1299.46875 89.414062 1303.101562 70.847656 1273.648438 C 81.085938 1320.921875 83.808594 1314.070312 116.671875 1317.359375 C 111.625 1331.5 90.636719 1331.941406 62.777344 1313.128906 C 84.601562 1349.21875 100.125 1337.460938 111.464844 1348.410156 C 101.4375 1350.078125 94.597656 1351.808594 89.058594 1352.488281 L 88.957031 1352.410156 L 88.996094 1352.5 C 81.296875 1353.429688 76.132812 1352.328125 68.429688 1346.179688 C 69.949219 1342.960938 71.945312 1339 74.941406 1333.988281 C 72.109375 1337.449219 68.347656 1340.339844 64.113281 1342.46875 C 60.972656 1339.601562 57.394531 1336.011719 53.140625 1331.558594 C 55.136719 1336.449219 57.164062 1340.75 59.207031 1344.53125 C 49.914062 1347.679688 39.367188 1347.320312 31.613281 1341.820312 C 53.300781 1335.140625 56.636719 1336.320312 61.554688 1297.71875 C 46.734375 1336.851562 31.339844 1327.609375 27.511719 1313.808594 C 44.691406 1305.71875 44 1306.359375 49.808594 1286.339844 C 40.511719 1298.871094 42.027344 1298.71875 27.574219 1296.289062 C 43.347656 1289.019531 41.519531 1288.429688 44.59375 1269.078125 C 38.191406 1284.179688 30.105469 1282.328125 22.265625 1277.011719 C 32.839844 1270.578125 35.96875 1272.160156 44.089844 1252 C 34.460938 1261.71875 30.015625 1263.101562 21.058594 1264.160156 C 31.804688 1251.960938 37.0625 1248.769531 38.929688 1234.839844 C 34.152344 1243.421875 27.851562 1251.539062 19.890625 1251.511719 C 31.875 1238.910156 31.660156 1234.078125 31.699219 1221.820312 C 29.140625 1231.101562 24.058594 1237.929688 18.449219 1236.410156 C 18.496094 1230.351562 18.875 1225.789062 20.972656 1221.640625 C 22.921875 1217.808594 26.160156 1216.121094 27.160156 1209.398438 C 19.285156 1217.898438 17.730469 1217.929688 15.183594 1199.910156 C 14.652344 1203.550781 14.363281 1219.53125 11.222656 1219.378906 C 5.59375 1219.109375 2.734375 1215.898438 0.00390625 1211.558594 L 0.00390625 1217.238281 C 3.992188 1227.96875 15.8125 1232.179688 10.097656 1233.71875 C 3.945312 1235.378906 1.707031 1232.53125 0.00390625 1226.609375 L 0.00390625 1238.089844 C 3.210938 1243.070312 8.296875 1242.46875 8.878906 1246.429688 C 5.617188 1247.328125 2.878906 1248.058594 0.00390625 1247.398438 L 0.00390625 1257.109375 C 2.089844 1257.480469 4.628906 1257.269531 7.890625 1256.738281 C 4.558594 1258.769531 2.054688 1260.398438 0.00390625 1261.53125 L 0.00390625 1272.980469 C 1.84375 1273.03125 3.9375 1273.308594 6.582031 1274.800781 C 4.125 1276.5 1.980469 1277.808594 0.00390625 1278.691406 L 0.00390625 1295.988281 C 5.382812 1295.160156 7.722656 1288.128906 7.019531 1294.578125 C 4.582031 1296.539062 2.261719 1298.28125 0.00390625 1299.679688 L 0.00390625 1317.039062 C 0.523438 1317.171875 1.054688 1317.308594 1.59375 1317.480469 C 1.035156 1317.800781 0.511719 1318.121094 0.00390625 1318.429688 L 0.00390625 1717.070312 C 1423.761719 1717.070312 2233.46875 1717.070312 2976.371094 1717.070312 L 2976.371094 1191.75 C 2975.929688 1192.929688 2975.390625 1193.648438 2974.710938 1193.621094 C 2968.230469 1193.308594 2965.421875 1189.078125 2962.25 1183.75 C 2961.691406 1200.300781 2980.511719 1206.089844 2973.589844 1207.949219 C 2964.910156 1210.289062 2964.019531 1203.648438 2961.429688 1192.089844 C 2957.96875 1220.109375 2971.398438 1214.070312 2972.371094 1220.671875 C 2965.210938 1222.648438 2960.589844 1223.78125 2951.449219 1211.308594 C 2957.238281 1230.730469 2959.609375 1232.878906 2971.378906 1230.980469 C 2957.78125 1239.269531 2957.910156 1240.761719 2946.71875 1229.761719 C 2957.859375 1255.511719 2959.871094 1243.289062 2970.070312 1249.03125 C 2958.730469 1256.871094 2954.019531 1256.410156 2941.78125 1243.550781 C 2962.28125 1292.71875 2971.828125 1256.601562 2970.511719 1268.808594 C 2958.519531 1278.460938 2949.289062 1282.898438 2936.449219 1265.378906 C 2945.578125 1296.511719 2953.660156 1288.140625 2965.078125 1291.710938 C 2950.03125 1300.429688 2952.671875 1306.378906 2935.941406 1287.789062 C 2949.558594 1331.300781 2951.96875 1309.421875 2961.988281 1320.660156 C 2932.101562 1325.050781 2938 1327.988281 2923 1304.199219 C 2931.261719 1342.390625 2933.46875 1336.851562 2960.011719 1339.5 C 2955.941406 1350.941406 2938.980469 1351.289062 2916.480469 1336.089844 C 2934.109375 1365.25 2946.648438 1355.75 2955.808594 1364.601562 C 2930.359375 1368.828125 2930.28125 1373.539062 2908.691406 1350.980469 C 2927.859375 1397.929688 2950.570312 1377.308594 2951.46875 1390.058594 C 2914.140625 1389.371094 2927.230469 1395.320312 2897.339844 1372.289062 C 2899.371094 1376.730469 2901.269531 1380.640625 2903.058594 1384.089844 C 2900.039062 1388.398438 2896.730469 1392.800781 2893.191406 1397.011719 C 2891.390625 1395.25 2889.488281 1393.398438 2887.5 1391.429688 C 2888.828125 1394.171875 2890.109375 1396.75 2891.328125 1399.191406 C 2875.210938 1417.621094 2854.710938 1431.621094 2835.230469 1418.5 C 2860.199219 1388.851562 2864.480469 1414.660156 2901.878906 1349.828125 C 2866.609375 1376.789062 2844.71875 1381.328125 2822.640625 1366.980469 C 2864.46875 1362.5 2862.078125 1337.988281 2878.191406 1312.648438 C 2849.628906 1332.019531 2851.851562 1337.898438 2821.460938 1327.140625 C 2858.75 1309.191406 2856.691406 1304.238281 2872.621094 1269.230469 C 2842.121094 1291.429688 2829.320312 1290.769531 2814 1276.699219 C 2857.761719 1258.359375 2842.660156 1260.808594 2865.050781 1223.269531 C 2850.710938 1240.820312 2820.210938 1248.351562 2801.109375 1234.820312 C 2833.121094 1224.949219 2838.050781 1226.699219 2845.308594 1169.761719 C 2823.441406 1227.480469 2800.710938 1213.851562 2795.070312 1193.480469 C 2820.421875 1181.550781 2819.398438 1182.488281 2827.96875 1152.941406 C 2814.25 1171.429688 2816.488281 1171.210938 2795.160156 1167.628906 C 2818.441406 1156.898438 2815.738281 1156.03125 2820.269531 1127.46875 C 2810.828125 1149.769531 2798.898438 1147.019531 2787.328125 1139.171875 C 2802.929688 1129.691406 2807.539062 1132.019531 2819.53125 1102.261719 C 2805.320312 1116.609375 2798.761719 1118.648438 2785.550781 1120.210938 C 2801.398438 1102.210938 2809.160156 1097.488281 2811.921875 1076.941406 C 2804.871094 1089.601562 2795.570312 1101.589844 2783.828125 1101.539062 C 2801.511719 1082.960938 2801.191406 1075.820312 2801.25 1057.71875 C 2797.480469 1071.441406 2789.96875 1081.511719 2781.699219 1079.269531 C 2781.761719 1070.320312 2782.320312 1063.601562 2785.421875 1057.480469 C 2788.289062 1051.828125 2793.070312 1049.328125 2794.550781 1039.410156 C 2782.929688 1051.949219 2780.628906 1051.988281 2776.871094 1025.398438 C 2776.089844 1030.769531 2775.671875 1054.359375 2771.03125 1054.140625 C 2761.46875 1053.691406 2757.308594 1047.449219 2752.640625 1039.578125 C 2751.808594 1064.011719 2779.578125 1072.539062 2769.371094 1075.289062 C 2756.558594 1078.75 2755.238281 1068.960938 2751.429688 1051.878906 C 2746.328125 1093.238281 2766.140625 1084.328125 2767.570312 1094.050781 C 2757.019531 1096.980469 2750.199219 1098.648438 2736.699219 1080.261719 C 2745.25 1108.898438 2748.75 1112.078125 2766.121094 1109.269531 C 2746.050781 1121.511719 2746.230469 1123.710938 2729.71875 1107.480469 C 2746.160156 1145.480469 2749.121094 1127.441406 2764.191406 1135.921875 C 2747.449219 1147.5 2740.5 1146.800781 2722.441406 1127.828125 C 2752.691406 1200.390625 2766.78125 1147.089844 2764.828125 1165.109375 C 2747.140625 1179.351562 2733.519531 1185.890625 2714.570312 1160.050781 C 2728.039062 1205.980469 2739.96875 1193.628906 2756.820312 1198.898438 C 2734.601562 1211.769531 2738.511719 1220.550781 2713.808594 1193.109375 C 2733.921875 1257.320312 2737.46875 1225.019531 2752.269531 1241.609375 C 2708.140625 1248.109375 2716.839844 1252.429688 2694.71875 1217.328125 C 2706.921875 1273.691406 2710.160156 1265.519531 2749.339844 1269.441406 C 2743.328125 1286.300781 2718.300781 1286.820312 2685.089844 1264.398438 C 2711.109375 1307.421875 2729.609375 1293.410156 2743.128906 1306.460938 C 2705.578125 1312.710938 2705.460938 1319.660156 2673.601562 1286.378906 C 2701.890625 1355.648438 2735.398438 1325.21875 2736.71875 1344.03125 C 2689.480469 1343.148438 2696.96875 1349.488281 2672.21875 1329.871094 C 2673.941406 1326.53125 2675.660156 1322.828125 2677.351562 1318.691406 C 2674.191406 1321.988281 2671.398438 1324.808594 2668.890625 1327.230469 C 2665.480469 1324.53125 2661.519531 1321.410156 2656.851562 1317.808594 C 2659.238281 1323.03125 2661.488281 1327.730469 2663.640625 1332 C 2649.238281 1344.199219 2643.988281 1339.679688 2619.03125 1335.519531 C 2630.371094 1324.578125 2645.890625 1336.339844 2667.710938 1300.238281 C 2639.859375 1319.058594 2618.859375 1318.609375 2613.820312 1304.46875 C 2646.679688 1301.191406 2649.398438 1308.039062 2659.640625 1260.769531 C 2641.070312 1290.21875 2648.378906 1286.589844 2611.371094 1281.128906 C 2623.78125 1267.210938 2626.761719 1294.320312 2643.621094 1240.449219 C 2622.898438 1263.460938 2626.191406 1256.101562 2607.550781 1245.308594 C 2621.679688 1240.878906 2631.691406 1251.25 2642.988281 1212.710938 C 2627.089844 1234.390625 2615.671875 1228.910156 2600.828125 1216.960938 C 2599.191406 1201.851562 2611.011719 1246.550781 2636.378906 1185.699219 C 2621.238281 1201.601562 2615.398438 1202.191406 2601.371094 1192.480469 C 2614 1185.359375 2616.488281 1200.5 2630.28125 1168.621094 C 2616.429688 1182.238281 2616.578125 1180.398438 2599.75 1170.121094 C 2614.320312 1172.480469 2617.25 1169.808594 2624.421875 1145.78125 C 2613.101562 1161.21875 2607.378906 1159.820312 2598.53125 1157.359375 C 2599.730469 1149.199219 2616.351562 1156.671875 2612.070312 1121.988281 C 2608.871094 1136.300781 2607.761719 1144.519531 2597.019531 1141.621094 C 2588.449219 1139.308594 2611.75 1132.148438 2611.050781 1111.660156 C 2607.128906 1118.269531 2603.648438 1123.488281 2595.628906 1123.878906 C 2591.738281 1124.058594 2591.378906 1104.269531 2590.71875 1099.769531 C 2587.570312 1122.070312 2585.648438 1122.050781 2575.898438 1111.519531 C 2577.140625 1119.839844 2581.148438 1121.929688 2583.558594 1126.679688 C 2586.160156 1131.820312 2586.621094 1137.460938 2586.679688 1144.960938 C 2579.738281 1146.828125 2573.449219 1138.390625 2570.28125 1126.878906 C 2570.320312 1142.070312 2570.058594 1148.050781 2584.890625 1163.640625 C 2575.039062 1163.679688 2567.238281 1153.621094 2561.328125 1143 C 2563.640625 1160.238281 2570.148438 1164.199219 2583.449219 1179.300781 C 2572.371094 1178 2566.859375 1176.28125 2554.941406 1164.238281 C 2565 1189.210938 2568.871094 1187.25 2581.960938 1195.199219 C 2572.25 1201.789062 2562.25 1204.089844 2554.320312 1185.390625 C 2558.128906 1209.339844 2555.859375 1210.070312 2575.390625 1219.070312 C 2557.5 1222.078125 2559.378906 1222.269531 2547.859375 1206.75 C 2555.050781 1231.53125 2554.199219 1230.738281 2575.46875 1240.761719 C 2570.730469 1257.839844 2551.671875 1269.28125 2533.320312 1220.851562 C 2539.410156 1268.628906 2543.539062 1267.160156 2570.390625 1275.441406 C 2554.378906 1286.789062 2528.78125 1280.46875 2516.761719 1265.738281 C 2535.550781 1297.230469 2522.878906 1295.179688 2559.578125 1310.558594 C 2546.730469 1322.371094 2535.988281 1322.929688 2510.421875 1304.300781 C 2523.769531 1333.660156 2522.050781 1337.820312 2553.328125 1352.871094 C 2527.839844 1361.898438 2529.699219 1356.960938 2505.738281 1340.71875 C 2519.25 1361.980469 2517.25 1382.539062 2552.339844 1386.308594 C 2534.96875 1397.589844 2517.75 1394.941406 2491.28125 1375.921875 C 2496.109375 1361.738281 2500.070312 1344.640625 2502.828125 1323.898438 C 2455.148438 1399.480469 2428.558594 1394 2364.609375 1382.738281 C 2407.109375 1367.960938 2402.988281 1407.371094 2472.378906 1265.109375 C 2402 1334.550781 2389.140625 1343.289062 2346.410156 1320.210938 C 2394.25 1302.03125 2409.078125 1314.449219 2450.851562 1223.210938 C 2385.398438 1273.628906 2414.070312 1260.589844 2332.339844 1262.101562 C 2334.300781 1234.191406 2384.019531 1279.328125 2425.988281 1176.570312 C 2378.730469 1225.941406 2378.550781 1215.648438 2322.828125 1206.371094 C 2342.890625 1187.011719 2370.339844 1207.789062 2408.941406 1143.960938 C 2359.679688 1177.238281 2322.550781 1176.460938 2313.628906 1151.441406 C 2371.738281 1145.640625 2376.558594 1157.75 2394.671875 1074.148438 C 2361.828125 1126.21875 2374.75 1119.808594 2309.28125 1110.160156 C 2331.238281 1085.550781 2336.5 1133.480469 2366.328125 1038.210938 C 2329.691406 1078.910156 2335.5 1065.890625 2302.53125 1046.800781 C 2327.53125 1038.96875 2345.21875 1057.300781 2365.210938 989.160156 C 2337.089844 1027.5 2316.890625 1017.800781 2290.640625 996.664062 C 2287.75 969.941406 2308.660156 1049.011719 2353.539062 941.363281 C 2326.738281 969.5 2316.429688 970.542969 2291.609375 953.359375 C 2313.949219 940.78125 2318.351562 967.558594 2342.738281 911.164062 C 2318.238281 935.253906 2318.511719 931.996094 2288.738281 913.832031 C 2314.5 918 2319.699219 913.273438 2332.378906 870.78125 C 2312.351562 898.082031 2302.238281 895.601562 2286.578125 891.25 C 2288.699219 876.824219 2318.101562 890.039062 2310.519531 828.691406 C 2304.871094 854.019531 2302.910156 868.546875 2283.910156 863.421875 C 2268.761719 859.335938 2309.96875 846.679688 2308.730469 810.441406 C 2301.800781 822.109375 2295.628906 831.359375 2281.449219 832.042969 C 2274.570312 832.371094 2273.949219 797.359375 2272.78125 789.410156 "/></clipPath><linearGradient id="linear-pattern-3" gradientUnits="userSpaceOnUse" x1="-0.000000000000000222" y1="0" x2="0.999996" y2="0" gradientTransform="matrix(0, 966.324, 489.047, 0, 1488.19, 750.75)"><stop offset="0" stop-color="rgb(12.780762%, 16.149902%, 22.7005%)" stop-opacity="1"/><stop offset="0.0625" stop-color="rgb(12.780762%, 16.149902%, 22.7005%)" stop-opacity="1"/><stop offset="1" stop-color="rgb(38.667297%, 51.660156%, 79.658508%)" stop-opacity="1"/></linearGradient></defs><g clip-path="url(#clip-5)"><g clip-path="url(#clip-6)"><path fill-rule="nonzero" fill="url(#linear-pattern-3)" d="M 0.00390625 750.75 L 2976.378906 750.75 L 2976.378906 1717.070312 L 0.00390625 1717.070312 Z M 0.00390625 750.75 "/></g></g></svg>