<svg xmlns="http://www.w3.org/2000/svg" xmlns:xlink="http://www.w3.org/1999/xlink" width="2976.38" height="1831.61" viewBox="0 0 2976.38 1831.61"><path fill-rule="evenodd" fill="rgb(4.15802%, 6.65741%, 9.176636%)" fill-opacity="1" d="M 2976.378906 1074.761719 C 2969.300781 1068.078125 2956.988281 1056.960938 2957.609375 1038.648438 C 2962.699219 1047.230469 2967.300781 1054.238281 2976.378906 1056.210938 Z M 2912.25 1336.75 C 2914.449219 1332.191406 2916.710938 1327.371094 2919.050781 1322.25 C 2913.449219 1326.558594 2908.46875 1330.46875 2904 1333.988281 C 2894.789062 1330.46875 2884.621094 1325.109375 2873.761719 1317.769531 C 2880.488281 1328.898438 2886.808594 1336.960938 2892.769531 1342.878906 C 2884.101562 1349.75 2877.808594 1354.699219 2872.539062 1358.210938 C 2868.691406 1354.53125 2864.398438 1350.171875 2859.488281 1345.050781 C 2861.980469 1351.160156 2864.519531 1356.628906 2867.058594 1361.550781 C 2851.390625 1370.03125 2841.171875 1365.070312 2785.46875 1366.101562 C 2787.648438 1335.058594 2842.199219 1384.128906 2889.078125 1274.328125 C 2901.761719 1327.808594 2908.691406 1319.539062 2953.511719 1324.019531 C 2948.628906 1337.75 2933.609375 1342.75 2912.25 1336.75 Z M 2832.96875 1443.921875 C 2823.511719 1442.441406 2813.488281 1438.160156 2801.328125 1431.601562 C 2809.351562 1428.539062 2816.550781 1426.261719 2823.148438 1424.238281 C 2826.648438 1431.359375 2829.910156 1437.898438 2832.96875 1443.921875 Z M 2868.039062 1435.75 C 2860.28125 1440.339844 2853.28125 1443.03125 2846.390625 1444.03125 C 2840.101562 1438.171875 2833.101562 1431.378906 2825.199219 1423.609375 C 2835.800781 1420.390625 2844.859375 1417.730469 2853.339844 1413.460938 C 2858.628906 1422.941406 2863.429688 1430.148438 2868.039062 1435.75 Z M 2908.25 1403.398438 C 2902.859375 1408.429688 2897.839844 1412.949219 2893.148438 1416.988281 C 2882.378906 1416.738281 2877.78125 1414.589844 2865.910156 1405.441406 C 2871.761719 1400.800781 2877.578125 1394.730469 2883.710938 1386.46875 C 2892.351562 1396.039062 2900.75 1400.820312 2908.25 1403.398438 Z M 2942.839844 1370.5 L 2943.328125 1369.488281 L 2942.199219 1370.601562 C 2916.148438 1375.191406 2905.441406 1379.589844 2892.5 1373.441406 C 2896.289062 1367.328125 2900.238281 1360.351562 2904.429688 1352.328125 C 2921.410156 1363.109375 2934.910156 1359.46875 2945.808594 1369.988281 Z M 2919.699219 1416.558594 C 2921.328125 1413.441406 2923.011719 1410.191406 2924.730469 1406.820312 C 2932.371094 1407.859375 2937.308594 1408.878906 2937.859375 1416.628906 C 2930.910156 1416.5 2924.929688 1416.5 2919.699219 1416.558594 Z M 2886.570312 1473.03125 C 2889.96875 1468.371094 2893.679688 1462.761719 2897.78125 1456.011719 C 2905.78125 1458.730469 2914.839844 1460.988281 2926.078125 1465.261719 C 2910.089844 1473.898438 2899.101562 1477.199219 2886.570312 1473.03125 Z M 2875.691406 1509.421875 C 2860.21875 1508.921875 2842.820312 1505.78125 2821.851562 1502.101562 C 2840.480469 1495.601562 2851.171875 1498.359375 2861.878906 1494.710938 C 2867.261719 1502.308594 2871.640625 1506.75 2875.691406 1509.421875 Z M 2856.300781 1582.859375 C 2863.769531 1580.460938 2871.960938 1578.511719 2880.488281 1576.121094 C 2884.148438 1577.148438 2887.628906 1578.25 2890.851562 1579.578125 C 2876.75 1581.148438 2865.5 1582.269531 2856.300781 1582.859375 Z M 2468.609375 1546.871094 C 2466.761719 1544.519531 2464.820312 1542.058594 2462.828125 1539.5 C 2469.160156 1541.851562 2475.339844 1540.078125 2486.351562 1543.921875 C 2479.898438 1545.050781 2474.03125 1546.101562 2468.609375 1546.871094 Z M 2612.46875 1481.558594 C 2615.078125 1484.191406 2617.820312 1487.191406 2620.730469 1490.640625 C 2617.898438 1492.550781 2615.058594 1494.089844 2612.210938 1495.339844 C 2604.519531 1494.980469 2597.308594 1492.378906 2590.089844 1487.691406 C 2599.699219 1486.660156 2606.890625 1484.53125 2612.46875 1481.558594 Z M 2633.820312 1403.441406 C 2636.371094 1403.839844 2639.011719 1404.191406 2641.789062 1404.488281 C 2638.058594 1406.921875 2634.339844 1409.011719 2630.589844 1410.78125 C 2631.589844 1408.539062 2632.660156 1406.101562 2633.820312 1403.441406 Z M 2600.328125 1392.378906 C 2607.140625 1396.398438 2615.410156 1399.640625 2625.699219 1401.921875 C 2604.96875 1414.390625 2594.230469 1412.160156 2581.761719 1400.699219 C 2589.800781 1397.328125 2595.769531 1394.699219 2600.328125 1392.378906 Z M 2571.949219 1359.558594 C 2572.53125 1360.710938 2573.128906 1361.859375 2573.730469 1362.980469 C 2572.210938 1362.210938 2570.75 1361.351562 2569.351562 1360.351562 Z M 2608.808594 1318.929688 C 2617.53125 1324.648438 2628.738281 1330.621094 2643.761719 1337.851562 C 2621.628906 1345.679688 2609.828125 1348.238281 2599.628906 1345.960938 C 2603.730469 1340.628906 2606.390625 1332.570312 2608.808594 1318.929688 Z M 2588.789062 1301.628906 C 2592.878906 1306.589844 2597.699219 1311.070312 2603.929688 1315.578125 C 2596.109375 1330.191406 2588.488281 1336.351562 2581.941406 1337.289062 C 2577.171875 1334.039062 2571.800781 1329.960938 2565.148438 1325.109375 C 2564.5 1323.640625 2563.960938 1322.109375 2563.519531 1320.53125 C 2579.839844 1312.839844 2584.820312 1310.691406 2588.789062 1301.628906 Z M 2579.121094 1286.890625 C 2580.730469 1289.890625 2582.371094 1292.671875 2584.109375 1295.300781 C 2579.96875 1298.558594 2575.75 1297.648438 2563.609375 1295.621094 C 2571.289062 1292.078125 2576.019531 1289.648438 2579.121094 1286.890625 Z M 2567.421875 1261.789062 C 2569.261719 1266 2570.96875 1269.871094 2572.601562 1273.46875 C 2567.230469 1274.488281 2561.609375 1271.960938 2556.070312 1268.199219 C 2560.691406 1265.398438 2564.300781 1263.671875 2567.421875 1261.789062 Z M 2559.609375 1244.089844 L 2561.710938 1248.808594 C 2559.460938 1249.269531 2557.050781 1249.609375 2554.351562 1249.929688 C 2556.210938 1247.808594 2557.96875 1245.890625 2559.609375 1244.089844 Z M 2718.320312 833.230469 C 2712.039062 877.683594 2708.199219 877.640625 2688.761719 856.648438 C 2691.238281 873.242188 2699.238281 877.421875 2704.03125 886.878906 C 2709.21875 897.109375 2710.148438 908.355469 2710.261719 923.320312 C 2696.421875 927.0625 2683.878906 910.222656 2677.550781 887.289062 C 2677.648438 917.550781 2677.128906 929.492188 2706.691406 960.5625 C 2687.058594 960.652344 2671.5 940.59375 2659.71875 919.425781 C 2664.320312 953.792969 2677.308594 961.683594 2703.820312 991.78125 C 2681.71875 989.179688 2670.738281 985.765625 2646.988281 961.757812 C 2667.039062 1011.539062 2674.75 1007.640625 2700.839844 1023.5 C 2681.488281 1036.628906 2661.539062 1041.210938 2645.738281 1003.929688 C 2653.328125 1051.691406 2648.820312 1053.140625 2687.738281 1071.089844 C 2652.078125 1077.078125 2655.820312 1077.441406 2632.859375 1046.53125 C 2647.199219 1095.929688 2645.511719 1094.359375 2687.898438 1114.328125 C 2678.460938 1148.390625 2640.460938 1171.179688 2603.878906 1074.640625 C 2616.019531 1169.890625 2624.25 1166.960938 2677.78125 1183.460938 C 2645.851562 1206.078125 2594.828125 1193.480469 2570.851562 1164.128906 C 2608.300781 1226.921875 2583.050781 1222.828125 2656.238281 1253.5 C 2636.128906 1271.96875 2618.621094 1276.621094 2587.359375 1259.820312 L 2587.808594 1256.929688 C 2587.441406 1257.808594 2587.058594 1258.648438 2586.679688 1259.449219 C 2583.460938 1257.699219 2580.101562 1255.730469 2576.578125 1253.519531 C 2579.710938 1249.238281 2582.949219 1242.941406 2587.089844 1232.640625 C 2578.730469 1241.089844 2573.109375 1245.109375 2567.109375 1247.300781 C 2565.039062 1245.890625 2562.929688 1244.398438 2560.75 1242.839844 C 2571.78125 1230.859375 2577.5 1225.039062 2579.761719 1208.238281 C 2572.96875 1220.441406 2564.011719 1231.988281 2552.699219 1231.941406 C 2569.738281 1214.039062 2569.429688 1207.160156 2569.488281 1189.71875 C 2565.839844 1202.949219 2558.621094 1212.648438 2550.640625 1210.480469 C 2550.699219 1201.871094 2551.238281 1195.390625 2554.230469 1189.488281 C 2556.988281 1184.039062 2561.601562 1181.640625 2563.03125 1172.078125 C 2551.828125 1184.171875 2549.621094 1184.199219 2546 1158.589844 C 2545.238281 1163.75 2544.820312 1186.488281 2540.371094 1186.28125 C 2531.160156 1185.828125 2527.148438 1179.828125 2522.648438 1172.238281 C 2521.851562 1195.78125 2548.609375 1204 2538.769531 1206.660156 C 2526.429688 1209.980469 2525.160156 1200.539062 2521.480469 1184.101562 C 2516.570312 1223.941406 2535.648438 1215.371094 2537.03125 1224.730469 C 2526.871094 1227.550781 2520.300781 1229.160156 2507.289062 1211.429688 C 2515.519531 1239.039062 2518.898438 1242.101562 2535.628906 1239.390625 C 2516.300781 1251.179688 2516.480469 1253.308594 2500.570312 1237.671875 C 2516.410156 1274.289062 2519.261719 1256.890625 2533.769531 1265.058594 C 2517.648438 1276.21875 2510.949219 1275.550781 2493.550781 1257.269531 C 2522.699219 1327.179688 2536.28125 1275.828125 2534.390625 1293.179688 C 2517.339844 1306.898438 2504.230469 1313.199219 2485.96875 1288.308594 C 2498.949219 1332.558594 2510.441406 1320.660156 2526.679688 1325.738281 C 2505.261719 1338.140625 2509.03125 1346.601562 2485.238281 1320.171875 C 2504.609375 1382.039062 2508.03125 1350.910156 2522.289062 1366.898438 C 2479.78125 1373.160156 2488.160156 1377.320312 2466.828125 1343.5 C 2478.601562 1397.800781 2481.71875 1389.929688 2519.46875 1393.699219 C 2513.679688 1409.960938 2489.558594 1410.449219 2457.570312 1388.851562 C 2482.640625 1430.300781 2500.460938 1416.800781 2513.488281 1429.371094 C 2477.308594 1435.410156 2477.191406 1442.101562 2446.5 1410.03125 C 2473.75 1476.761719 2506.050781 1447.449219 2507.320312 1465.578125 C 2454.238281 1464.601562 2472.859375 1473.070312 2430.359375 1440.320312 C 2455.679688 1495.628906 2465.761719 1492.28125 2492.261719 1501.191406 L 2492.980469 1505.96875 C 2469.179688 1517.378906 2459.089844 1509.679688 2416.371094 1467.519531 C 2425.480469 1486.210938 2432.640625 1500.058594 2438.5 1510.371094 C 2440.191406 1523.46875 2442.800781 1535.949219 2446.621094 1547.859375 C 2429.300781 1546.011719 2415.5 1535.671875 2396.601562 1505.699219 C 2407.070312 1584.570312 2444.171875 1582.839844 2467.621094 1590.820312 L 2468.628906 1592.269531 C 2397.75 1600.070312 2422.839844 1592.371094 2365.089844 1549.320312 C 2390.828125 1607.988281 2395.648438 1618.429688 2452.101562 1623.121094 C 2444.441406 1634.578125 2401.328125 1631.71875 2368.839844 1618.339844 C 2365.480469 1616.078125 2362.148438 1613.710938 2358.820312 1611.210938 C 2358.851562 1612.058594 2358.929688 1612.921875 2359.039062 1613.78125 C 2351.699219 1609.960938 2345.300781 1605.5 2340.53125 1600.488281 C 2339.359375 1599.261719 2349.289062 1619.011719 2368.699219 1635.398438 C 2385.371094 1658.5 2421.761719 1683.75 2467.488281 1702.5 C 2497.878906 1714.949219 2559.359375 1717.199219 2589.050781 1723.96875 C 2646.808594 1729.03125 2691.941406 1741.449219 2747.511719 1737.921875 C 2809.519531 1733.988281 2862.96875 1696.308594 2930.71875 1697.558594 C 2943.949219 1697.800781 2956.359375 1696.011719 2967.921875 1692.769531 C 2970.769531 1692.929688 2973.589844 1693.03125 2976.378906 1693.078125 L 2976.378906 1083.460938 C 2962.339844 1086.199219 2960.640625 1074.199219 2956.109375 1053.929688 C 2949.78125 1105.269531 2974.378906 1094.21875 2976.148438 1106.300781 C 2963.050781 1109.921875 2954.578125 1111.988281 2937.828125 1089.160156 C 2948.429688 1124.71875 2952.78125 1128.660156 2974.339844 1125.179688 C 2949.429688 1140.390625 2949.671875 1143.109375 2929.160156 1122.949219 C 2949.570312 1170.140625 2953.25 1147.738281 2971.949219 1158.261719 C 2951.179688 1172.640625 2942.539062 1171.769531 2920.121094 1148.21875 C 2957.671875 1238.300781 2975.171875 1172.140625 2972.75 1194.5 C 2950.78125 1212.179688 2933.878906 1220.300781 2910.351562 1188.21875 C 2927.078125 1245.238281 2941.890625 1229.910156 2962.800781 1236.449219 C 2935.21875 1252.429688 2940.070312 1263.328125 2909.410156 1229.261719 C 2934.371094 1308.988281 2938.78125 1268.878906 2957.160156 1289.480469 C 2902.371094 1297.550781 2913.171875 1302.921875 2885.699219 1259.339844 C 2886.710938 1263.980469 2887.660156 1268.261719 2888.578125 1272.21875 C 2837.738281 1324.96875 2836.578125 1313.570312 2774.75 1303.261719 C 2797.359375 1281.441406 2828.300781 1304.878906 2871.820312 1232.921875 C 2816.28125 1270.421875 2774.429688 1269.558594 2764.371094 1241.339844 C 2829.890625 1234.808594 2835.320312 1248.46875 2855.730469 1154.21875 C 2818.71875 1212.910156 2833.269531 1205.691406 2759.46875 1194.820312 C 2784.21875 1167.070312 2790.160156 1221.101562 2823.789062 1113.710938 C 2782.480469 1159.589844 2789.03125 1144.898438 2751.871094 1123.390625 C 2780.039062 1114.570312 2799.988281 1135.230469 2822.519531 1058.410156 C 2790.820312 1101.628906 2768.050781 1090.679688 2738.46875 1066.871094 C 2735.199219 1036.75 2758.769531 1125.878906 2809.359375 1004.53125 C 2779.160156 1036.25 2767.53125 1037.410156 2739.550781 1018.058594 C 2764.730469 1003.871094 2769.691406 1034.058594 2797.179688 970.484375 C 2769.570312 997.632812 2769.871094 993.96875 2736.308594 973.492188 C 2765.359375 978.1875 2771.21875 972.867188 2785.511719 924.96875 C 2762.929688 955.734375 2751.53125 952.9375 2733.878906 948.042969 C 2736.269531 931.773438 2769.410156 946.671875 2760.878906 877.515625 C 2754.5 906.070312 2752.289062 922.445312 2730.871094 916.664062 C 2713.800781 912.058594 2760.238281 897.789062 2758.851562 856.945312 C 2751.03125 870.097656 2744.089844 880.527344 2728.089844 881.289062 C 2720.351562 881.65625 2719.640625 842.195312 2718.320312 833.230469 "/></svg>