<svg xmlns="http://www.w3.org/2000/svg" xmlns:xlink="http://www.w3.org/1999/xlink" width="2976.38" height="1831.61" viewBox="0 0 2976.38 1831.61">
    <path xmlns="http://www.w3.org/2000/svg" fill-rule="evenodd" fill="rgb(4.15802%, 6.65741%, 9.176636%)" fill-opacity="1" d="M 628.605469 1291.320312 C 659.308594 1302.078125 696.167969 1303.75 703.128906 1293.328125 C 664.160156 1290.078125 650.300781 1284.050781 636.691406 1260.679688 C 635.300781 1271.628906 632.777344 1281.789062 628.605469 1291.320312 Z M 609.601562 1293.851562 C 605.863281 1289.679688 602.761719 1285.660156 600.308594 1282.171875 C 595.238281 1293.460938 584.914062 1302.429688 558.921875 1316.371094 C 587.070312 1312.730469 594.71875 1310.96875 609.601562 1293.851562 Z M 669.589844 1325.941406 C 649.75 1324.75 633.429688 1315.601562 621.085938 1305.089844 C 611.265625 1319.859375 596.253906 1333.109375 573.71875 1345.53125 C 604.820312 1346.128906 638.304688 1344.398438 669.589844 1325.941406 Z M 747.832031 1079.988281 C 758.699219 1080.71875 766.257812 1076.609375 769.148438 1068.488281 C 761.265625 1067.710938 754.929688 1067.441406 749.71875 1066.988281 C 748.992188 1071.660156 748.390625 1075.96875 747.832031 1079.988281 Z M 721.84375 1071.71875 C 728.746094 1075.28125 735.121094 1077.671875 740.828125 1078.941406 C 742.835938 1075.179688 745.039062 1071.128906 747.476562 1066.78125 C 738.320312 1065.800781 732.914062 1063.808594 728.570312 1056.21875 C 726.4375 1061.949219 724.289062 1067.050781 721.84375 1071.71875 Z M 742.847656 1107.300781 C 748.210938 1106.351562 754.71875 1104.878906 763.289062 1103.449219 C 758.15625 1098.5 752.269531 1097.679688 745.46875 1095.820312 C 744.742188 1099.941406 743.910156 1103.730469 742.847656 1107.300781 Z M 705.445312 1092.429688 C 713.796875 1100.648438 719.492188 1105.019531 724.96875 1107.019531 C 727.894531 1102.960938 730.804688 1097.789062 734.199219 1091.441406 C 729.3125 1088.761719 724.035156 1084.621094 718.332031 1077.769531 C 714.878906 1083.121094 710.765625 1087.878906 705.445312 1092.429688 Z M 719.476562 1138.96875 C 724.425781 1139.53125 730.902344 1139.019531 742.675781 1138.878906 C 744.785156 1136.800781 746.941406 1134.441406 749.214844 1131.75 C 744.699219 1131.019531 738.578125 1130.699219 731.664062 1127.671875 C 728.445312 1131.351562 724.46875 1135.058594 719.476562 1138.96875 Z M 682.160156 1114.921875 L 681.820312 1114.179688 L 683.097656 1115.160156 C 699.316406 1119.429688 708.710938 1119.851562 715.878906 1115.78125 C 711.394531 1110.761719 706.824219 1104.03125 702.339844 1094.949219 C 694.902344 1100.699219 685.300781 1106.179688 672.355469 1112.101562 C 675.878906 1113.171875 679.132812 1114.101562 682.160156 1114.921875 Z M 705.871094 1155.480469 C 704.640625 1154.109375 703.402344 1152.589844 702.132812 1150.910156 C 698.628906 1153.101562 694.828125 1155.371094 690.699219 1157.761719 C 696.402344 1156.96875 701.398438 1156.238281 705.871094 1155.480469 Z M 727.789062 1183.148438 C 733.910156 1182.789062 740.273438 1180.230469 748.28125 1175.910156 C 745.425781 1174.820312 742.753906 1173.910156 740.238281 1173.101562 C 736.394531 1176.488281 732.25 1179.839844 727.789062 1183.148438 Z M 648.519531 1247.128906 C 668.285156 1266.328125 667.824219 1268.820312 721.492188 1262.851562 C 708.816406 1257.621094 690.90625 1257.089844 675.707031 1243.449219 C 666.25 1244.488281 657.273438 1245.808594 648.519531 1247.128906 Z M 606.765625 1252.679688 C 605.15625 1263.171875 604.210938 1271.148438 601.90625 1278.078125 C 606.074219 1281.050781 610.84375 1283.761719 615.980469 1286.191406 C 621.410156 1279.429688 627.933594 1270.921875 636.386719 1260.148438 C 634.585938 1257.019531 632.78125 1253.570312 630.921875 1249.789062 C 622.867188 1250.96875 614.878906 1252 606.765625 1252.679688 Z M 582.820312 1253.488281 C 575.757812 1264.410156 565.390625 1272.199219 543.757812 1281.390625 C 583.59375 1292.539062 582.964844 1285.761719 602.066406 1253.03125 C 595.773438 1253.449219 589.386719 1253.640625 582.820312 1253.488281 Z M 504.25 1075.578125 L 501.5625 1076.390625 C 504.78125 1078.679688 508.347656 1080.320312 512.101562 1081.390625 C 515.5625 1080.761719 519.164062 1080.058594 522.9375 1079.351562 C 515.0625 1076.390625 509.265625 1076.050781 504.25 1075.578125 Z M 519.484375 1021.160156 C 516.152344 1027.339844 511.582031 1029.921875 500.59375 1035.128906 C 512.128906 1039.269531 522.238281 1035.988281 536.949219 1027.429688 C 530.417969 1024.75 524.683594 1022.859375 519.484375 1021.160156 Z M 497.976562 1012 L 495.941406 1012.949219 L 500.9375 1013.789062 C 499.941406 1013.230469 498.953125 1012.628906 497.976562 1012 Z M 513.816406 962.894531 C 509.207031 972.226562 505.554688 976.027344 500.886719 979.042969 C 505.066406 979.722656 510.054688 979.597656 517.605469 979.382812 C 518.300781 978.058594 518.980469 976.617188 519.652344 975.042969 L 518.988281 979.351562 C 526.027344 979.152344 535.207031 978.917969 547.777344 979.171875 C 546.863281 965.066406 532.328125 973.421875 513.816406 962.894531 Z M 500.917969 952.5625 C 497.25 956.941406 492.625 961.636719 486.859375 968.179688 C 495.917969 967.109375 501.675781 965.796875 509.28125 959.972656 C 506.542969 957.992188 503.75 955.554688 500.917969 952.5625 Z M 492.613281 942.117188 C 490.628906 944.671875 488.203125 947.445312 485.246094 950.558594 C 489.136719 950.570312 492.738281 949.183594 496.066406 946.863281 C 494.914062 945.390625 493.769531 943.816406 492.613281 942.117188 Z M 483.296875 925.855469 C 483.257812 927.042969 483.234375 928.257812 483.226562 929.53125 C 483.925781 929.71875 484.617188 929.800781 485.308594 929.8125 C 484.636719 928.53125 483.960938 927.21875 483.296875 925.855469 Z M 467.351562 1010.058594 C 467.761719 1005.871094 467.082031 1006.390625 465.296875 1008.019531 Z M 552.8125 1254.390625 C 555.121094 1253.410156 557.421875 1252.371094 559.722656 1251.25 C 552.261719 1249.851562 544.929688 1247.820312 537.644531 1245.488281 C 536.414062 1246.789062 535.128906 1248.210938 533.769531 1249.808594 C 540.074219 1254.058594 546.484375 1255.300781 552.8125 1254.390625 Z M 439.804688 1139.539062 L 438.300781 1140.300781 C 440.59375 1141.511719 443.050781 1142.449219 445.835938 1143.128906 C 443.929688 1141.519531 441.921875 1140.398438 439.804688 1139.539062 Z M 440.101562 961.792969 C 448.816406 969.523438 451.644531 968.285156 462.910156 961.304688 L 461.6875 958.609375 C 454.808594 958.839844 450.933594 956.566406 447.25 948.898438 C 444.332031 953.789062 442.015625 958.054688 440.101562 961.792969 Z M 431.640625 979.796875 C 436.019531 984.03125 439.6875 986.914062 443.101562 988.554688 L 439.976562 981.660156 L 447.914062 990.078125 C 453.496094 990.902344 459.003906 988.332031 466.695312 983.015625 C 453.867188 975.792969 450.332031 988.933594 438.378906 965.257812 C 435.363281 971.429688 433.480469 976.046875 431.640625 979.796875 Z M 444.734375 1022.339844 C 448.773438 1022.089844 452.78125 1020.5 456.929688 1018.03125 L 454.238281 1012.449219 C 452.90625 1012.191406 451.480469 1011.640625 449.949219 1010.699219 C 448.027344 1015.089844 446.351562 1018.921875 444.734375 1022.339844 Z M 423.144531 1015.898438 C 422.050781 1012.921875 420.953125 1009.558594 419.851562 1005.789062 C 422.460938 1009.351562 424.960938 1012.25 427.378906 1014.578125 C 432.375 1012.761719 437.960938 1009.878906 444.355469 1005.808594 C 440.230469 1001.210938 435.546875 993.816406 430.3125 982.335938 C 425.433594 991.054688 419.085938 995.054688 392.398438 1006.230469 C 402.105469 1015.148438 410.875 1019.058594 423.144531 1015.898438 Z M 427.019531 1045.488281 C 441.902344 1060.671875 441.503906 1053.03125 459.734375 1042.46875 C 450.707031 1039.648438 443.164062 1042.191406 436.011719 1036.96875 C 433.550781 1040 430.679688 1042.75 427.019531 1045.488281 Z M 401.257812 1060.128906 L 401.820312 1061.019531 C 411.496094 1064.390625 417.992188 1066.109375 423.253906 1066.261719 C 421.941406 1061.359375 420.730469 1056.089844 419.636719 1050.421875 C 414.734375 1053.371094 408.742188 1056.511719 401.257812 1060.128906 Z M 401.3125 1060.839844 L 401.164062 1060.171875 L 400.429688 1060.53125 Z M 443.734375 1109.648438 L 442.597656 1108.238281 C 428.582031 1107.261719 420.78125 1107.160156 415.132812 1101.019531 C 411.1875 1102.070312 406.746094 1102.890625 401.699219 1103.429688 C 414.9375 1112.03125 428.109375 1114.320312 443.734375 1109.648438 Z M 262.398438 1052.699219 C 259.644531 1049.671875 256.875 1046.089844 254.09375 1041.820312 C 252.757812 1046.128906 252.46875 1050.941406 252.421875 1056.878906 C 256.023438 1057.851562 259.453125 1056.148438 262.398438 1052.699219 Z M 268.019531 1078.921875 C 271.871094 1079.179688 276.601562 1079.011719 283.328125 1078.839844 C 283.96875 1078.210938 284.640625 1077.558594 285.320312 1076.871094 L 284.53125 1078.808594 C 290.808594 1078.660156 298.765625 1078.519531 309.210938 1078.71875 C 308.339844 1066.28125 294.378906 1073.828125 276.691406 1064.21875 C 274.820312 1070.070312 272.003906 1074.261719 268.019531 1078.921875 Z M 255.402344 1075.058594 C 255.96875 1075.398438 256.523438 1075.699219 257.074219 1075.988281 C 263.605469 1074.78125 269.203125 1069.351562 273.914062 1062.589844 C 271.777344 1061.230469 269.597656 1059.609375 267.382812 1057.660156 C 265.558594 1062.71875 262.066406 1067.898438 255.402344 1075.058594 Z M 274.734375 1112.941406 C 269.867188 1111.300781 265.460938 1109.46875 261.191406 1106.730469 C 259.988281 1107.398438 258.707031 1108.128906 257.316406 1108.96875 C 263.179688 1112.941406 269.148438 1115.410156 274.734375 1112.941406 Z M 273.304688 1129.160156 C 278.351562 1129.300781 283.441406 1128.050781 289.199219 1125.648438 L 292.660156 1120.941406 L 291.605469 1124.589844 C 293.941406 1123.53125 296.402344 1122.289062 299.011719 1120.878906 C 293.167969 1118.648438 288.007812 1117.070312 283.3125 1115.628906 C 281.890625 1122.390625 279.832031 1125.449219 273.304688 1129.160156 Z M 231.625 1104.070312 C 232.882812 1105.230469 234.105469 1106.351562 235.296875 1107.421875 C 235.910156 1107.019531 236.542969 1106.578125 237.195312 1106.140625 C 235.097656 1104.949219 233.269531 1104.371094 231.625 1104.070312 Z M 271.613281 1168.691406 C 276.0625 1167.980469 280.765625 1167.140625 285.792969 1166.25 C 277.613281 1163.410156 271.8125 1163.328125 266.765625 1162.820312 C 268.09375 1165.160156 269.734375 1167.199219 271.613281 1168.691406 Z M 213.039062 1157.980469 C 216.632812 1161.058594 220.191406 1163.5 223.78125 1165.390625 C 225.746094 1164.019531 228.039062 1162.488281 230.789062 1160.898438 C 224.175781 1158.828125 218.433594 1159.890625 213.039062 1157.980469 Z M 209.980469 1221.128906 C 213.78125 1222.378906 218.203125 1223.058594 223.890625 1223.230469 C 224.03125 1222.910156 224.164062 1222.578125 224.285156 1222.238281 C 218.746094 1221.691406 214.035156 1221.410156 209.980469 1221.128906 Z M 309.03125 1314.011719 C 302.8125 1312.441406 296.652344 1310.558594 290.492188 1308.570312 C 296.519531 1312.050781 302.574219 1313.890625 309.03125 1314.011719 Z M 351.394531 1340.421875 C 368.515625 1341.921875 382.621094 1339.941406 386.664062 1333.898438 C 373.878906 1332.839844 363.792969 1331.46875 355.53125 1329.300781 C 354.066406 1333.339844 352.730469 1337.03125 351.394531 1340.421875 Z M 321.480469 1334.851562 C 328.882812 1336.929688 336.421875 1338.511719 343.644531 1339.53125 C 346.976562 1336.101562 350.132812 1332.378906 353.058594 1328.601562 C 346.945312 1326.78125 341.882812 1324.441406 337.445312 1321.339844 C 330.953125 1329.101562 326.074219 1332.371094 321.480469 1334.851562 Z M 318.613281 1355.691406 C 313.523438 1352.699219 308.871094 1349.289062 304.683594 1345.730469 C 302.910156 1347.421875 301.027344 1349.421875 298.972656 1351.851562 C 305.472656 1356.238281 312.109375 1357.140625 318.613281 1355.691406 Z M 355.101562 1366.601562 C 348.761719 1366.398438 342.773438 1365.378906 337.140625 1363.761719 C 330.859375 1369.789062 322.027344 1375.050781 308.160156 1380.929688 C 339.453125 1389.699219 343.644531 1386.449219 355.101562 1366.601562 Z M 386.921875 1369.761719 C 379.636719 1368.121094 372.144531 1366.960938 364.328125 1366.691406 C 361.085938 1385.839844 356.273438 1394.859375 322.128906 1413.148438 C 357.203125 1408.621094 357.726562 1407.238281 386.921875 1369.761719 Z M 125.585938 1398.148438 C 135.054688 1405.121094 144.78125 1405.199219 180.394531 1401.230469 C 167.628906 1395.960938 149.078125 1395.871094 134.351562 1379.480469 C 131.070312 1386.011719 128.464844 1392.320312 125.585938 1398.148438 Z M 99.429688 1374.191406 C 105.613281 1379.449219 110.269531 1383.910156 114.097656 1387.628906 C 118.683594 1385.089844 123.746094 1381.070312 131.210938 1375.660156 C 126.976562 1370 123.140625 1362.730469 119.972656 1353.269531 C 115.230469 1361.839844 109.9375 1367.648438 99.429688 1374.191406 Z M 97.605469 1390.449219 C 95.804688 1386.828125 93.933594 1382.859375 91.960938 1378.5 C 88.167969 1380.550781 83.851562 1382.730469 78.882812 1385.121094 C 86.898438 1387.949219 92.804688 1389.71875 97.605469 1390.449219 Z M 149.292969 1435.261719 C 156.234375 1434.429688 161.363281 1432.46875 163.488281 1429.300781 C 160.109375 1429.019531 156.945312 1428.710938 153.957031 1428.371094 C 152.339844 1430.851562 150.78125 1433.148438 149.292969 1435.261719 Z M 91.34375 1426.171875 C 101.238281 1429.949219 112.023438 1432.679688 122.203125 1434.238281 C 127.898438 1432.53125 133.925781 1429.921875 140.390625 1426.339844 C 128.875 1424.03125 120.847656 1420.53125 114.242188 1414.640625 C 108.902344 1419.738281 101.777344 1423.738281 91.34375 1426.171875 Z M 155.742188 1460.769531 C 149.949219 1459.839844 143.980469 1459.328125 137.792969 1459.441406 C 134.238281 1459.5 130.800781 1459.28125 127.480469 1458.820312 C 116.539062 1466.421875 108.484375 1465.929688 93.714844 1483.480469 C 115.351562 1498.050781 138.167969 1481.53125 155.742188 1460.769531 Z M 795.144531 838.089844 C 798.691406 863.1875 800.859375 863.15625 811.832031 851.304688 C 810.4375 860.675781 805.921875 863.035156 803.214844 868.375 C 800.285156 874.15625 799.765625 880.5 799.703125 888.949219 C 807.515625 891.058594 814.59375 881.558594 818.15625 868.605469 C 818.113281 885.699219 818.402344 892.433594 801.71875 909.980469 C 812.796875 910.023438 821.582031 898.699219 828.230469 886.746094 C 825.628906 906.160156 818.300781 910.617188 803.328125 927.601562 C 815.8125 926.128906 822.007812 924.203125 835.425781 910.648438 C 824.105469 938.761719 819.753906 936.550781 805.023438 945.507812 C 815.9375 952.921875 827.199219 955.503906 836.121094 934.464844 C 831.835938 961.410156 834.390625 962.238281 812.410156 972.371094 C 832.546875 975.75 830.429688 975.964844 843.390625 958.511719 C 835.296875 986.402344 836.253906 985.511719 812.316406 996.792969 C 817.652344 1016.011719 839.101562 1028.878906 859.757812 974.375 C 852.902344 1028.148438 848.25 1026.5 818.03125 1035.820312 C 836.054688 1048.589844 864.867188 1041.480469 878.398438 1024.910156 C 857.257812 1060.351562 871.519531 1058.039062 830.195312 1075.351562 C 844.660156 1088.648438 856.753906 1089.269531 885.542969 1068.300781 C 870.507812 1101.359375 872.449219 1106.03125 837.238281 1122.988281 C 865.933594 1133.128906 863.839844 1127.589844 890.800781 1109.300781 C 875.691406 1133.078125 877.8125 1156.078125 839.09375 1160.519531 L 839.050781 1161.039062 C 859.664062 1174.050781 880.238281 1169.578125 913.167969 1144.410156 C 877.867188 1205.609375 873.8125 1181.25 850.246094 1209.238281 C 873.761719 1225.089844 898.867188 1199.039062 914.851562 1175.929688 C 901.695312 1211.730469 900.070312 1223.898438 860.222656 1240.808594 C 904.078125 1253.078125 898.894531 1243.640625 924.960938 1201.78125 C 917.824219 1240.988281 924.113281 1249.679688 875.386719 1275.789062 C 916.28125 1270.519531 913.910156 1269.179688 953.296875 1219.011719 C 949.105469 1254.039062 933.589844 1281.019531 890.1875 1304.949219 C 925.320312 1305.628906 963.496094 1303.339844 998.105469 1277.308594 C 997.53125 1293.019531 972.074219 1314.371094 936.757812 1328.839844 C 919.597656 1335.871094 884.890625 1337.140625 868.128906 1340.980469 C 835.519531 1343.828125 810.042969 1350.839844 778.671875 1348.839844 C 744.929688 1346.691406 715.683594 1326.878906 679.375 1326.070312 C 672.378906 1340.460938 649.773438 1357.328125 620.28125 1369.421875 C 603.132812 1376.449219 568.421875 1377.71875 551.65625 1381.550781 C 519.046875 1384.390625 493.574219 1391.410156 462.199219 1389.421875 C 437.992188 1387.878906 416.09375 1377.230469 392.25 1371.050781 C 386.636719 1398.441406 371.421875 1420.339844 335.769531 1440.011719 C 368.121094 1440.628906 403.277344 1438.53125 435.152344 1414.539062 C 434.617188 1429.019531 411.179688 1448.679688 378.644531 1462.019531 C 362.847656 1468.488281 330.886719 1469.660156 315.441406 1473.179688 C 285.414062 1475.800781 261.949219 1482.269531 233.054688 1480.429688 C 208.351562 1478.859375 186.265625 1467 161.445312 1461.820312 C 150.890625 1490.5 143.867188 1503.019531 105.09375 1519.460938 C 155.09375 1533.46875 149.179688 1522.699219 178.90625 1474.960938 C 170.761719 1519.679688 177.941406 1529.578125 122.386719 1559.351562 C 169.007812 1553.328125 166.304688 1551.808594 211.214844 1494.609375 C 206.433594 1534.550781 188.75 1565.308594 139.265625 1592.609375 C 179.316406 1593.378906 222.832031 1590.769531 262.304688 1561.089844 C 261.648438 1578.988281 232.621094 1603.339844 192.355469 1619.851562 C 172.789062 1627.859375 133.21875 1629.308594 114.101562 1633.679688 C 76.921875 1636.929688 47.878906 1644.921875 12.101562 1642.648438 C 8.015625 1642.390625 3.992188 1641.898438 0 1641.238281 L 0 1325.808594 C 0.472656 1324.941406 0.890625 1323.988281 1.246094 1323 L 0 1322.878906 L 0 1293.71875 L 4.402344 1293.050781 C 2.824219 1291.28125 1.371094 1290.039062 0 1289.148438 L 0 1253.050781 C 2.578125 1251.238281 5.601562 1249.210938 9.300781 1247.070312 C 6.046875 1246.039062 2.949219 1245.640625 0 1245.371094 L 0 1222.261719 C 5.738281 1219.96875 11.582031 1215.789062 17.921875 1210.679688 C 19.296875 1198.050781 13.328125 1217.988281 0 1211.828125 L 0 1187.398438 C 5.046875 1186.839844 10.375 1184.011719 17.226562 1179.269531 C 9.535156 1174.941406 4.773438 1177.03125 0 1176.058594 L 0 1160.941406 C 4.464844 1160.121094 9.757812 1156.410156 19.3125 1150.578125 C 10.023438 1152.078125 4.417969 1151.988281 0 1147.738281 L 0 1132.570312 C 7.414062 1137.828125 13.234375 1136.320312 20.875 1134.199219 C 19.332031 1123.730469 -1.992188 1133.320312 3.503906 1088.789062 C 7.609375 1107.171875 9.023438 1117.71875 22.8125 1114.011719 C 33.808594 1111.039062 3.902344 1101.851562 4.804688 1075.550781 C 9.828125 1084.03125 14.308594 1090.738281 24.601562 1091.230469 C 29.585938 1091.46875 30.042969 1066.070312 30.890625 1060.289062 C 34.9375 1088.910156 37.402344 1088.878906 49.921875 1075.378906 C 48.324219 1086.050781 43.167969 1088.738281 40.09375 1094.828125 C 36.757812 1101.410156 36.15625 1108.648438 36.082031 1118.28125 C 44.992188 1120.699219 53.058594 1109.851562 57.132812 1095.078125 C 57.074219 1114.578125 57.414062 1122.261719 38.382812 1142.261719 C 51.027344 1142.308594 61.03125 1129.398438 68.613281 1115.769531 C 65.648438 1137.890625 57.292969 1142.980469 40.226562 1162.359375 C 54.457031 1160.679688 61.515625 1158.480469 76.808594 1143.03125 C 63.90625 1175.078125 58.945312 1172.558594 42.152344 1182.769531 C 54.597656 1191.21875 67.4375 1194.179688 77.613281 1170.179688 C 72.722656 1200.910156 75.636719 1201.839844 50.574219 1213.410156 C 73.535156 1217.25 71.121094 1217.488281 85.90625 1197.601562 C 76.671875 1229.398438 77.765625 1228.378906 50.472656 1241.25 C 56.554688 1263.160156 81.011719 1277.828125 104.5625 1215.691406 C 96.75 1276.988281 91.449219 1275.121094 56.988281 1285.738281 C 77.539062 1300.300781 110.378906 1292.191406 125.816406 1273.300781 C 101.710938 1313.71875 117.96875 1311.078125 70.855469 1330.820312 C 83.8125 1342.730469 95.09375 1345.710938 115.257812 1334.851562 C 114.558594 1331.230469 113.941406 1327.410156 113.390625 1323.320312 C 115.488281 1326.628906 117.496094 1329.671875 119.460938 1332.46875 C 123.859375 1329.851562 128.660156 1326.640625 133.960938 1322.769531 C 130.71875 1329.898438 128.164062 1335.859375 125.894531 1340.988281 C 146.828125 1366.519531 162.867188 1363.359375 194.402344 1357.820312 C 169.496094 1349.140625 171.90625 1372.25 131.234375 1288.871094 C 172.484375 1329.558594 180.027344 1334.691406 205.070312 1321.171875 C 177.03125 1310.5 168.339844 1317.789062 143.863281 1264.300781 C 172 1285.988281 170.453125 1287.648438 186.546875 1287.351562 C 143.941406 1272.429688 121.007812 1227.519531 122.859375 1229.460938 C 132.789062 1239.898438 149.058594 1248.171875 166.65625 1253.851562 C 163.890625 1249.160156 161.128906 1243.589844 158.429688 1236.96875 C 186.132812 1265.910156 186.238281 1259.878906 218.886719 1254.429688 C 207.128906 1243.089844 191.046875 1255.269531 168.425781 1217.851562 C 170.386719 1219.191406 172.324219 1220.421875 174.226562 1221.558594 C 166.847656 1209.929688 159.859375 1194.101562 150.300781 1172.300781 C 164.929688 1183.210938 174.796875 1192.078125 182.242188 1199.179688 C 180.523438 1193.46875 178.789062 1186.210938 176.78125 1176.929688 C 194.398438 1204.859375 189.5625 1204.089844 218.03125 1199.421875 C 215.316406 1197.171875 212.671875 1194.578125 210.121094 1191.558594 C 207.910156 1190.050781 205.488281 1186.96875 202.5625 1180.761719 C 195.050781 1167.851562 188.976562 1149.660156 185.507812 1123.558594 C 190.929688 1132.171875 195.980469 1139.308594 200.816406 1145.230469 C 198.585938 1140.808594 196.347656 1134.941406 194.050781 1127.109375 C 209.578125 1148.289062 220.980469 1144.460938 235.117188 1133.589844 L 233.65625 1131.101562 C 228.132812 1135.269531 217.226562 1138.261719 200.894531 1099.109375 C 210.769531 1109.46875 216.824219 1113.558594 223.570312 1112.671875 C 221.269531 1108.300781 218.839844 1103.53125 216.222656 1098.328125 C 213.738281 1095.050781 210.863281 1089.808594 207.226562 1081.398438 L 208.402344 1082.550781 L 207.59375 1080.890625 C 210.660156 1083.929688 213.582031 1086.789062 216.363281 1089.511719 C 222.796875 1093.828125 226.171875 1090.71875 238.875 1082.96875 C 223.769531 1085.398438 220.726562 1082.640625 213.296875 1057.730469 C 221.925781 1069.5 227.40625 1071.820312 233.363281 1071.21875 C 230.207031 1065.269531 226.859375 1058.429688 223.226562 1050.488281 L 226.273438 1052.851562 C 225.246094 1048.378906 224.988281 1042.101562 226.105469 1033.058594 C 229.417969 1047.910156 230.570312 1056.421875 241.707031 1053.421875 C 250.582031 1051.03125 226.4375 1043.609375 227.164062 1022.359375 C 231.21875 1029.210938 234.839844 1034.628906 243.152344 1035.03125 C 244.699219 1035.109375 245.707031 1032.109375 246.402344 1028.128906 C 244.675781 1024.609375 242.960938 1020.808594 241.257812 1016.648438 C 243.339844 1018.820312 245.289062 1020.828125 247.136719 1022.691406 C 247.679688 1017.480469 247.925781 1012.148438 248.230469 1010.039062 C 249.628906 1019.890625 250.785156 1025.539062 252.441406 1027.941406 L 253.625 1029.050781 C 255.78125 1030.171875 258.761719 1027.441406 263.597656 1022.21875 C 262.742188 1027.910156 260.636719 1030.800781 258.585938 1033.519531 C 262.335938 1036.71875 265.59375 1039.03125 268.671875 1040.660156 C 268.945312 1039.839844 269.1875 1038.988281 269.429688 1038.128906 L 269.417969 1041.039062 C 281.359375 1046.96875 290.886719 1042.46875 316.113281 1038.269531 C 301.554688 1024.21875 281.644531 1039.308594 253.625 992.976562 C 289.371094 1017.128906 316.324219 1016.570312 322.789062 998.414062 C 280.621094 994.195312 277.128906 1002.988281 263.984375 942.320312 C 287.8125 980.113281 278.441406 975.457031 325.945312 968.457031 C 310.015625 950.601562 306.195312 985.378906 284.546875 916.25 C 311.136719 945.78125 306.917969 936.335938 330.847656 922.472656 C 312.714844 916.800781 299.867188 930.101562 285.367188 880.644531 C 305.761719 908.476562 320.417969 901.433594 339.46875 886.101562 C 341.574219 866.714844 326.398438 924.074219 293.828125 845.96875 C 313.273438 866.394531 320.757812 867.148438 338.773438 854.671875 C 322.558594 845.542969 319.371094 864.972656 301.675781 824.058594 C 319.453125 841.53125 319.25 839.167969 340.855469 825.980469 C 322.15625 829.011719 318.386719 825.589844 309.1875 794.761719 C 323.71875 814.570312 331.058594 812.761719 342.421875 809.601562 C 340.878906 799.140625 319.546875 808.71875 325.039062 764.210938 C 329.144531 782.589844 330.570312 793.121094 344.355469 789.410156 C 355.351562 786.460938 325.449219 777.25 326.347656 750.96875 C 331.375 759.429688 335.851562 766.148438 346.148438 766.640625 C 351.132812 766.871094 351.589844 741.46875 352.433594 735.699219 C 356.480469 764.320312 358.949219 764.28125 371.460938 750.78125 C 369.867188 761.460938 364.714844 764.140625 361.640625 770.230469 C 358.300781 776.828125 357.695312 784.058594 357.621094 793.691406 C 366.535156 796.101562 374.605469 785.269531 378.675781 770.5 C 378.613281 789.980469 378.953125 797.671875 359.925781 817.660156 C 372.5625 817.71875 382.574219 804.820312 390.15625 791.191406 C 387.195312 813.308594 378.839844 818.378906 361.765625 837.761719 C 376 836.089844 383.058594 833.894531 398.355469 818.449219 C 385.445312 850.480469 380.484375 847.980469 363.691406 858.179688 C 376.144531 866.625 388.984375 869.578125 399.160156 845.585938 C 394.269531 876.328125 397.179688 877.257812 372.117188 888.8125 C 395.074219 892.667969 392.667969 892.910156 407.441406 873.003906 C 398.214844 904.8125 399.308594 903.785156 372.019531 916.652344 C 378.097656 938.574219 402.558594 953.234375 426.109375 891.101562 C 418.289062 952.410156 412.996094 950.539062 378.53125 961.148438 C 394.726562 972.628906 418.554688 970.019531 435.476562 959.15625 L 434.148438 956.152344 L 436.527344 958.46875 C 440.59375 955.726562 444.238281 952.496094 447.226562 948.863281 C 445.175781 944.574219 443.175781 938.605469 440.742188 930.449219 C 453.488281 947.824219 459.925781 946.246094 469.890625 943.484375 C 468.539062 934.304688 449.832031 942.710938 454.648438 903.671875 C 458.246094 919.785156 459.5 929.027344 471.589844 925.765625 C 481.234375 923.175781 455.003906 915.113281 455.792969 892.050781 C 460.203125 899.484375 464.132812 905.363281 473.160156 905.796875 C 477.53125 906.007812 477.933594 883.730469 478.675781 878.667969 C 482.226562 903.765625 484.386719 903.734375 495.363281 891.882812 C 493.960938 901.253906 489.449219 903.613281 486.75 908.953125 C 485.40625 911.589844 484.574219 914.34375 484.054688 917.351562 C 487.273438 920.800781 490.179688 923.769531 492.84375 926.300781 C 496.574219 922.644531 499.6875 916.460938 501.691406 909.1875 C 501.660156 918.640625 501.738281 924.929688 498.976562 931.648438 C 501.511719 933.636719 503.851562 935.179688 506.125 936.347656 C 508.152344 933.507812 510.03125 930.4375 511.765625 927.324219 C 511.21875 931.378906 510.464844 934.792969 509.476562 937.800781 C 520.527344 941.746094 531.144531 937.183594 555.097656 932.875 C 539.65625 916.800781 518.53125 934.0625 488.8125 881.050781 C 526.734375 908.6875 555.320312 908.042969 562.1875 887.257812 C 517.449219 882.449219 513.738281 892.511719 499.796875 823.058594 C 525.078125 866.316406 515.132812 860.980469 565.535156 852.976562 C 548.628906 832.539062 544.574219 872.335938 521.609375 793.230469 C 549.816406 827.03125 545.347656 816.210938 570.730469 800.359375 C 551.488281 793.859375 537.867188 809.089844 522.484375 752.5 C 544.117188 784.328125 559.675781 776.28125 579.875 758.730469 C 582.109375 736.539062 566.007812 802.191406 531.460938 712.808594 C 552.09375 736.179688 560.027344 737.039062 579.140625 722.761719 C 561.9375 712.320312 558.5625 734.558594 539.78125 687.71875 C 558.644531 707.71875 558.433594 705.019531 581.351562 689.941406 C 561.511719 693.398438 557.511719 689.480469 547.757812 654.179688 C 563.167969 676.871094 570.953125 674.800781 583.011719 671.191406 C 581.378906 659.210938 558.742188 670.179688 564.578125 619.230469 C 568.925781 640.269531 570.4375 652.328125 585.0625 648.070312 C 596.730469 644.679688 565.007812 634.160156 565.960938 604.070312 C 571.292969 613.769531 576.039062 621.449219 586.960938 622.019531 C 592.25 622.289062 592.738281 593.21875 593.636719 586.601562 C 597.929688 619.371094 600.546875 619.308594 613.820312 603.859375 C 612.128906 616.078125 606.667969 619.160156 603.402344 626.128906 C 599.851562 633.671875 599.222656 641.960938 599.144531 652.980469 C 608.59375 655.730469 617.15625 643.328125 621.480469 626.429688 C 621.410156 648.730469 621.765625 657.519531 601.582031 680.421875 C 614.988281 680.46875 625.613281 665.699219 633.652344 650.109375 C 630.507812 675.429688 621.644531 681.230469 603.535156 703.398438 C 618.632812 701.5 626.128906 698.988281 642.351562 681.289062 C 628.65625 717.960938 623.394531 715.089844 605.574219 726.769531 C 618.785156 736.449219 632.414062 739.820312 643.199219 712.359375 C 638.019531 747.539062 641.105469 748.609375 614.515625 761.828125 C 638.871094 766.238281 636.316406 766.519531 651.992188 743.75 C 642.203125 780.140625 643.363281 778.980469 614.414062 793.699219 C 620.859375 818.78125 646.8125 835.570312 671.796875 764.449219 C 663.496094 834.613281 657.875 832.464844 621.324219 844.625 C 643.125 861.289062 677.972656 852.003906 694.339844 830.378906 C 668.765625 876.644531 686.011719 873.625 636.03125 896.203125 C 653.535156 913.5625 668.152344 914.355469 702.976562 887.011719 C 684.796875 930.140625 687.144531 936.242188 644.550781 958.351562 C 679.261719 971.597656 676.726562 964.367188 709.339844 940.496094 C 690.945312 971.730469 693.679688 1001.929688 645.902344 1007.441406 C 671.117188 1025.128906 696.113281 1019.53125 736.394531 986.308594 C 693.691406 1066.179688 688.785156 1034.378906 660.28125 1070.921875 C 676.535156 1082.71875 693.402344 1076.699219 708.492188 1063.75 L 708.488281 1063.738281 L 708.492188 1063.738281 C 714.144531 1058.890625 719.546875 1053.070312 724.566406 1046.851562 C 722.34375 1040.210938 720.175781 1031.308594 717.574219 1019.300781 C 723.570312 1028.808594 727.164062 1035.25 730.226562 1039.46875 C 733.136719 1035.480469 735.878906 1031.441406 738.429688 1027.460938 C 736.523438 1033.058594 734.816406 1038.210938 733.210938 1042.96875 C 739.488281 1049.011719 746.207031 1046.011719 771.914062 1042.230469 C 757.941406 1026.558594 754.589844 1057.058594 735.601562 996.433594 C 758.925781 1022.328125 755.230469 1014.050781 776.207031 1001.910156 C 760.304688 996.917969 749.039062 1008.589844 736.324219 965.214844 C 754.207031 989.613281 767.070312 983.4375 783.773438 969.988281 C 785.613281 952.984375 772.308594 1003.300781 743.746094 934.792969 C 760.800781 952.707031 767.367188 953.367188 783.160156 942.4375 C 768.949219 934.433594 766.148438 951.46875 750.625 915.582031 C 766.222656 930.90625 766.039062 928.839844 784.984375 917.277344 C 768.59375 919.921875 765.285156 916.925781 757.214844 889.871094 C 769.957031 907.246094 776.398438 905.671875 786.363281 902.90625 C 785.007812 893.722656 766.304688 902.132812 771.125 863.09375 C 774.722656 879.207031 775.976562 888.449219 788.058594 885.191406 C 797.707031 882.59375 771.480469 874.539062 772.261719 851.472656 C 776.675781 858.90625 780.597656 864.796875 789.636719 865.21875 C 794.003906 865.429688 794.40625 843.152344 795.144531 838.089844 "/>
    <path fill-rule="evenodd" fill="rgb(1.713562%, 2.252197%, 2.304077%)" fill-opacity="1" d="M 1314.371094 798.820312 C 1315.421875 798.96875 1315.351562 798.78125 1318.820312 802.03125 C 1317.46875 801.078125 1316.011719 800.019531 1314.371094 798.820312 Z M 1301.179688 726.101562 C 1298.820312 731.230469 1296.488281 736.199219 1296.21875 737.960938 C 1295.878906 741.730469 1291.53125 746.890625 1294.308594 764.261719 C 1296.75 778.601562 1309.410156 790.269531 1310.851562 792.039062 C 1312.191406 794.039062 1310.5 794.539062 1308.171875 794.128906 L 1307.941406 794.089844 L 1306.800781 793.25 C 1290.359375 781.238281 1286.140625 765.21875 1286.140625 765.21875 C 1279.019531 747.488281 1297.070312 729.070312 1301 726.238281 Z M 1339.890625 675.398438 L 1340.019531 676.390625 C 1340.609375 682.089844 1338.839844 690.351562 1336.019531 691.371094 C 1334.671875 691.929688 1333.511719 691.449219 1332.488281 690.101562 C 1332.339844 689.039062 1332.320312 688.089844 1332.300781 687.511719 C 1332.46875 685.300781 1337.511719 680.289062 1339.890625 675.398438 Z M 1393.46875 797.859375 C 1389.878906 800.769531 1385.640625 804.050781 1380.75 807.628906 C 1379.101562 808.839844 1377.261719 810.128906 1375.171875 811.460938 C 1375.640625 811.058594 1376.058594 810.699219 1376.421875 810.390625 C 1378.429688 808.699219 1386.148438 803.371094 1393.46875 797.859375 Z M 1447.039062 805.859375 C 1447.121094 805.609375 1447.289062 805.371094 1447.511719 805.109375 Z M 1008.691406 1142.929688 C 1009.199219 1145.339844 1010.21875 1149.871094 1011.660156 1143.96875 L 1011.671875 1143.941406 C 1012.300781 1144 1012.898438 1143.660156 1013.390625 1142.359375 C 1013.199219 1146.601562 1014.359375 1149.03125 1016.238281 1150.25 C 1017.050781 1152.078125 1024.488281 1160.308594 1030.558594 1159.300781 C 1037.011719 1158.121094 1037.019531 1157.558594 1040.910156 1156.398438 C 1041.371094 1156.269531 1041.210938 1155.640625 1040.691406 1154.769531 C 1042.019531 1154.480469 1043.351562 1154.011719 1042.738281 1153.289062 C 1040.199219 1149.730469 1036.328125 1146.578125 1034.941406 1145.5 C 1034.910156 1144.519531 1033.710938 1143.339844 1030.679688 1141.800781 C 1027.921875 1137.480469 1024.140625 1138.96875 1022.960938 1132.53125 C 1022.960938 1132.53125 1017.308594 1101.851562 1025.398438 1082.71875 C 1029.738281 1072.601562 1040.121094 1070.429688 1043.328125 1069.480469 C 1046.371094 1068.570312 1060.089844 1057.871094 1063.078125 1054.960938 C 1066.238281 1051.988281 1069.339844 1047.578125 1073.449219 1044.699219 C 1077.191406 1042.171875 1080.140625 1039.039062 1082.371094 1036.011719 C 1083.019531 1039.359375 1083.179688 1044.410156 1082.429688 1049.558594 C 1081.339844 1057.609375 1074.921875 1070 1072.828125 1072.269531 C 1070.808594 1074.710938 1074.460938 1078.960938 1074.980469 1080.089844 C 1075.449219 1081.050781 1078.160156 1085.210938 1080.308594 1087.511719 C 1082.46875 1089.800781 1103.160156 1118.558594 1103.820312 1120.761719 C 1104.519531 1122.648438 1108.328125 1130.699219 1110.839844 1132.570312 C 1111.550781 1134 1115.199219 1138.730469 1113.511719 1131.148438 C 1114.46875 1130.738281 1115.808594 1131.96875 1118.070312 1132.71875 C 1118.5 1133.640625 1126.648438 1140.851562 1132.578125 1139.578125 C 1138.421875 1138.210938 1138.148438 1137.921875 1142.21875 1136.160156 C 1142.671875 1135.96875 1142.339844 1135.269531 1141.570312 1134.339844 C 1142.011719 1134.25 1144.121094 1133.71875 1142.519531 1132.210938 C 1139.71875 1129.5 1135.871094 1126.890625 1134.25 1125.828125 C 1134.011719 1124.488281 1131.988281 1123.398438 1129.800781 1122.21875 C 1124.589844 1119.53125 1119.679688 1119.71875 1118.039062 1118.550781 C 1114.71875 1116.039062 1096.921875 1090.828125 1095.851562 1087.839844 C 1094.660156 1085.070312 1091.78125 1080.96875 1092.039062 1078.128906 C 1092.519531 1075.421875 1096.648438 1070.140625 1096.648438 1070.140625 C 1099.808594 1067.179688 1108.730469 1060.109375 1114.320312 1051.101562 C 1120.96875 1040.109375 1120.738281 1031.910156 1121.558594 1027.25 C 1122.941406 1020.78125 1125.351562 1018.398438 1125.691406 1016.460938 C 1125.890625 1015.828125 1126.199219 1015.011719 1126.53125 1014.199219 C 1126.558594 1014.421875 1126.589844 1014.539062 1126.589844 1014.539062 C 1126.589844 1014.539062 1133.460938 1014.148438 1135.820312 1015.289062 C 1138.128906 1016.25 1150.171875 1019.648438 1152.050781 1014.859375 C 1153.761719 1010.128906 1154.191406 1010.921875 1159.101562 1010.738281 C 1164.011719 1010.570312 1183.148438 1011.300781 1211.21875 1000 C 1211.21875 1000 1236.128906 989.828125 1239.660156 987.488281 C 1241.03125 986.585938 1244.410156 984.96875 1248.101562 983.320312 C 1250.269531 989.855469 1254.25 1001.058594 1257.558594 1006.238281 C 1262.28125 1013.46875 1263.601562 1019.140625 1263.359375 1021.421875 C 1262.898438 1027.261719 1268.179688 1032.671875 1268.179688 1032.671875 C 1268.179688 1032.671875 1278.429688 1053.511719 1278.539062 1067.441406 C 1278.539062 1067.441406 1278.351562 1072.109375 1281.480469 1074.980469 C 1281.859375 1076.738281 1283.289062 1082.410156 1284.429688 1076.71875 L 1284.441406 1076.691406 C 1286.03125 1077.371094 1286.679688 1078.980469 1287.421875 1080.398438 C 1287.289062 1081.539062 1293.121094 1090.269531 1299.839844 1089.589844 C 1306.988281 1088.929688 1306.460938 1088.351562 1310.339844 1087.199219 C 1310.808594 1087.058594 1310.621094 1086.328125 1310.039062 1085.308594 C 1310.761719 1085.011719 1311.238281 1084.488281 1310.730469 1083.589844 C 1308.371094 1079.429688 1304.679688 1076.5 1302.558594 1075.058594 C 1302.460938 1071.261719 1293.421875 1066.5 1290.691406 1058.859375 C 1289.21875 1054.519531 1279.898438 1030.648438 1279.390625 1028.960938 C 1278.839844 1027.101562 1280.441406 1022.578125 1279.890625 1018.890625 C 1279.289062 1015.019531 1276.519531 1009.421875 1276.660156 1004.960938 C 1276.929688 1001.128906 1276.648438 986.582031 1276.570312 982.296875 C 1278.03125 982.457031 1279.421875 982.265625 1280.128906 982.054688 C 1282.828125 981.25 1294.800781 980.074219 1294.800781 980.074219 C 1301.769531 980.023438 1319.570312 979.316406 1328.800781 978.21875 C 1335.960938 977.566406 1338.320312 978.703125 1339.871094 978.972656 C 1341.589844 979.195312 1346.21875 982.410156 1346.980469 983.101562 C 1347.519531 983.679688 1349.75 988.710938 1350.390625 991.460938 C 1351.019531 994.214844 1353.859375 1018.550781 1353.480469 1021.601562 C 1353.101562 1024.648438 1352.640625 1032.328125 1353.25 1035.640625 C 1354.089844 1039.761719 1354.070312 1040.800781 1354.710938 1041.058594 C 1354.949219 1041.699219 1355.359375 1042.660156 1355.898438 1043.308594 C 1356.589844 1044.390625 1357.269531 1042.351562 1357.53125 1041.351562 L 1357.53125 1041.289062 C 1358.070312 1041.371094 1358.710938 1041.488281 1359.460938 1041.699219 L 1359.730469 1041.761719 C 1360.511719 1043.011719 1361.398438 1044.671875 1361.390625 1045.710938 C 1361.339844 1047.378906 1364.050781 1053.378906 1371.640625 1052.960938 C 1376.28125 1052.789062 1377.769531 1053.070312 1377.898438 1050.941406 C 1378.558594 1050.628906 1378.890625 1049.558594 1378.519531 1047.050781 C 1378.210938 1043.921875 1376.21875 1039.378906 1374.960938 1036.738281 C 1374.980469 1036.660156 1375 1036.589844 1375.019531 1036.511719 C 1375.320312 1033.839844 1373.21875 1029.878906 1366.539062 1022.859375 C 1362.648438 1019.058594 1361.5 985.578125 1362.101562 982.644531 C 1362.75 979.878906 1361.578125 974.714844 1361.019531 972.855469 C 1360.46875 971 1357.640625 968.902344 1356.050781 967.898438 C 1354.46875 966.902344 1351.289062 965.460938 1348.808594 964.546875 C 1346.28125 963.460938 1329.898438 961.539062 1324.261719 961.746094 C 1318.621094 961.953125 1310.578125 960.855469 1307.761719 960.042969 C 1304.78125 959.273438 1295.640625 957.585938 1295.640625 957.585938 C 1294.371094 957.042969 1293.550781 954.902344 1295.039062 951.882812 C 1295.238281 951.527344 1295.621094 951.058594 1296.160156 950.488281 C 1296.351562 951.96875 1296.339844 957.429688 1307.730469 954.355469 C 1321.050781 950.941406 1328.390625 954.636719 1331.03125 948.699219 C 1333.628906 942.601562 1334.039062 940.269531 1334.449219 937.941406 C 1335.03125 935.5625 1335.5 934.6875 1336.570312 932.714844 C 1337.761719 930.527344 1337.171875 927.945312 1338.730469 924.539062 C 1340.121094 921.179688 1344.078125 917.800781 1347.859375 916.304688 C 1351.589844 914.644531 1355.398438 905.234375 1355.949219 903.96875 C 1356.550781 902.621094 1360.859375 898.957031 1363.328125 897.9375 L 1364.011719 897.710938 C 1364.148438 897.679688 1364.230469 897.652344 1364.289062 897.617188 C 1367.46875 896.515625 1371.558594 894.726562 1372.761719 894.371094 C 1374.28125 893.917969 1381.789062 890.761719 1383.671875 889.652344 C 1385.589844 888.710938 1392.761719 887.496094 1392.761719 887.496094 C 1394.789062 886.894531 1401.78125 886.28125 1402.820312 886.703125 C 1404.03125 887.078125 1409.820312 887.378906 1411.429688 887.816406 C 1413.25 888.378906 1414.339844 890.8125 1414.339844 890.8125 C 1417.941406 894.886719 1424.089844 894.527344 1426.828125 893.890625 C 1429.539062 893.085938 1433.460938 890.816406 1433.710938 889.824219 C 1433.910156 888.65625 1433.730469 887.425781 1433.730469 887.425781 C 1435.449219 887.648438 1436.839844 886.132812 1439.019531 884.195312 C 1441.101562 881.925781 1440.851562 877.398438 1439.300781 872.167969 C 1437.738281 866.933594 1432.480469 865.925781 1431.109375 865.050781 C 1429.578125 864.214844 1421.980469 859.679688 1421.980469 859.679688 C 1412.460938 854.246094 1395.71875 846.183594 1389.449219 843.632812 C 1384.488281 841.523438 1378.289062 838.9375 1369.101562 835.597656 C 1370.648438 834.742188 1371.871094 833.980469 1371.871094 833.980469 C 1372.941406 833.554688 1374.058594 833.179688 1375.210938 832.851562 C 1382.699219 832.34375 1389.980469 832.910156 1393.691406 833.183594 C 1398.75 833.515625 1422.769531 837.019531 1427.171875 838.839844 C 1431.789062 840.765625 1442.660156 843.964844 1445.898438 843.730469 C 1449.308594 843.453125 1449.191406 838.710938 1448.820312 838.089844 C 1448.28125 837.511719 1448.398438 835.453125 1449.890625 834.273438 C 1451.199219 833.152344 1451.230469 830.75 1450.710938 829.621094 C 1450.238281 828.660156 1451.980469 828.320312 1452.75 826.621094 C 1453.25 825.351562 1451.078125 824.789062 1448.511719 824.609375 C 1449.300781 823.488281 1449.140625 821.628906 1448.820312 820.671875 L 1448.941406 820.589844 C 1451.148438 819.378906 1451.898438 816.949219 1451.378906 815.820312 C 1450.691406 814.738281 1449.609375 813.589844 1450.421875 812.609375 C 1451.058594 811.679688 1451.660156 808.75 1451.039062 807.28125 C 1450.199219 805.691406 1451.851562 804.46875 1453.039062 802.269531 C 1453.859375 800.308594 1452.890625 797.679688 1448.949219 803.011719 C 1449.648438 801.628906 1450.75 799.140625 1450.109375 798 C 1449.320312 796.578125 1450.949219 794.628906 1451.570312 792.421875 C 1452.320312 789.988281 1448.519531 787.078125 1444.441406 797.480469 C 1440.328125 807.71875 1423.898438 815.550781 1423.898438 815.550781 C 1417.910156 820.089844 1404.671875 824.398438 1396.390625 823.738281 C 1388.320312 823.199219 1374.230469 826.480469 1374.230469 826.480469 C 1373.699219 826.671875 1373.078125 826.859375 1372.429688 827.019531 C 1370.109375 827.230469 1368.621094 827.410156 1368.621094 827.410156 C 1368.191406 827.488281 1367.761719 827.539062 1367.328125 827.550781 C 1366.640625 827.429688 1366.25 827.140625 1366.359375 826.609375 C 1367.609375 822.75 1380.558594 816.871094 1383.941406 814.03125 C 1387.078125 811.621094 1405.339844 800.121094 1411.621094 794.019531 C 1414.609375 791.109375 1421.421875 783.75 1423.101562 781.96875 C 1424.71875 780.011719 1430.988281 775.761719 1433.179688 771.980469 C 1435.359375 768.210938 1436.519531 763.449219 1435.679688 761.859375 C 1434.890625 760.441406 1434.429688 762.601562 1434.199219 764.320312 C 1433.980469 766.039062 1432.78125 768.789062 1429.859375 769.480469 C 1426.890625 770 1431.359375 760.941406 1432.53125 759.308594 C 1433.308594 757.601562 1434.71875 751.851562 1434.058594 749.660156 C 1433.578125 747.421875 1432.71875 746.390625 1432.800781 749.121094 C 1432.78125 750.148438 1432.359375 751.699219 1431.71875 753.410156 L 1431.660156 753.320312 C 1430.699219 751.949219 1430.460938 754.21875 1430.238281 755.949219 C 1430.058594 757.839844 1428.859375 760.578125 1425.660156 761.539062 C 1422.449219 762.488281 1427.109375 752.828125 1428.011719 750.910156 C 1428.949219 749.160156 1430.101562 743.121094 1429.441406 740.921875 C 1428.738281 738.570312 1427.761719 737.75 1427.890625 740.648438 C 1428.019531 743.558594 1424.550781 751.019531 1422.648438 754.53125 C 1422.519531 754.769531 1422.378906 754.988281 1422.238281 755.191406 C 1422.78125 751.929688 1423.601562 749.101562 1423.601562 749.101562 C 1426.789062 740.058594 1424.980469 735.828125 1424.410156 734.519531 C 1423.839844 733.21875 1421.519531 729.140625 1422.988281 735.308594 C 1424.578125 741.269531 1421.140625 747.628906 1420.71875 748.671875 C 1420.359375 749.550781 1419.25 750.921875 1418.191406 756.980469 C 1417.960938 756.929688 1417.828125 756.878906 1417.828125 756.878906 C 1414.398438 754.601562 1418 741.398438 1418 741.398438 C 1421.039062 731.851562 1418.839844 727.539062 1418.050781 726.121094 C 1417.53125 724.988281 1414.699219 721.058594 1416.679688 727.089844 C 1418.710938 733.28125 1415.03125 740.070312 1414.78125 741.070312 C 1414.359375 742.109375 1412.898438 744.019531 1411.851562 754.070312 C 1410.878906 765.019531 1403.371094 776.808594 1402.019531 779.050781 C 1400.609375 781.121094 1379.46875 799 1373.269531 802.871094 C 1368.261719 805.828125 1363.410156 812.96875 1355.128906 817.28125 C 1354.910156 817.390625 1354.691406 817.488281 1354.46875 817.578125 C 1350.339844 815.980469 1347.238281 813.011719 1347.238281 813.011719 C 1335.308594 804.429688 1333.53125 802.761719 1320.210938 790.730469 C 1305.691406 777.78125 1302.410156 761.851562 1302.410156 761.851562 C 1296.75 744.050781 1313.890625 727.550781 1317.539062 724.988281 C 1321.238281 722.609375 1337.078125 717.148438 1342.109375 714.921875 C 1347.199219 712.851562 1368.011719 708.679688 1370.761719 708.039062 C 1373.511719 707.410156 1378.738281 707.691406 1381.628906 706.269531 C 1384.679688 704.808594 1385.398438 703.5 1385.519531 701.441406 C 1385.761719 699.160156 1385.019531 699.75 1384.371094 700.679688 C 1383.558594 701.660156 1382.699219 702.46875 1382.671875 701.738281 C 1382.46875 701.070312 1380.199219 702.101562 1378.75 702.171875 C 1377.128906 702.28125 1378.011719 700.921875 1376.339844 700.871094 C 1374.789062 700.589844 1373.890625 702.511719 1369.929688 702.78125 C 1368.929688 702.78125 1368.179688 702.558594 1367.640625 702.179688 C 1368.578125 701.921875 1369.460938 701.621094 1370.199219 701.21875 C 1373.371094 699.539062 1374.199219 698.011719 1374.28125 695.78125 C 1374.300781 693.390625 1373.441406 694.199219 1372.789062 695.121094 C 1371.980469 696.101562 1371.171875 697.070312 1370.96875 696.398438 C 1370.78125 695.769531 1368.671875 696.839844 1366.96875 697.25 L 1366.980469 697.21875 C 1368 695.070312 1370.171875 690.019531 1370.238281 687.789062 C 1370.378906 685.179688 1366.941406 691.53125 1365.78125 693.171875 C 1364.730469 694.859375 1360.25 696.921875 1354.710938 698.210938 C 1352.820312 697.328125 1352.898438 694.851562 1353.628906 693.109375 C 1354.648438 690.96875 1356.878906 685.519531 1356.910156 683.121094 C 1356.878906 680.558594 1353.371094 687.300781 1352.25 689.109375 C 1351.621094 690.019531 1349.988281 691.191406 1347.710938 692.339844 C 1347.660156 691.351562 1347.699219 690.460938 1347.710938 689.898438 C 1348.011719 687.800781 1353.75 682.410156 1355.75 677.398438 C 1357.578125 672.449219 1357.78125 668.160156 1356.519531 665.78125 C 1355.261719 663.398438 1356.128906 667.550781 1355.230469 671.308594 C 1354.320312 675.070312 1350.46875 678.789062 1347.230469 679.019531 C 1343.988281 679.25 1342.898438 668.179688 1342.691406 664.390625 C 1342.480469 660.589844 1344.511719 654.46875 1346.101562 651.789062 C 1347.820312 648.890625 1346.609375 649.800781 1344.910156 650.859375 C 1343.199219 651.921875 1339.488281 657.980469 1339.230469 662.660156 C 1339.078125 664.859375 1339.089844 666.878906 1339.230469 669.019531 C 1337.910156 672.53125 1334.511719 675.949219 1331.371094 676.390625 C 1327.851562 676.890625 1326.101562 665.460938 1325.71875 661.71875 C 1325.289062 657.800781 1327.230469 651.351562 1328.878906 648.28125 C 1330.421875 645.429688 1329.390625 646.289062 1327.398438 647.621094 C 1325.578125 648.890625 1321.800781 655.351562 1321.761719 660.140625 C 1321.738281 662.441406 1321.851562 664.480469 1322.078125 666.621094 C 1320.078125 663.679688 1317.390625 660.199219 1315.738281 658.441406 C 1313.53125 655.980469 1311.078125 648.980469 1310.609375 646.179688 C 1310.199219 643.550781 1309.269531 644.738281 1309.109375 647.921875 C 1308.949219 651.089844 1312.089844 659.160156 1313.101562 660.699219 C 1314.058594 662.070312 1319.53125 670.550781 1319.53125 670.550781 C 1321.019531 672.820312 1322.371094 675.898438 1323.46875 679.140625 C 1323.238281 683.949219 1321.769531 688.949219 1319.621094 690 C 1316.570312 691.460938 1313.949219 687.640625 1311.988281 681.058594 C 1310.03125 674.480469 1305.269531 668.359375 1305.269531 668.359375 C 1303.03125 665.171875 1298.230469 660.160156 1295.910156 657.910156 C 1293.421875 655.71875 1290.410156 648.699219 1289.78125 645.949219 C 1289.308594 643.148438 1288.261719 644.570312 1288.148438 647.910156 C 1288.171875 651.03125 1292.03125 659.070312 1293.210938 660.558594 C 1294.328125 661.871094 1300.480469 670.148438 1300.480469 670.148438 C 1305.679688 676.511719 1309.699219 690.019531 1309.269531 694.738281 C 1309.199219 696.25 1308.820312 697.71875 1308.21875 699.078125 C 1307.140625 697.890625 1305.269531 696.261719 1301.808594 694.390625 C 1295.238281 690.828125 1287.78125 681.828125 1287.78125 681.828125 C 1285.261719 678.910156 1284.238281 672.421875 1284.238281 672.421875 C 1284.460938 670.699219 1282.179688 663.648438 1282.28125 674.46875 C 1282.359375 684 1291.570312 692.101562 1292.75 693.589844 C 1293.878906 694.910156 1300.230469 700.191406 1303.238281 703.519531 C 1303.5 703.800781 1303.738281 704.101562 1303.949219 704.421875 C 1303.269531 704.910156 1302.558594 705.300781 1301.839844 705.589844 C 1298.269531 707.199219 1291.621094 702.75 1290.761719 701.71875 C 1290.121094 700.808594 1288.191406 698.628906 1282.300781 696.148438 C 1274.988281 693.179688 1266.519531 684.488281 1266.519531 684.488281 C 1263.660156 681.671875 1262.078125 675.148438 1262.078125 675.148438 C 1262.46875 673.378906 1259.46875 666.371094 1260.21875 677.550781 C 1260.691406 687.148438 1271.089844 694.898438 1272.378906 696.160156 C 1273.679688 697.429688 1280.820312 702.289062 1284.339844 705.46875 C 1287.691406 708.699219 1287.949219 714.5 1287.949219 714.5 C 1288.261719 718.628906 1278.460938 737.550781 1278.109375 741.328125 C 1277.808594 745.269531 1273.28125 751.039062 1277.339844 768.390625 C 1280.609375 783.039062 1295.03125 793.820312 1296.46875 795.589844 C 1298.089844 797.320312 1296.289062 798.039062 1293.839844 797.851562 C 1291.21875 797.710938 1289.351562 796.980469 1290.359375 798.519531 C 1291.148438 799.941406 1298.71875 801.910156 1300.441406 802.128906 C 1302.328125 802.308594 1301.359375 801.488281 1309.019531 807.480469 C 1316.640625 813.300781 1330.691406 821.609375 1333.148438 823.089844 C 1335.609375 824.558594 1344.628906 828.308594 1346.269531 829.480469 C 1347.898438 830.640625 1348.648438 833.175781 1348.179688 834.050781 L 1348.140625 834.121094 C 1346.988281 834.609375 1345.878906 835.164062 1344.839844 835.746094 C 1344.558594 835.074219 1344.199219 834.242188 1343.691406 833.183594 C 1341.320312 828.929688 1336.699219 826.988281 1332.859375 825.199219 C 1329.191406 823.351562 1322.960938 820.96875 1320.570312 820.949219 C 1318.511719 820.828125 1320.300781 829.308594 1320.769531 832.105469 C 1321.398438 834.859375 1325.621094 840.398438 1326.699219 841.550781 C 1327.269531 842.050781 1328.671875 842.765625 1330.199219 843.394531 C 1325.710938 844.757812 1320.128906 846.890625 1318.710938 847.425781 C 1316.230469 848.34375 1301.960938 851.675781 1299.648438 852.546875 C 1297.550781 853.535156 1275.890625 856.683594 1273.078125 857.148438 C 1270.640625 857.714844 1255.351562 858.914062 1251.949219 859.175781 L 1251.609375 859.128906 C 1248.511719 858.585938 1234.488281 857.796875 1221.761719 860.113281 C 1209.039062 862.433594 1189.640625 878.136719 1186.140625 881.203125 C 1182.589844 884.09375 1170.679688 892.238281 1158.449219 896.246094 C 1146.28125 900.421875 1123.488281 905.367188 1109.53125 907.871094 C 1095.460938 910.59375 1082.789062 914.363281 1072.328125 917.480469 C 1060.511719 921 1053.089844 926.332031 1048.339844 930.136719 C 1043.5 933.933594 1037.070312 940.085938 1034.480469 943.648438 C 1033.140625 944.417969 1026.320312 947.023438 1024.621094 951.722656 C 1022.839844 956.84375 1021.910156 958.039062 1020.890625 960.179688 C 1019.660156 962.199219 1018.800781 966.132812 1019.410156 969.996094 C 1019.960938 973.695312 1020.980469 976.515625 1021.109375 977.578125 C 1021.289062 978.808594 1021.210938 979.753906 1021.210938 979.753906 L 1021.679688 978.878906 C 1021.679688 978.878906 1022.691406 980.417969 1021.960938 982.285156 L 1023.28125 981.15625 C 1023.28125 981.15625 1024.808594 983.828125 1024.378906 984.875 C 1023.910156 985.75 1025.589844 983.964844 1026.640625 982.550781 C 1027.628906 980.964844 1029.148438 980.511719 1029.148438 980.511719 C 1029.148438 980.511719 1029.261719 980.648438 1029.421875 980.894531 C 1029.839844 983.300781 1033.300781 1001.761719 1042.101562 1012.871094 C 1044.871094 1016.640625 1038.589844 1043.691406 1035.929688 1048.339844 C 1033.488281 1053.109375 1023.878906 1060.929688 1013.769531 1068.359375 C 1013.769531 1068.359375 1008.011719 1072.460938 1009.109375 1076.179688 C 1010.21875 1079.890625 1011.128906 1087.890625 1010.300781 1093.101562 C 1009.289062 1098.359375 1008.421875 1126.929688 1008.421875 1126.929688 C 1008.421875 1126.929688 1005.570312 1140.910156 1008.691406 1142.929688 "/>
    <path fill-rule="evenodd" fill="rgb(1.713562%, 2.252197%, 2.304077%)" fill-opacity="1" d="M 2487.828125 1752.078125 C 2264.300781 1713.941406 2105.898438 1653.738281 1989.351562 1633.628906 C 1940.421875 1625.191406 1894.96875 1615.390625 1860.660156 1574.710938 C 1846.820312 1558.300781 1820.539062 1566.460938 1789.089844 1547.570312 C 1774.449219 1538.769531 1760.421875 1522.171875 1761.03125 1508.058594 C 1763.820312 1443.148438 1716.949219 1447.449219 1712.890625 1399.488281 C 1712.699219 1399.378906 1702.011719 1349.769531 1676.558594 1337.878906 C 1627.820312 1322.339844 1630.46875 1319.648438 1623.398438 1294.640625 C 1605.5 1280.289062 1587.609375 1265.941406 1569.71875 1251.601562 C 1551.378906 1220.460938 1568.691406 1222.039062 1488.949219 1215.941406 C 1475.539062 1188.761719 1480 1192.699219 1417.371094 1180.269531 C 1427.171875 1143.441406 1398.640625 1131.960938 1355.011719 1101.78125 C 1308.179688 1072.769531 1306.671875 1070.101562 1251.738281 1085.589844 C 1172.640625 1091.160156 1145.960938 1097.410156 1077.421875 1136.820312 C 1066.300781 1143.21875 1009.070312 1157.019531 961.890625 1187.441406 C 937.6875 1203.050781 948.777344 1219.859375 916.210938 1238.558594 C 826.890625 1353.148438 851.011719 1430.078125 746.34375 1500.941406 C 657.007812 1561.410156 617.992188 1666.078125 585.925781 1734.21875 L 2487.828125 1752.078125 "/>
    <g clip-path="url(#clip-8)">
        <path fill-rule="evenodd" fill="rgb(1.713562%, 2.252197%, 2.304077%)" fill-opacity="1" d="M 2976.378906 1695.859375 C 2938.410156 1653.570312 2854.398438 1677.558594 2821.878906 1640.691406 C 2661.339844 1458.660156 2638.628906 1679.398438 2403.949219 1637.320312 C 2311.109375 1620.671875 2155.039062 1618.851562 2016.078125 1631.648438 C 1789.601562 1652.539062 1619.949219 1716.738281 1333.871094 1719.371094 C 902.265625 1723.359375 439.828125 1813.789062 0 1831.609375 L 2976.378906 1831.609375 L 2976.378906 1695.859375 "/>
    </g>
    <g clip-path="url(#clip-9)">
        <path fill-rule="evenodd" fill="rgb(1.713562%, 2.252197%, 2.304077%)" fill-opacity="1" d="M 0 1524.429688 C 416.972656 1096.578125 689.875 1174.390625 1080.859375 1420.589844 C 1240.328125 1521 1303.011719 1711.789062 1606.789062 1755.089844 C 2034.101562 1816 2536.550781 1813.789062 2976.371094 1831.609375 L 0 1831.609375 L 0 1524.429688 "/>
    </g>

</svg>